<?xml version="1.0" encoding="UTF-8"?>
<svg width="36.7453mm" height="36.7453mm" version="1.1" viewBox="0 0 36.7453 36.7453" xmlns="http://www.w3.org/2000/svg">
	<g transform="translate(-44.3714 -191.693)">
		<circle cx="62.744" cy="210.065" r="18.3727" fill="#3c4d7d" fill-opacity=".968627"/>
		<g>
			<circle cx="62.2835" cy="210.047" r="17.1709" fill="#4a639f"/>
			<ellipse cx="60.9112" cy="209.95" rx="15.2467" ry="15.634" fill="#5a76bc"/>
			<ellipse cx="55.2383" cy="211.607" rx="7.50574" ry="2.85389" fill="#4a639f"/>
			<path d="m64.3137 198.279 1.05594-0.0285s0.456623-0.17124 0.428085 0.0856c-0.02854 0.25685-0.54224 1.08448-1.05594 0.99886-0.513701-0.0856-1.0274-0.1427-1.25571-0.62786-0.228312-0.48516 0.82763-0.42808 0.82763-0.42808z" fill="#7b95ca"/>
			<ellipse cx="56.8365" cy="211.621" rx="5.45094" ry="1.95492" fill="#3c4e7d"/>
			<path d="m56.2989 208.781s6.58786-4.33802 7.10156-2.76838c0.513699 1.56965-1.34133 1.08448-1.91211 1.85504-0.570777 0.77055 3.25344 0.91324 2.65412 2.34019s-1.54732 0.83275-1.54732 0.83275-0.926285-1.91704-6.29625-2.2596z" fill="#7d97cb"/>
			<path d="m67.3103 200.048s3.79568-0.48516 1.0274 1.34133c-2.76828 1.8265-3.59591-0.42808-2.99659-1.08448 0.599318-0.65639 1.96919-0.25685 1.96919-0.25685z" fill="#7f99cc"/>
			<path d="m58.3776 221.481s-5.82195-2.0548-6.82081-1.25571 4.30938 1.88357 6.53542 1.65526c2.22604-0.22831 2.16896 0.62786 5.87902-0.34247 3.71006-0.97032 5.02286 0.39955 6.02172-0.65639s-6.16441 0.48516-6.16441 0.48516-3.62444-0.39955-5.45094 0.11415z" fill="#7f99cc"/>
			<path d="m68.4518 218.399s-0.998863-0.94179-1.94065-0.17124c-0.941785 0.77056 4.54033 1.48193 6.33565 0 1.79532-1.48192-0.684934-1.71233-1.82649-0.54224-1.14156 1.1701-1.11302-0.68493-2.56851 0.71348z" fill="#7d97cb"/>
		</g>
	</g>
</svg>
