<?xml version="1.0" encoding="UTF-8"?>
<svg width="55.7025mm" height="38.0754mm" version="1.1" viewBox="0 0 55.7025 38.0754" xmlns="http://www.w3.org/2000/svg">
	<g transform="translate(-78.738 -146.427)">
		<circle cx="106.036" cy="166.74" r="17.6318" fill="#e8c370"/>
		<circle cx="106.093" cy="163.929" r="14.1204" fill="#edcf85"/>
		<path d="m121.439 158.159c8.72488-8.25266 4.31741-6.41636-2.73064-3.67859-7.04805 2.73778-28.9893 18.9401-28.9893 18.9401-11.7526 10.6898 2.3459 4.075 2.3459 4.075s0.752842 0.95078 1.22193 1.42361c0 0-21.4742 9.36607-4.11998-7.05019 0 0 19.755-15.8409 28.2004-18.6378 8.44534-2.79685 20.0366-8.93051 4.97833 6.80941-0.49574-1.36409-0.90663-1.88161-0.90663-1.88161z" fill="#e5b35a"/>
		<path d="m92.717 171.237s15.6573-6.07217 23.8821-15.778c2.14863-0.99319 0.49673-0.35186 2.14863-0.99319 0 0 0.80666 0.90338 1.2594 1.51856 0 0-6.48727 11.0498-29.4644 19.1721 0 0-0.61508-1.20159-0.823536-1.73529z" fill="#f9dea2"/>
		<path d="m91.1988 176.265s0.664229 1.27316 1.96217 2.52315c0 0 19.9788-7.43461 29.0127-19.1521 0 0-0.94846-1.9699-1.55747-2.81106 0 0-8.25233 11.8079-29.4174 19.44z" fill="#e5b35a"/>
		<path d="m96.2795 181.426 0.786352 0.49309s18.4465-7.01509 26.4422-17.549c0 0-0.0499-0.41691-0.13821-0.85921 0 0-8.56671 10.6277-27.0904 17.9151z" fill="#db913a"/>
		<path d="m123.632 165.61s-8.70732 11.3652-25.3376 16.9712c0 0 1.36779 0.71441 2.70964 1.05728 0 0 15.7912-7.18284 22.5408-14.816 0 0 0.34907-1.11363 0.0871-3.21245z" fill="#f9dea2"/>
		<path d="m93.7508 179.387c-24.1744 9.34142-4.79096-8.25694-4.79096-8.25694 10.8527-10.5433 27.6941-18.4664 27.6941-18.4664 28.1865-12.5889 5.95492 8.05731 5.95492 8.05731l-0.26307-0.68016s19.2963-17.8371-5.01357-6.83889c0 0-12.0403 5.2336-28.1651 18.6672 0 0-17.791 15.6374 4.11998 7.05019z" fill="#605f5d"/>
		<path d="m123.252 162.932c22.4755-21.4306 6.55725-18.1809-8.26358-11.3818-14.8208 6.79909-26.4208 17.5814-26.4208 17.5814-25.5836 25.3638 6.85756 11.69 6.85756 11.69-0.649865-0.46699-1.67425-1.43427-1.67425-1.43427s-23.5794 10.1022-4.80544-8.31368c0 0 12.8717-11.7218 27.7382-18.4228 0 0 27.6746-13.088 5.92535 8.07051 0 0 0.42348 1.02864 0.64299 2.21068z" fill="#db913a"/>
	</g>
</svg>
