<?xml version="1.0" encoding="UTF-8"?>
<svg width="38.7535mm" height="26.1534mm" version="1.1" viewBox="0 0 38.7535 26.1534" xmlns="http://www.w3.org/2000/svg">
	<g transform="translate(-74.3613 -136.513)">
		<circle cx="92.7924" cy="149.589" r="13.0767" fill="#40afc1"/>
		<circle cx="91.9045" cy="148.863" r="10.978" fill="#4ab5ce"/>
		<circle cx="90.8955" cy="147.369" r="8.43528" fill="#70c3d6"/>
		<ellipse cx="89.5822" cy="146.754" rx="4.395" ry="4.28084" fill="#8fccdb"/>
		<path d="m81.544 142.921c-10.4614-1.52281-1.37117 3.24168-1.37117 3.24168-0.229224 0.75357-0.267504 1.20861-0.267504 1.20861s-14.0754-7.04786 2.6289-5.89132c0 0 15.4901 2.91979 23.3174 7.43189 7.82727 4.51209 11.9155 7.31225-1.37901 6.55793 0 0 0.36111-0.47683 0.70729-1.6905 0 0 9.19794 1.08398 0.65535-3.24791-8.54259-4.3319-24.2912-7.61038-24.2912-7.61038z" fill="#cce8ea"/>
	</g>
</svg>
