<?xml version="1.0" encoding="UTF-8"?>
<svg width="189" height="267" version="1.1" viewBox="0 0 189 267" xmlns="http://www.w3.org/2000/svg">
	<g>
		<path d="m-0.273566 52.251 188.76 0.273566-16.6875 192.864-77.4191 21.0646-77.6926-21.0646z" fill="#264de4"/>
		<path d="m94.0119 68.1436 1.16064 182.994 62.6746-18.1834 14.3146-165.585z" fill="#2965f1"/>
		<path d="m94.164 92.1292 59.8143-0.385916-10.8326 121.48-48.1326 12.7656-0.15949-25.1462 25.8531-7.35029 1.9344-29.7898-28.0181 0.77725-0.154614-24.3774 31.2678 4.4e-4 1.9344-24.3734-33.3567 3e-3z" fill="#fff"/>
	</g>
	<g fill="#ebebeb">
		<path d="m94.164 92.1292-59.4415-0.289196 2.61144 24.18 56.9798-0.28716z"/>
		<path d="m94.4683 140.103-55.4852-0.31086 2.32531 24.3473 53.3145 0.34091z"/>
		<path d="m94.8535 200.843-27.146-6.74829-1.36783-18.7392-23.2531-0.27356 3.00922 37.4785 48.9172 13.4288z"/>
	</g>
	<g>
		<path d="m44.0441-1.4088e-7v35.8371h29.5451v-12.3105h-17.2346v-11.7633h17.2346v-12.0369z"/>
		<path d="m78.7869-0.273566v23.5266h16.6875v3.00922h-16.9611v10.1219h28.998v-24.0738h-16.9611v-2.46209h16.4139v-9.84836z"/>
		<path d="m112.435 0.273565v22.9795h17.5082v2.46209h-17.2346v10.6691h29.2715v-23.5266h-17.2346v-3.00922h17.5082v-10.1219z"/>
	</g>
</svg>
