<?xml version="1.0" encoding="UTF-8"?>
<svg width="225" height="225" version="1.1" viewBox="0 0 225 225" xmlns="http://www.w3.org/2000/svg">
	<g>
		<path d="m31.9502 43.8944 159.588 0.163011-14.182 162.848-65.8566 18.2573-65.2045-18.0942z" fill="#e44d26"/>
		<path d="m111.578 57.8637 0.11527 19.8258 50.7172 0.115266-1.3832 19.8258-49.4471 0.234537 0.0234 20.1994 47.4956-0.16301-5.37938 61.2922-41.4049 11.8998 0.48904 20.8654 52.8157-14.834 11.7368-139.049z" fill="#f16529"/>
		<path d="m112.315 191.094 0.32601-21.1915 22.3325-5.70539 2.11915-26.4078-25.1037 0.16301-0.38533-19.8874 47.4956-0.16301-5.37938 61.2922z" fill="#fff"/>
		<path d="m111.989 137.952 0.65205 31.9502 22.3325-5.70539 2.11915-26.4078z" fill="#f16529"/>
		<path d="m112.641 169.902-22.3326-6.52045-1.3226-15.3797-20.2869-0.23053 2.53586 31.1219 41.0802 12.2002z" fill="#ebebeb"/>
		<path d="m111.989 137.952-44.2121-0.0934-5.30225-60.6301 49.2188 0.461066-0.11311 20.1756-27.3203-4e-3 1.49846 20.0563 25.8452 0.14707z" fill="#ebebeb"/>
		<g>
			<path d="m48.4144 1.3485v30.1571l10.5957 0.163012-0.326023-10.1067 9.29164-0.326022v10.2697h9.78068v-30.1571l-10.2697-0.163011 0.163011 10.4327-8.80261-0.489034v-9.61767z"/>
			<path d="m82.4837 11.2922h8.96562l-0.163012 19.8874 10.1067 0.163011v-19.8874l8.96562-0.326023v-9.78068h-28.0379z"/>
			<path d="m114.434 1.3485 0.16301 30.4831h10.4327l-0.32602-15.1601 7.1725 11.0848 6.84647-11.0848v14.834l10.2697-0.163011-0.32603-29.9941-10.4327-0.163011-6.52045 11.0848-6.19443-10.5957z"/>
			<path d="m153.394 1.51151 0.32602 29.8311 25.2668 0.163011-0.32602-10.2697-14.834-0.326023-0.16301-19.5614z"/>
		</g>
	</g>
	<path d="m111.58 97.8652 0.11311-20.1756 50.7172 0.115266-1.3832 19.8258z" fill="#fff"/>
</svg>
