<?xml version="1.0" encoding="UTF-8"?>
<svg width="195" height="195" version="1.1" viewBox="0 0 195 195" xmlns="http://www.w3.org/2000/svg">
	<g>
		<path d="m31.5501 41.3391 132.043 0.584262-13.1459 132.335-53.7521 14.8987-52.5836-15.4829z" fill="#e5a129"/>
		<path d="m97.0869 52.0551 54.1208 0.206567-10.535 114.232-43.5858 12.1875z" fill="#f1be21"/>
		<path d="m97.0869 69.2002 34.2903-0.413136 4.13135 26.4407-17.5583-0.206568 0.20657-10.1218-21.0699 0.206568z" fill="#fefefe"/>
		<path d="m97.0869 69.2002h-31.6049l-4.33792 48.9566 35.9428-0.20657v-16.1123l-19.0042 0.20657 1.03284-17.1451 17.9714 0.206568z" fill="#ebeaea"/>
		<path d="m97.0869 101.838 38.0085 0.20657-3.92479 49.7828-34.0837 9.91525v-16.9386l18.7977-5.7839 1.44598-21.2765-20.2436 0.20657z" fill="#fefefe"/>
		<path d="m97.0869 144.804-18.3845-5.7839-0.206568-12.6006h-17.1451l2.68538 25.2013 33.0508 10.1218z" fill="#eae9e9"/>
		<path d="m84.718 5.84519h8.0336v25.1233h-19.8649v-9.34819h11.8313z" fill="#231e20"/>
		<path d="m101.077 5.69912v9.05606l7.88754 7.88754h-7.88754v7.74147h21.3256v-8.17967l-8.2527-8.2527h8.10664v-8.10663z" fill="#231e20"/>
	</g>
</svg>
