<?xml version="1.0" encoding="UTF-8"?>
<svg width="306" height="165" version="1.1" viewBox="0 0 306 165" xmlns="http://www.w3.org/2000/svg" xmlns:xlink="http://www.w3.org/1999/xlink">
	<g>
		<path d="m230.255 104.169-23.9736 0.26936-3.77113 21.0106-17.2394 0.26936 14.8151-78.3856 38.7887-0.269366s17.5088 1.88556 19.9331 15.3539l0.32744 14.7753s-3.28591 23.668-28.8803 26.9764z"/>
		<path d="m215.041 59.0983-6.28553 33.2371 18.0947 0.09524s12.8568-1.14282 15.4281-16.8567l0.0952-10.1902s-1.42853-5.52365-8.95212-6.38077z" fill="#fff"/>
		<path d="m138.663 26.3374-15.2376 79.2358 17.9042 0.38094 7.99977-46.0939 16.8026 0.221673s7.74428-0.202025 6.86884 6.59947l-7.20555 38.452 18.1149 0.26937 6.06074-36.1624-0.13468-11.5154s-1.07747-9.29313-16.9701-9.36048l-20.0004-0.336707 3.23239-20.8759z"/>
		<path d="m96.4825 104.3-23.9736 0.26936-3.77113 21.0106-17.2394 0.26936 14.8151-78.3856 38.7887-0.269366s17.5088 1.88556 19.9331 15.3539l0.32744 14.7753s-3.28591 23.668-28.8803 26.9764z"/>
		<path d="m81.2688 59.2284-6.28553 33.2371 18.0947 0.09524s12.8568-1.14282 15.4281-16.8567l0.0952-10.1902s-1.42853-5.52365-8.95212-6.38077z" fill="#fff"/>
	</g>
</svg>
