<?xml version="1.0" encoding="UTF-8"?>
<svg width="381" height="132" version="1.1" viewBox="0 0 383 132" xmlns="http://www.w3.org/2000/svg">
	<g>
		<path d="m65.9036 0.0250878v96.2562s-29.011 4.69542-42.9296 0.503081c-13.9186-4.19234-21.9679-11.2355-22.471-32.7003-0.503081-21.4648 16.0986-30.3526 22.8063-31.8618 6.70775-1.50924 21.9679-0.167694 21.9679-0.167694v-31.8618z" fill="#092e20"/>
		<path d="m44.7742 48.3209 0.335387 33.8741h-11.9062s-11.5709-3.18618-11.5709-12.577v-9.05546s0.838469-13.2478 11.2355-13.2478 11.9062 1.00616 11.9062 1.00616z" fill="#fff"/>
		<path d="m99.107-0.142606-0.167693 21.8002h-21.2971v-21.8002z" fill="#092e20"/>
		<path d="m58.5251 117.411 18.1109 8.72007s18.4463-4.86311 20.9617-26.6633c2.51541-21.8002 1.50924-67.9159 1.50924-67.9159h-21.4648l0.335387 57.6866s-0.335387 20.794-19.4525 28.1725z" fill="#092e20"/>
		<path d="m111.516 35.9115 0.16769 17.1048s11.3439-7.29046 20.2316-7.12277c8.88777 0.167693 6.8179-0.01017 8.83022 0.995989 2.01233 1.00616 2.63224 2.60521 2.63224 2.60521l-0.16769 6.54005s-36.0541 1.00616-36.0541 20.4586 12.2416 21.6325 20.6263 21.6325 34.2095-1.67694 34.2095-1.67694l0.16769-52.1527s-1.34155-13.7509-19.2848-13.4155c-17.9432 0.335387-31.3587 5.03081-31.3587 5.03081z" fill="#092e20"/>
		<path d="m144.049 69.1987-0.0838 14.9247-13.9186-0.08385s-4.1085-1.76078-4.1085-3.60541v-5.03081s0.50308-4.36004 18.1109-6.20467z" fill="#fff"/>
		<path d="m172.389 35.4085 0.1677 62.0467 20.4586 0.167693 0.16769-49.805s19.4525-4.02465 19.7878 5.53389c0.33539 9.55854 0 44.7742 0 44.7742l21.2971-0.335387-0.33539-44.2711s4.36003-36.2218-61.5436-18.1109z" fill="#092e20"/>
		<path d="m315.767 33.2284-7.88161 15.0924h-4.86311l0.83847 49.4696s1.00616 28.0048-27.3341 32.868-34.7126-2.6831-34.7126-2.6831v-19.2848s41.2526 18.9494 41.7557-12.577c0 0-30.7631 10.7481-41.4351-16.7619-10.672-27.5099 13.9921-43.3993 21.5811-45.2965s25.1299-6.15933 52.0512-0.826696z" fill="#092e20"/>
		<path d="m283.402 46.4762v34.2095s-23.1417 6.37236-22.471-16.434c0.67077-22.8063 22.471-17.7755 22.471-17.7755z" fill="#fff"/>
	</g>
	<ellipse cx="346.79" cy="65.761" rx="34.7126" ry="34.7126" fill="#092e20"/>
	<path d="m333.029 65.1788s-0.0338-18.0814 13.484-17.6071c13.5178 0.47431 12.6878 17.0751 12.6878 17.0751s0.35574 19.3281-12.4506 18.9724c-12.8064-0.355732-13.7212-18.4404-13.7212-18.4404z" fill="#fff"/>
</svg>
