<?xml version="1.0" encoding="utf-8"?>
<!-- Generator: Adobe Illustrator 22.0.0, SVG Export Plug-In . SVG Version: 6.00 Build 0)  -->
<svg version="1.1" id="Layer_1" xmlns="http://www.w3.org/2000/svg" xmlns:xlink="http://www.w3.org/1999/xlink" x="0px" y="0px"
	 viewBox="0 0 379 131.7" style="enable-background:new 0 0 379 131.7;" xml:space="preserve">
<style type="text/css">
	.st0{fill:#092E20;}
</style>
<g>
	<path class="st0" d="M44.6,0.3V32c0,0-15.2-1.3-21.9,0.2S-0.5,42.5,0,63.9c0.5,21.3,8.5,28.4,22.4,32.6c13.8,4.2,42.7-0.5,42.7-0.5
		V0.2L44.6,0.3z M32.5,81.9c0,0-11.5-3.2-11.5-12.5v-9c0,0,0.8-13.2,11.2-13.2c10.4,0,11.9,1,11.9,1l0.3,33.7H32.5z"/>
	<path class="st0" d="M98.1,0l-0.2,21.7H76.7V0H98.1z"/>
	<path class="st0" d="M57.7,116.9l18,8.7c0,0,18.3-4.8,20.9-26.5c2.5-21.7,1.5-67.6,1.5-67.6H76.7L77,88.9
		C77.1,88.9,76.7,109.6,57.7,116.9L57.7,116.9z"/>
	<path class="st0" d="M141.5,30.9c-17.7,0.3-31.1,5-31.1,5l0.2,17c0,0,11.3-7.3,20.1-7.1c8.8,0.2,6.8,0,8.8,1s2.6,2.6,2.6,2.6
		l-0.2,6.5c0,0-35.9,1-35.9,20.4c0,19.4,12.2,21.5,20.5,21.5c8.3,0,34-1.7,34-1.7l0.2-51.9C160.7,44.2,159.4,30.5,141.5,30.9z
		 M142.7,83.8l-13.8-0.1c0,0-4.1-1.8-4.1-3.6v-5c0,0.1,0.5-4.3,18-6.1L142.7,83.8z"/>
	<path class="st0" d="M171,35.4l0.2,61.7l20.4,0.2l0.2-49.5c0,0,19.4-4,19.7,5.5s0,44.5,0,44.5l21.2-0.3l-0.3-44
		C232.2,53.4,236.6,17.3,171,35.4L171,35.4z"/>
	<path class="st0" d="M313.6,33.2c-26.8-5.3-44.2-1.1-51.7,0.7c-7.6,1.9-32.1,17.7-21.5,45.1c10.6,27.4,41.2,16.7,41.2,16.7
		c-0.5,31.4-41.5,12.5-41.5,12.5v19.2c0,0,6.3,7.5,34.5,2.7c28.2-4.8,27.2-32.7,27.2-32.7L301,48.2h4.8L313.6,33.2z M281.4,80.4
		c0,0-23,6.3-22.4-16.3c0.7-22.7,22.4-17.7,22.4-17.7V80.4z"/>
</g>
<path class="st0" d="M344.5,31.1c-19.1,0-34.5,15.4-34.5,34.5c0,19.1,15.4,34.5,34.5,34.5S379,84.7,379,65.6
	C379,46.5,363.6,31.1,344.5,31.1z M344.4,83.4C331.7,83,330.8,65,330.8,65s0-18,13.4-17.5c13.4,0.5,12.6,17,12.6,17
	S357.2,83.7,344.4,83.4z"/>
</svg>
