<?xml version="1.0" encoding="UTF-8"?>
<svg width="192" height="263" version="1.1" viewBox="0 0 192 263" xmlns="http://www.w3.org/2000/svg">
	<g>
		<path d="m191.879 210.598-25.2162-150.115s-2.36401-12.6081-11.0321-3.94002c-8.66805 8.66805-155.631 154.055-155.631 154.055l85.4985 48.0683s8.66805 7.88005 21.2761 0c12.6081-7.88004 85.1045-48.0683 85.1045-48.0683z" fill="#fcca3f"/>
		<path d="m101.303 110.359-24.6874-44.3305-76.6155 144.569z" fill="#f6820c"/>
		<path d="m101.303 110.359 24.291-24.0459-24.1828-44.523s-5.85064-11.1441-11.9799 0.278602c-6.12924 11.4227-12.8157 23.9597-12.8157 23.9597z" fill="#ffa50e"/>
		<path d="m76.6155 66.0286-76.6155 144.569 32.6037-205.177s4.03852-11.4261 11.1306-1.18201c7.09204 10.2441 32.8812 61.7896 32.8812 61.7896z" fill="#fca512"/>
	</g>
</svg>
