<?xml version="1.0" encoding="utf-8"?>
<!-- Generator: Adobe Illustrator 22.0.0, SVG Export Plug-In . SVG Version: 6.00 Build 0)  -->
<svg version="1.1" id="Layer_1" xmlns="http://www.w3.org/2000/svg" xmlns:xlink="http://www.w3.org/1999/xlink" x="0px" y="0px"
	 viewBox="0 0 191.9 262.2" style="enable-background:new 0 0 191.9 262.2;" xml:space="preserve">
<style type="text/css">
	.st0{fill:#FCCA3F;}
	.st1{fill:#F6820C;}
	.st2{fill:#FFA50E;}
	.st3{fill:#FCA512;}
</style>
<g>
	<path class="st0" d="M191.9,210.6L166.7,60.5c0,0-2.4-12.6-11-3.9C147,65.2,0,210.6,0,210.6l85.5,48.1c0,0,8.7,7.9,21.3,0
		C119.4,250.8,191.9,210.6,191.9,210.6L191.9,210.6z"/>
	<path class="st1" d="M101.3,110.4L76.6,66.1L0,210.6L101.3,110.4z"/>
	<path class="st2" d="M101.3,110.4l24.3-24l-24.2-44.5c0,0-5.9-11.1-12,0.3c-6.1,11.4-12.8,24-12.8,24L101.3,110.4z"/>
	<path class="st3" d="M76.6,66.1L0,210.6L32.6,5.4c0,0,4-11.4,11.1-1.2C50.8,14.5,76.6,66.1,76.6,66.1L76.6,66.1z"/>
</g>
</svg>
