<?xml version="1.0" encoding="utf-8"?>
<!-- Generator: Adobe Illustrator 22.0.0, SVG Export Plug-In . SVG Version: 6.00 Build 0)  -->
<svg version="1.1" id="Layer_1" xmlns="http://www.w3.org/2000/svg" xmlns:xlink="http://www.w3.org/1999/xlink" x="0px" y="0px"
	 viewBox="0 0 184.4 71" style="enable-background:new 0 0 184.4 71;" xml:space="preserve">
<style type="text/css">
	.st0{fill:#333333;}
	.st1{fill:#6DA460;}
	.st2{fill:#408640;}
	.st3{fill:#6EBF4B;}
	.st4{fill:#3E863D;}
	.st5{fill:#639C59;}
	.st6{fill:#669F64;}
</style>
<path class="st0" d="M18.4,25.9c0,0,0.9-1,2.6-0.1c1.7,1,16.7,9.6,16.7,9.6s1.8,0.6,1.8,3.2s-0.1,26.8-0.1,26.8s-0.6,1.2-1.6,0.6
	s-9.9-5.7-9.9-5.7s-1.5-0.7-1.5-1.6c0-0.9,0-13.5,0-13.5s-0.1-1.1-1-1.6c-0.9-0.5-4.5-2.6-4.5-2.6s-1.1-0.6-2.1,0
	c-1,0.6-4.7,2.7-4.7,2.7s-0.8,0.6-0.8,1.3c-0.1,0.7,0,13.4,0,13.4s-0.1,1-0.9,1.5C11.4,60.4,2,65.7,2,65.7s-0.6,0.6-1.2,0.4
	C0.1,66,0,65.3,0,65.3l0-27.9c0,0-0.1-0.9,0.9-1.4C1.8,35.4,18.4,25.9,18.4,25.9L18.4,25.9z"/>
<g>
	<g>
		<path class="st1" d="M68.5,25.9l12.7,21.7l6-11c0,0,0.2,0-0.7-0.5c-1-0.6-16.9-9.8-16.9-9.8S69.3,26.1,68.5,25.9L68.5,25.9z"/>
		<path class="st2" d="M81.1,47.6l6.5,11l0-20.7c0,0,0.2-0.8-0.6-1.4L81.1,47.6z"/>
		<path class="st3" d="M87.6,58.6L68.5,25.9c0,0-0.6-0.4-1.9,0.4c-1.3,0.8-17.2,9.9-17.2,9.9l18.9,34.4c0,0,0.3,0,0.9-0.3
			c0.5-0.3,17.3-10,17.3-10S87.6,59.6,87.6,58.6L87.6,58.6z"/>
		<path class="st4" d="M55.7,47.7l-7,12c0,0-0.2,0.1,1.3,1c1.6,0.9,16.4,9.5,16.4,9.5s0.9,0.8,1.8,0.5L55.7,47.7z"/>
		<path class="st5" d="M55.7,47.7l-7,12c0,0-0.5-0.2-0.5-1.2c0-1,0-20.5,0-20.5s-0.2-1.1,1-1.7L55.7,47.7z"/>
	</g>
	<g>
		<path class="st6" d="M164.6,43.6l-3.8,2.3l0.1,4.4l3.7,2.1l3.8-2.2v-4.3L164.6,43.6z"/>
		<path class="st0" d="M173,50.7l10-5.9c0,0,1.4-0.8,1.4-2.2c0-1.4-0.1-4.8-0.1-4.8s0.2-1.1-1.4-1.9c-1.7-0.8-16.7-9.6-16.7-9.6
			s-1.3-1.3-3.4,0s-16.5,9.5-16.5,9.5s-1.7,0.9-1.5,3.2s0.1,18.5,0.1,18.5s-0.6,1.8,1.5,2.9c2.1,1.1,16.8,9.6,16.8,9.6
			s0.9,1,2.6,0.1s10.4-5.7,10.4-5.7s1.2-1,0.1-1.8c-1.1-0.8-17.2-9.9-17.2-9.9s-1.3-0.2-1.3-2.4c0-2.2,0.1-4.8,0.1-4.8s0-1,0.6-1.4
			c0.6-0.5,5-2.8,5-2.8s0.6-0.8,1.8-0.1s4.8,2.7,4.8,2.7s1.2,0.3,1,2.1c-0.2,1.8,0,4,0,4S171,51.9,173,50.7L173,50.7z"/>
	</g>
</g>
<path class="st0" d="M136,59V7.6c0-1.1-1.3-1.7-1.3-1.7S126,1,124.5,0.2s-1.7,0.7-1.7,0.7v27.2c0,1.1-1.3,0.6-1.3,0.6
	s-2.8-1.6-4.1-2.4s-2.5,0.1-2.5,0.1s-16,9.3-17.3,10c-1.3,0.7-1.2,1.9-1.2,1.9s0,19.6,0,20.7s1.3,1.7,1.3,1.7s15.4,8.9,17.1,9.9
	c1.7,1,2.6,0,2.6,0v0c0,0,15.6-9,17.2-9.9S136,59,136,59z M122.3,52l-6.5,3.8l-6.5-3.7v-7.7l6.6-3.7l6.4,3.7V52z"/>
</svg>
