<?xml version="1.0" encoding="UTF-8"?>
<svg width="184.497" height="71.0907" version="1.1" viewBox="0 0 1844.97 710.907" xmlns="http://www.w3.org/2000/svg">
	<path d="m184.494 259.333s8.60386-10.3246 25.8116-0.57359c17.2077 9.75104 167.488 95.7896 167.488 95.7896s18.3549 5.7359 18.3549 32.1211c0 26.3852-1.29058 267.58-1.29058 267.58s-5.59251 12.4756-16.4907 6.1661c-10.8982-6.30949-99.3746-57.0723-99.3746-57.0723s-14.9134-7.16988-15.0568-16.2039c-0.14339-9.03406 0-135.081 0-135.081s-1.29058-10.7548-10.468-16.2039c-9.17744-5.44911-45.3136-25.955-45.3136-25.955s-10.6114-6.1661-20.9361 0c-10.3246 6.16609-47.0344 27.389-47.0344 27.389s-7.60007 6.16609-8.17366 12.9058-0.2868 134.364-0.2868 134.364-0.86038 9.89443-9.17745 14.9134c-8.31706 5.01892-102.386 58.2194-102.386 58.2194s-5.59251 5.5925-12.3322 4.01513c-6.73969-1.57737-7.16988-8.17367-7.16988-8.17367l-0.143398-278.908s-0.860386-8.74725 8.60386-14.1964c9.46425-5.44911 175.375-101.095 175.375-101.095z" fill="#333"/>
	<g>
		<g>
			<path d="m685.042 259.48 126.53 217.244 59.7152-110.188s2.18755 0.28941-7.38021-5.25304-168.95-98.022-168.95-98.022-1.22105-1.91346-9.91491-3.78105z" fill="#6da460"/>
			<path d="m811.572 476.724 65.3352 109.996-0.0242-206.581s1.7844-8.34959-5.59581-13.6026z" fill="#408640"/>
			<path d="m876.907 586.72-191.865-327.24s-6.04163-3.87597-19.4683 3.8531-171.564 98.7611-171.564 98.7611l189.166 344.309s3.32603-0.39586 8.55909-3.41103 172.725-99.7932 172.725-99.7932 12.4742-7.00493 12.448-16.4793z" fill="#6ebf4b"/>
			<path d="m557.43 477.528-69.6009 119.763s-2.14927 0.6595 13.4204 9.61784c15.5697 8.95834 164.124 94.7911 164.124 94.7911s9.2426 8.1137 17.8017 4.70267z" fill="#3e863d"/>
			<path d="m557.43 477.528-69.6009 119.763s-4.59725-2.12428-4.54372-12.3018c0.0535-10.1776 0.38162-205.455 0.38162-205.455s-1.58043-10.5769 10.3425-17.4404z" fill="#639c59"/>
		</g>
		<g>
			<path d="m1174.8 706.16s-8.6039 9.75104-26.0984-0.28679c-17.4945-10.0378-171.217-99.2312-171.217-99.2312s-12.3322-6.02271-12.619-16.6341c-0.28679-10.6114 0-207.066 0-207.066s-0.86038-11.6152 11.7586-18.7851c12.619-7.16989 173.081-99.8048 173.081-99.8048s11.7586-8.74726 25.0946-0.86039 41.2985 24.0908 41.2985 24.0908 12.619 5.73591 12.619-5.7359v-272.456s2.0076-14.3398 16.9209-6.59629c14.9134 7.74347 102.099 56.4987 102.099 56.4987s12.9058 6.1661 12.9058 17.4945v513.65s1.1471 7.45668-14.1964 16.7775c-15.3436 9.32084-171.647 98.9444-171.647 98.9444z" fill="#333"/>
			<path d="m1646 436.572-38.4306 22.9436 1.1472 43.5929 37.2834 21.2228 38.4305-21.7964v-43.0193z" fill="#669f64"/>
			<path d="m1730.32 507.698 99.8047-58.5062s14.3398-8.03027 14.3398-22.37c0-14.3398-0.5736-47.608-0.5736-47.608s2.2944-10.8982-14.3397-18.9285c-16.6342-8.03027-166.915-96.3632-166.915-96.3632s-12.619-13.1926-34.4154 0c-21.7965 13.1926-164.62 94.6424-164.62 94.6424s-17.2078 8.60386-15.487 32.1211c1.7208 23.5172 0.5736 185.27 0.5736 185.27s-5.7359 17.7813 14.9134 28.6795c20.6492 10.8982 168.062 95.7896 168.062 95.7896s8.6039 10.3246 26.3852 0.57359 103.82-57.3591 103.82-57.3591 12.0454-9.75104 1.1471-17.7813c-10.8982-8.03027-172.077-98.6576-172.077-98.6576s-13.1926-1.72077-13.1926-24.0908c0-22.37 0.5736-48.1816 0.5736-48.1816s0-9.75104 6.3095-14.3398c6.3095-4.58872 49.9024-28.1059 49.9024-28.1059s6.3095-8.03026 18.3549-1.14718c12.0454 6.88309 48.1816 26.9588 48.1816 26.9588s12.0454 2.86795 9.751 20.6493 0 39.5778 0 39.5778-0.5736 20.6493 19.5021 9.17745z" fill="#333"/>
		</g>
	</g>
	<path d="m1159.31 406.745-65.9629 37.2834v76.8611l65.3893 37.2834 64.8157-37.857v-76.2876z" fill="#fff"/>
</svg>
