<?xml version="1.0" encoding="utf-8"?>
<!-- Generator: Adobe Illustrator 22.0.0, SVG Export Plug-In . SVG Version: 6.00 Build 0)  -->
<svg version="1.1" id="Layer_1" xmlns="http://www.w3.org/2000/svg" xmlns:xlink="http://www.w3.org/1999/xlink" x="0px" y="0px"
	 viewBox="0 0 207.6 99.5" style="enable-background:new 0 0 207.6 99.5;" xml:space="preserve">
<g>
	<path d="M207.3,36.1c-2.4-13.5-19.9-15.4-19.9-15.4L148.6,21l-14.8,78.4l17.2-0.3l3.8-21l24-0.3c25.6-3.3,28.8-26.9,28.8-26.9
		L207.3,36.1z M190.8,49.2c-2.5,15.8-15.4,16.9-15.4,16.9L157.3,66l6.2-33.2l18.4-0.2c7.6,0.9,9,6.4,9,6.4L190.8,49.2z"/>
	<path d="M87.2,0L71.9,79.2l17.9,0.4l8-46.1l16.8,0.2c0,0,7.7-0.2,6.9,6.6l-7.2,38.5l18.1,0.3l6.1-36.2l-0.1-11.5
		c0,0-1.1-9.3-17-9.4l-20-0.3l3.2-20.9L87.2,0z"/>
	<path d="M73.5,36.2c-2.4-13.5-19.9-15.4-19.9-15.4l-38.8,0.3L0,99.5l17.2-0.2l3.8-21L45,78c25.6-3.3,28.9-27,28.9-27L73.5,36.2z
		 M57,49.3c-2.5,15.8-15.4,16.9-15.4,16.9l-18.1-0.1l6.3-33.2l18.3-0.2c7.6,0.9,9,6.4,9,6.4L57,49.3z"/>
</g>
</svg>
