<?xml version="1.0" encoding="utf-8"?>
<!-- Generator: Adobe Illustrator 22.0.0, SVG Export Plug-In . SVG Version: 6.00 Build 0)  -->
<svg version="1.1" id="Layer_1" xmlns="http://www.w3.org/2000/svg" xmlns:xlink="http://www.w3.org/1999/xlink" x="0px" y="0px"
	 viewBox="0 0 299.9 155.5" style="enable-background:new 0 0 299.9 155.5;" xml:space="preserve">
<style type="text/css">
	.st0{fill:#006990;}
	.st1{fill:#E48E1A;}
</style>
<path class="st0" d="M0,141.7h10.4L10,103.2l16.2,35.1c0,0,7.5,9.1,16.6,0l16-34.9l0.1,38.7l10.6-0.1v-41.7c0,0-7.3-12.6-19.9,0
	l-14.9,33.9l-15.2-33.9c0,0-7.7-11.6-19.3,0L0,141.7z"/>
<path class="st0" d="M77.1,109.6h10l0.2,22.9c0,0,0.8,2.8,4.7,2.8h22.5V110h9.7v38.5c0,0-3.6,6.8-12,7.1h-35v-6.8h33.4
	c0,0,3.9-0.7,3.9-2.4V142H89.7c0,0-12.6-2.8-12.5-8L77.1,109.6z"/>
<g>
	<path class="st1" d="M177.3,95.9l0.1,7.3h-32.1c0,0-2.3-0.2-2.3,2.2c0,2.4,0.1,6.9,0.1,6.9s0,2.8,3.5,2.8H167c0,0,9.7,1.1,9.7,7.6
		v12c0,0-4.1,6.7-10.8,6.7h-33.6v-6.9h29.4c0,0,4.5-0.3,4.5-2.8v-7c0,0-0.7-2.9-4-2.9h-18.5c0,0-11.5-1.5-11.5-8.8v-9
		c0,0,1.6-8.2,10.7-8.1S177.3,95.9,177.3,95.9L177.3,95.9z"/>
	<path class="st1" d="M238.2,95.7l9.9,0.1l-0.1,36c0,0,1.5,3.3,4.5,3.3h29.3v6.6h-31.7c0,0-11.8-2.1-11.8-8.2S238.2,95.7,238.2,95.7
		L238.2,95.7z"/>
</g>
<g>
	<path class="st0" d="M209.7,46.2c0,0,3.6-4.4-0.8-6.9c0,0-4.1-3-6.1-12.4S195,12,192.8,9.6s-2-3.8-1.2-4.9s3.2-1.1,3.2-1.1
		s13.6,5.9,12.4,7.8l10.4,0.4c0,0,23.9,8.5,34.9,33c11,24.6,13.3,26,13.3,26s10.6,2.8,12.3,4.2s13.2,9.4,13.2,9.4
		s-14.1-0.7-18.1,3.7s13.9,14.1,15.4,14.3c1.6,0.1,11.2,7.9,11.2,7.9s-5.6-11.5-16.6-16.4s5.8-5.6,7.8-5.4c2.1,0.2,5.8-0.9,5.8-2.2
		s-9.3-9.3-12.7-11.4c-3.4-2.1-9.2-7.3-15.1-7.7c0,0-8.8-17.3-11-23.2c-2.2-5.9-12.9-22.8-28.4-31.3s-18.8-5.1-18.8-5.1
		s-7.3-6.7-14.4-7.5c-7.1-0.8-8.2,3.2-8.2,3.2s-2,6.3,2.6,10s6.3,7,6.3,7.9s4.5,18.2,9.8,22.2c0,0-7.5,22.2,0.8,32.1
		s10.6,0.3,10.6,0.3s0.1-6.3,1.2-8.1c0,0,4.4,10.6,12.5,15.8c8,5.2,6.2,5.4,6.2,5.4s-17.7-19.6-18.5-30.6c0,0-7.3,8.6-6.2,11.4
		s0.9,5.8-0.9,5.4s-1.3,0.6-4.5-7.7S209.7,46.2,209.7,46.2L209.7,46.2z"/>
	<path class="st0" d="M209.8,18.9c0,0,5.4,3.7,4.5,7.3C220.7,18.5,209.8,18.9,209.8,18.9z"/>
	<path class="st1" d="M226.6,140.1c5-2.7,5.4-5.2,5.4-5.1v-28.9c0-9.3-12.3-9.8-12.3-9.8h-25.1c-10,0-11.6,8.7-11.6,8.7v28.1
		c0,7.3,10,8.8,10,8.8l23.9-0.1l7,6.9h11.9L226.6,140.1z M221.7,108.1v22.1c0,4.5-2.9,4.1-2.9,4.1l-6.3-6.5h-11.9l7.5,7.7h-10
		c-4.2,0-5.9-4-5.9-4v-23.1c0-4.5,5.5-5.7,5.5-5.7s10,0.4,17.4,0.4C222.5,103.1,221.7,108.1,221.7,108.1z"/>
</g>
</svg>
