<?xml version="1.0" encoding="UTF-8"?>
<svg width="300" height="156" version="1.1" viewBox="0 0 300 156" xmlns="http://www.w3.org/2000/svg">
	<path d="m-0.132042 141.871h10.4313l-0.396127-38.4243 16.2412 35.1232s7.52641 9.11092 16.6373 0l15.9771-34.8592 0.132042 38.6884 10.5634-0.13204v-41.7254s-7.32834-12.61-19.9384 0l-14.9208 33.9349-15.1849-33.9349s-7.65845-11.6197-19.2782 0z" fill="#006990"/>
	<path d="m76.9806 109.785h10.0383l0.186736 22.8728s0.840312 2.80104 4.6684 2.80104h22.5017v-25.3027h9.71027v38.4676s-3.64135 6.81586-12.0445 7.09597h-35.013v-6.81587h33.4257s3.92146-0.65357 3.92146-2.42756v-4.3883h-24.8359s-12.6047-2.80104-12.5113-8.02964z" fill="#006990"/>
	<g fill="#e48e1a">
		<path d="m177.119 96.1511 0.0934 7.2827h-32.1186s-2.3342-0.18673-2.3342 2.24083c0 2.42757 0.0934 6.90923 0.0934 6.90923s0 2.80104 3.54798 2.80104h20.3542s9.71027 1.12042 9.71027 7.56281v12.0445s-4.10819 6.72249-10.8307 6.72249h-33.6125v-6.90923h29.4109s4.48166-0.2801 4.48166-2.80104v-7.0026s-0.65358-2.8944-4.01482-2.8944h-18.4869s-11.4843-1.49389-11.4843-8.77659v-9.15007s1.58725-8.21638 10.7373-8.12301c9.15006 0.09337 34.4528 0.09337 34.4528 0.09337z"/>
		<path d="m226.452 140.287 9.24295 8.58275h-11.8838l-6.99824-6.8662-23.8996 0.13204s-10.0352-1.45246-10.0352-8.84683v-28.125s1.58451-8.71479 11.6197-8.71479h25.088s12.2799 0.528169 12.2799 9.77113v28.9172s-0.39613 2.50881-5.41373 5.14965z"/>
		<path d="m238.072 95.9208 9.90317 0.132042-0.13204 36.0475s1.45247 3.30106 4.48944 3.30106h29.3134v6.60211h-31.6901s-11.7518-2.11267-11.7518-8.18662c0-6.07394-0.13205-37.8961-0.13205-37.8961z"/>
	</g>
	<g>
		<path d="m209.551 46.4049s3.56514-4.35739-0.79226-6.8662c0 0-4.09331-3.03697-6.07394-12.412s-7.79049-14.9208-10.0352-17.2975c-2.24472-2.37676-1.98064-3.82923-1.18838-4.88556 0.79225-1.05634 3.16901-1.05634 3.16901-1.05634s13.6004 5.9419 12.412 7.79049l10.4313 0.396127s23.8996 8.4507 34.8592 33.0106c10.9595 24.5599 13.3363 26.0123 13.3363 26.0123s10.5634 2.77289 12.2799 4.22535 13.2042 9.375 13.2042 9.375-14.1285-0.660211-18.0898 3.69718 13.8644 14.1285 15.4489 14.2606c1.58451 0.13204 11.2236 7.92253 11.2236 7.92253s-5.62681-11.5319-16.6442-16.3871c-11.0174-4.85514 5.78882-5.60208 7.84291-5.41534 2.0541 0.186736 5.78882-0.933679 5.78882-2.24083s-9.3368-9.3368-12.698-11.3909c-3.36124-2.0541-9.15006-7.2827-15.1256-7.65617 0 0-8.77652-17.253-11.0212-23.1949-2.24472-5.9419-12.9401-22.8433-28.3891-31.294-15.449-8.4507-18.75-5.14965-18.75-5.14965s-7.26233-6.73415-14.3926-7.52641c-7.13028-0.792254-8.18662 3.16901-8.18662 3.16901s-1.98063 6.33803 2.64085 10.0352c4.62148 3.69718 6.33802 6.99824 6.33802 7.92254 0 0.924296 4.48944 18.2218 9.77113 22.1831 0 0-7.52641 22.1831 0.79226 32.0863 8.31866 9.90317 10.5634 0.264084 10.5634 0.264084s0.13204-6.33803 1.18838-8.05458c0 0 4.44217 10.5768 12.4718 15.8054 8.02965 5.22861 6.16229 5.41534 6.16229 5.41534s-17.7399-19.6073-18.4869-30.6247c0 0-7.2827 8.58985-6.16228 11.3909 1.12041 2.80104 0.93368 5.78881-0.93368 5.41534s-1.30716 0.560208-4.48167-7.65617c-3.17451-8.21638 1.52722-21.269 1.52722-21.269z" fill="#006990"/>
		<path d="m209.704 19.1226s5.41534 3.73472 4.48166 7.2827c6.34902-7.65617-4.48166-7.2827-4.48166-7.2827z" fill="#006990"/>
		<path d="m200.428 128.008h11.8838l6.33803 6.47007s2.90493 0.39613 2.90493-4.09331v-22.0511s0.79225-5.0176-6.60211-5.0176c-7.39437 0-17.4296-0.39613-17.4296-0.39613s-5.54578 1.18838-5.54578 5.67782v23.1074s1.71655 3.96127 5.94191 3.96127h10.0352z" fill="#fff"/>
	</g>
</svg>
