<?xml version="1.0" encoding="UTF-8"?>
<svg width="356" height="356" version="1.1" viewBox="0 0 356 356" xmlns="http://www.w3.org/2000/svg">
	<g>
		<ellipse cx="178.664" cy="179.124" rx="178.131" ry="177.616" fill="#00b3eb" fill-rule="evenodd"/>
		<g>
			<path d="m80.7034 264.926 197.61-1.50848s7.91949-0.18856 7.91949-11.5021-0.18856-138.968-0.18856-138.968l6.59958-6.78813 55.8599 19.4069s44.0552 128.364-78.2693 205.909z" fill="#0098c7"/>
			<path d="m286.233 251.201s-1.16996 7.46718-12.3698 8.00051c-11.1999 0.53332-195.197 0-195.197 0s-9.33321-0.26667-9.33321-6.93325c0 0-2.32251 12.7624 11.371 12.6578s195.028-1.48877 195.028-1.48877 10.5162 2.16267 10.5014-12.2363z" fill="#3b3b3b"/>
			<path d="m272.657 125.392 13.3877-12.4449 0.18838 138.254s-0.56016 7.94223-14.5156 8.0594c-13.9554 0.11718-191.391-0.0542-191.391-0.0542s-10.2972 0.95718-10.994-6.93797-0.696826-141.584-0.696826-141.584 0-8.67373 8.67373-8.67373h197.233l-18.6674 18.8559 10.9364 11.125z" fill="#686868"/>
			<path d="m272.657 125.392-5.84534 6.59955-10.9364-11.125 5.90914-5.96883-180.138-0.065v114.078l191.388 0.18856z" fill="#fff"/>
			<path d="m261.199 126.282-5.32364-5.41543 45.2542-45.6313 5.84534 5.65678z" fill="#5a5a5a"/>
			<path d="m261.199 126.282 5.6128 5.70957 45.6314-45.8199-5.46822-5.27966z" fill="#444"/>
			<path d="m229.864 235.735 0.26666 13.8665-34.6662 2.9333v-16.5331z" fill="#4a4a4a"/>
			<path d="m167.998 235.735 0.26666 17.0664 17.5998-0.26666v-17.0664z" fill="#2f3131"/>
			<path d="m160.265 235.735v16.7998l-34.3995-2.9333v-13.5998z" fill="#4a4a4a"/>
			<path d="m257.383 129.729-39.4089 39.5975 4.90254 4.33687s2.82839 3.01694 5.46822 0.18855 34.1292-34.5064 34.1292-34.5064 2.63983-2.26271 0-5.27966-5.09111-4.33687-5.09111-4.33687z" fill="#484848"/>
			<path d="m251.457 135.684 1.96679 2.34172-11.125 11.8792-2.50495-2.502 1e-3 -1e-3z" fill="#282a2a"/>
			<path d="m257.383 129.729-3.77118-4.1483s-2.16843-3.58263-5.93962 0.0943c-3.77119 3.6769-34.1292 33.6578-34.1292 33.6578s-3.11123 2.82839 0.28284 5.93962c3.39407 3.11122 4.14831 4.05402 4.14831 4.05402z" fill="#5a5a5a"/>
			<path d="m222.123 160.747 2.2476 2.15294 11.4744-11.5293-2.12558-1.93723z" fill="#29292b"/>
			<path d="m235.845 151.37 2.5884 2.39964-11.785 11.4078-2.27783-2.27821z" fill="#282a2a"/>
			<path d="m209.395 166.875 11.0307 11.3136s3.11123 7.73093-3.95975 12.1621c-7.07097 4.43114-13.5763-3.48835-13.5763-3.48835l-29.4152-31.2066s-4.52543-4.43114-1.31992 1.13136 21.8729 38.089 21.8729 38.089 7.4481 14.7076-2.73411 19.893c-10.1822 5.18538-20.4587-8.86229-20.4587-8.86229l-35.6377-42.4258s-8.20233-8.20233-2.07415 1.69704c6.12818 9.89936 21.8729 33.0922 21.8729 33.0922s5.93962 9.89936-1.60275 12.9163-18.4788-13.9534-18.4788-13.9534-8.39089-12.0678-12.7278-13.482c-4.33686-1.4142-5.5625-0.28284-5.5625-0.28284s-5.5625 3.20551-5.5625 10.5593c0 7.35382-14.1419 14.142-14.1419 14.142s-6.9767 1.50848-1.79131-2.82839c0 0 10.9364-4.90254 12.2564-12.822 1.31992-7.91949 4.05403-10.0879 4.05403-10.0879s8.20233-8.01377 15.4619-1.03707c7.25954 6.97669 20.0816 21.4015 20.0816 21.4015s6.22246 5.65678 2.45127-1.31991c-3.77118-6.9767-26.964-38.4661-26.964-38.4661s-3.29979-11.0307 3.11123-12.7278 12.7278 3.58263 12.7278 3.58263l37.429 41.8602s12.7278 12.3506 3.95974-1.60276c-8.768-13.9534-26.1155-40.5402-26.1155-40.5402s-9.61653-16.1218 5.84534-20.6472c15.4619-4.52542 49.9682 33.9407 49.9682 33.9407z" fill="#a8a8a8"/>
			<path d="m209.395 166.875 5.52876 5.67053-6.7933 6.52347s-5.33748-6.12157 1.26454-12.194z" fill="#5a5a5a"/>
			<path d="m214.924 172.546 5.50196 5.64303s-6.42867 6.08037-12.2953 0.88044z" fill="#434343"/>
			<path d="m251.457 135.684-2.39295-2.40657-11.7459 11.7021 2.47569 2.42342z" fill="#29292b"/>
		</g>
	</g>
</svg>
