<?xml version="1.0" encoding="UTF-8"?>
<svg width="2e3" height="1967" version="1.1" viewBox="0 0 2e3 1967" xmlns="http://www.w3.org/2000/svg">
	<g>
		<path d="m0 0h2e3v1967h-2e3z" fill="#7fbafb"/>
		<path d="m156.276 152.109 2.08369 1660.7 1683.62-2.0837-2.0837-1656.53z" fill="#070039"/>
		<path d="m480.325 552.547 2.94678 808.89 170.913-1.4734-2.94677-256.37s352.14 30.9411 375.714-275.524c23.5742-306.465-358.033-275.524-358.033-275.524z" fill="#92c4fc"/>
		<path d="m650.11 678.24 2.08369 281.298s192.741 32.2971 206.285-138.565c13.544-170.862-208.369-142.733-208.369-142.733z" fill="#08004b"/>
		<path d="m1485.18 773.555v142.919s-100.19-67.7759-181.227-50.0952c-81.0364 17.6807-45.6751 85.4566 0 98.717s111.609 44.2017 111.609 44.2017 142.55 61.1456 91.7185 221.745c-50.832 160.599-279.944 131.132-279.944 131.132s-97.9804-20.6275-138.499-47.8851v-134.815s53.7787 36.8347 137.025 50.0952 102.4-18.4174 102.4-18.4174 47.8852-64.8291-66.3025-111.978c-114.188-47.1485-131.132-61.1456-131.132-61.1456s-100.927-78.8264-16.944-207.748c83.9832-128.922 262.263-89.8767 262.263-89.8767s92.8234 21.3641 109.031 33.1512z" fill="#81bbfb"/>
	</g>
</svg>
