<?xml version="1.0" encoding="UTF-8"?>
<svg width="125.02mm" height="20.9923mm" version="1.1" viewBox="0 0 125.02 20.9923" xmlns="http://www.w3.org/2000/svg">
	<g id="B" transform="translate(-57.8839 -66.4093)">
		<path d="m61.1431 69.9319v-3.40842l-3.25924-0.027z" fill="#80ff80"/>
		<path d="m61.1431 69.9319 3.38041-3.38041-3.38041-0.028z" fill="#afa"/>
		<path d="m61.1431 69.9319 3.38041-3.38041v3.36222z" fill="#5f5"/>
		<g>
			<path d="m64.5235 66.5514v3.36222l2.78602-0.01499z" fill="#80ff80"/>
			<path d="m64.5235 66.5514 2.78602 3.34724v-3.32416z" fill="#afa"/>
			<path d="m67.3095 66.5745 1.87414 0.01553-1.87414 3.30863z" fill="#5f5"/>
		</g>
		<path d="m67.3095 69.8987z"/>
		<g>
			<path d="m69.1837 66.5901v3.34316l-1.87414-0.03453z" fill="#80ff80"/>
			<path d="m69.1837 66.5901v3.34316l2.16256-2.73169s-0.823387-0.440176-2.16256-0.611466z" fill="#afa"/>
			<path d="m71.3462 67.2015-0.439828 3.78849s-0.686115-1.01777-1.72274-1.0568z" fill="#5f5"/>
			<path d="m70.9064 70.99 2.48075-2.27571s-0.983006-1.12169-2.04092-1.51278z" fill="#80ff80"/>
			<path d="m73.3871 68.7143-2.48075 2.27571 3.50011-0.441368s-0.490817-1.45415-1.01935-1.83435z" fill="#afa"/>
		</g>
		<path d="m73.3871 68.7143z"/>
		<g>
			<path d="m74.4065 70.5486-3.50011 0.441368s0.504391 1.10456 0.388155 1.77859z" fill="#5f5"/>
			<path d="m71.2945 72.7686 3.11195-2.21996s0.437624 1.03811 0.280093 2.09313z" fill="#afa"/>
			<path d="m71.2945 72.7686s-0.154111 1.22124-0.661259 1.58717l4.0533-1.71401z" fill="#80ff80"/>
			<path d="m70.6333 74.3558 3.46479 0.555896s0.614325-1.34173 0.58851-2.2699" fill="#afa"/>
			<path d="m70.6333 74.3558 2.22532 2.38711s1.01148-1.26276 1.23947-1.83121z" fill="#5f5"/>
			<path d="m70.6333 74.3558-0.876109 4.1955 3.10143-1.8084z" fill="#80ff80"/>
			<path d="m68.4985 75.0611 1.25868 3.49015 0.876109-4.1955s-0.421891 0.705352-2.13479 0.705352z" fill="#afa"/>
			<path d="m68.4985 75.0611-0.918738 3.30123h1.01217s0.964079 0.02359 1.16525 0.188924c0.201175 0.165335-1.25868-3.49015-1.25868-3.49015z" fill="#5f5"/>
			<path d="m68.4985 75.0611h-2.04813l1.12939 3.30123z" fill="#80ff80"/>
			<path d="m66.4504 75.0611-0.884562 3.30123h2.01395z" fill="#afa"/>
			<path d="m66.4504 75.0611-0.884562 3.30123-1.90596-3.30123z" fill="#5f5"/>
			<path d="m63.6598 75.0611 1.90596 3.30123h-1.90596z" fill="#80ff80"/>
			<path d="m57.9719 75.0611 3.30123 3.30123h-3.30123z" fill="#afa"/>
			<path d="m61.1825 78.2717v-3.21061h-3.21061z" fill="#80ff80"/>
			<path d="m61.1825 78.2717 2.4773-3.21061h-2.4773z" fill="#5f5"/>
			<path d="m61.1825 78.2717 2.4773 0.09062v-3.30123z" fill="#afa"/>
		</g>
		<path d="m72.8586 76.7429z"/>
		<g>
			<path d="m72.8586 76.7429-1.62046 3.21354s-0.534053-1.22606-1.48097-1.40514z" fill="#afa"/>
			<path d="m72.8586 76.7429s1.15117 1.12863 1.38963 2.2544l-3.01009 0.959138z" fill="#5f5"/>
			<path d="m74.2482 78.9973-3.01009 0.959138 3.29304 0.920714s-0.06792-1.30485-0.282945-1.87985z" fill="#80ff80"/>
			<path d="m71.2381 79.9564 3.29304 0.920714-3.31028 1.05832s0.401985-1.30081 0.01724-1.97903z" fill="#afa"/>
			<path d="m74.5312 80.8771-3.31028 1.05832 3.08276 0.828461s0.335129-1.70777 0.227521-1.88678z" fill="#5f5"/>
			<path d="m71.2209 81.9355 2.3112 2.64257s0.752863-1.11864 0.771561-1.81411z" fill="#80ff80"/>
			<path d="m71.2209 81.9355s-0.273597 0.87887-1.08966 1.22598l3.40085 1.41659z" fill="#afa"/>
			<path d="m70.1312 83.1614 1.79112 2.92692s1.42678-0.853805 1.60974-1.51033z" fill="#5f5"/>
			<path d="m70.1312 83.1614-0.06573 3.6497s1.53708-0.366979 1.85684-0.722772z" fill="#80ff80"/>
			<path d="m70.1312 83.1614s-1.10566 0.503948-1.6495 0.515217l1.58377 3.13448z" fill="#afa"/>
			<path d="m68.4817 83.6767v3.28136s1.08585-0.01353 1.58377-0.146876z" fill="#5f5"/>
			<path d="m66.3067 83.6879 2.17509-0.01127v3.28135z" fill="#80ff80"/>
			<path d="m66.3067 83.6879 2.17509 3.27008h-2.17509z" fill="#afa"/>
			<path d="m66.3067 83.6879v3.27008h-1.88798z" fill="#5f5"/>
			<path d="m64.4187 86.958 1.88798-3.27008h-1.88798z" fill="#80ff80"/>
			<path d="m64.4187 86.958v-3.27008h-3.27008z" fill="#afa"/>
			<path d="m61.1486 83.6879 3.27008 3.27008h-3.27008z" fill="#5f5"/>
		</g>
	</g>
	<g id="A" transform="translate(-57.8839 -66.4093)">
		<path d="m79.3403 86.8897-2.50984-2.77378-1.36601 2.77378z" fill="#5f5"/>
		<path d="m79.3403 86.8897 1.13234-2.29658-3.64219-0.47719z" fill="#80ff80"/>
		<path d="m76.8304 84.1159 1.08802-2.20929 2.55417 2.68648z" fill="#afa"/>
		<path d="m77.9184 81.9066 3.53002 0.707295-0.975849 1.97919z" fill="#5f5"/>
		<path d="m77.9184 81.9066 0.900687-1.82891 2.62933 2.5362z" fill="#80ff80"/>
		<path d="m78.8191 80.0777 3.64849 0.469176-1.01916 2.06702z" fill="#afa"/>
		<path d="m78.8191 80.0777 0.898997-1.82548 2.74949 2.29465z" fill="#5f5"/>
		<path d="m79.7181 78.2523 2.74949 2.29465 1.09373-2.21827z" fill="#80ff80"/>
		<path d="m79.7181 78.2523 0.858419-1.74308 2.9848 1.81946z" fill="#afa"/>
		<path d="m80.5765 76.5092 3.91468-0.06649-0.929875 1.88594z" fill="#5f5"/>
		<path d="m80.5765 76.5092 0.861457-1.74925 3.05322 1.68276z" fill="#80ff80"/>
		<path d="m81.438 74.7599 4.15648-0.554838-1.10326 2.2376z" fill="#afa"/>
		<path d="m81.438 74.7599 1.03988-2.11156 3.1166 1.55672z" fill="#5f5"/>
		<path d="m85.5945 74.2051v-3.01769l-3.1166 1.46097z" fill="#80ff80"/>
		<path d="m85.5945 71.1874-1.57506-1.66923-1.54154 3.13021z" fill="#afa"/>
		<path d="m85.5945 71.1874-0.04404-4.77806-1.53101 3.10883z" fill="#5f5"/>
		<path d="m85.5945 71.1874 1.51134-1.65731-1.55539-3.12075z" fill="#80ff80"/>
		<path d="m85.5945 71.1874 3.13906 1.60856-1.62772-3.26587z" fill="#afa"/>
		<path d="m85.5945 71.1874v3.01769l3.13906-1.40913z" fill="#5f5"/>
		<path d="m85.5945 74.2051 4.1146 0.548194-3.07866 1.61931z" fill="#afa"/>
		<path d="m89.7091 74.7533-0.975534-1.95732-3.13906 1.40913z" fill="#80ff80"/>
		<path d="m89.7091 74.7533-3.07866 1.61931 3.97332 0.175744z" fill="#5f5"/>
		<path d="m86.6304 76.3726 3.97332 0.175744-3.00618 1.84779z" fill="#80ff80"/>
		<path d="m90.6037 76.5483-3.00618 1.84779 4.01263 0.171541z" fill="#afa"/>
		<path d="m87.5976 78.3961 0.859777 1.79892 3.15285-1.62738z" fill="#5f5"/>
		<path d="m88.4573 80.1951 3.15285-1.62738 0.811088 1.62738z" fill="#80ff80"/>
		<path d="m94.0509 83.5864-2.02602 3.34733-1.71771-3.34733z" fill="#afa"/>
		<path d="m94.0509 83.5864 1.8058 3.30328-3.83181 0.04404z" fill="#5f5"/>
	</g>
	<g id="C" transform="translate(1.2e-4,-1.2e-4)">
		<path d="m53.3923 5.64683 2.36692-2.36692-3.7351 1.0479s1.14815 0.803298 1.36818 1.31902z" fill="#5f5"/>
		<path d="m52.0241 4.32781 1.43183-2.77309s1.90663 1.07777 2.30328 1.72519z" fill="#afa"/>
		<path d="m52.0241 4.32781 1.43183-2.77309-2.87303 2.11594s1.11924 0.264839 1.4412 0.65715z" fill="#80ff80"/>
		<path d="m53.456 1.55472s-2.1303-0.889644-2.68253-0.994438l-0.190503 3.11038z" fill="#5f5"/>
		<path d="m50.7734 0.560285-1.88724 2.84832 1.69673 0.262053z" fill="#afa"/>
		<path d="m50.7734 0.560285-1.88724 2.84832-1.06479-3.06017s2.26024-0.127192 2.95203 0.211846z" fill="#80ff80"/>
		<path d="m47.8214 0.348439 1.06479 3.06017s-0.867616-0.110456-1.17582 0.066498z" fill="#5f5"/>
		<path d="m47.8214 0.348439-0.111025 3.12667-1.99006-2.74048s1.61741-0.49663 2.10108-0.386184z" fill="#afa"/>
		<path d="m45.7203 0.734624 0.226457 3.20403s1.33407-0.552415 1.7636-0.463548z" fill="#80ff80"/>
		<path d="m45.7203 0.734624 0.226457 3.20403-2.40346-2.29533s1.27692-0.809133 2.177-0.908697z" fill="#5f5"/>
		<path d="m45.9468 3.93865-2.40346-2.29533 1.02033 3.01962s0.720511-0.624881 1.38312-0.724289z" fill="#afa"/>
		<path d="m43.5433 1.64332 1.02033 3.01962-2.69518-1.86407s1.14129-1.02817 1.67484-1.15555z" fill="#80ff80"/>
		<path d="m44.5636 4.66294-2.69518-1.86407 1.599 2.77226s0.746371-0.825411 1.09617-0.908192z" fill="#5f5"/>
		<path d="m41.8685 2.79887 1.599 2.77226-3.03748-1.26272s1.07993-1.37174 1.43848-1.50954z" fill="#afa"/>
		<path d="m43.4675 5.57113-3.03748-1.26272 2.10719 2.46753s0.541123-0.992434 0.930293-1.20481z" fill="#80ff80"/>
		<path d="m40.43 4.30841 2.10719 2.46753-3.20554-0.635187s0.72173-1.56137 1.09835-1.83234z" fill="#5f5"/>
		<path d="m39.3316 6.14076 3.20554 0.635187s-0.546682 1.09655-0.647804 1.47739z" fill="#afa"/>
		<path d="m39.3316 6.14076 2.55774 2.11258-3.26612 0.152445s0.179639-1.42852 0.708385-2.26503z" fill="#80ff80"/>
		<path d="m41.8894 8.25334-3.26612 0.152445 3.01 1.1805s0.0272-1.20236 0.256122-1.33295z" fill="#5f5"/>
		<path d="m38.6233 8.40578 3.01 1.1805-3.18991 0.825527s0.05297-1.41845 0.179906-2.00603z" fill="#afa"/>
		<path d="m41.6333 9.58629-3.18991 0.825527 3.17998 0.556042s-0.09361-1.21828 0.0099-1.38157z" fill="#80ff80"/>
		<path d="m41.6233 10.9679-3.17998-0.556042s0.0063 1.44395 0.15499 1.74193z" fill="#5f5"/>
		<path d="m41.6233 10.9679-3.02499 1.18589 3.25553 0.191131s-0.272674-1.13025-0.230537-1.37702z" fill="#afa"/>
		<path d="m38.5983 12.1537 3.25553 0.191131-2.64265 1.92125s-0.398741-0.966014-0.612876-2.11238z" fill="#80ff80"/>
		<path d="m41.8539 12.3449-2.64265 1.92125 3.16814-0.593125s-0.546298-0.915546-0.525489-1.32813z" fill="#5f5"/>
		<path d="m39.2112 14.2661 3.16814-0.593125-2.03048 2.68672s-0.870661-1.34073-1.13766-2.0936z" fill="#afa"/>
		<path d="m42.3794 13.673-2.03048 2.68672 2.83576-1.54111s-0.531831-0.51701-0.805281-1.14562z" fill="#80ff80"/>
		<path d="m40.3489 16.3597 2.83576-1.54111-1.31086 3.29083s-1.15617-1.15435-1.5249-1.74973z" fill="#5f5"/>
		<path d="m43.1846 14.8186-1.31086 3.29083 2.50662-2.24947s-0.907203-0.693728-1.19576-1.04136z" fill="#afa"/>
		<path d="m41.8738 18.1095 2.50662-2.24947-0.759939 3.54147s-1.24782-0.775054-1.74668-1.292z" fill="#80ff80"/>
		<path d="m44.3804 15.86-0.759939 3.54147 2.15279-2.78382s-0.842547-0.317054-1.39285-0.757649z" fill="#5f5"/>
		<path d="m43.6205 19.4015 2.15279-2.78382-0.0078 3.70243s-1.58348-0.551819-2.14498-0.918606z" fill="#afa"/>
		<path d="m45.7733 16.6176-0.0078 3.70243 1.45249-3.21299s-1.08062-0.18646-1.44468-0.489443z" fill="#80ff80"/>
		<path d="m45.7654 20.3201s2.17661 0.512313 2.74901 0.351035l-1.29652-3.56402z" fill="#5f5"/>
		<path d="m47.2179 17.1071 1.29652 3.56402 0.682506-3.24434s-1.30813-0.122461-1.97903-0.31968z" fill="#afa"/>
		<path d="m49.197 17.4268-0.682506 3.24434s1.54989-0.02316 1.88697-0.23536z" fill="#80ff80"/>
		<path d="m50.4014 20.4357s1.95519-0.525282 2.18116-0.743115l-3.38562-2.26587z" fill="#5f5"/>
	</g>
	<g id="K" transform="translate(8e-5,-8e-5)">
		<path d="m71.2838 0.292266h-4.9207l3.14744 1.74625z" fill="#afa"/>
		<path d="m69.5105 2.03851-3.14744-1.74625-1.26132 1.26132z" fill="#80ff80"/>
		<path d="m69.5105 2.03851-1.8123 1.7847-2.59646-2.26963z" fill="#5f5"/>
		<path d="m65.1018 1.55358-1.42482 1.42482 4.02128 0.844803z" fill="#afa"/>
		<path d="m63.677 2.97841 4.02128 0.844803-1.71828 1.69211z" fill="#80ff80"/>
		<path d="m63.677 2.97841-1.61947 1.61947 3.92247 0.91744z" fill="#5f5"/>
		<path d="m62.0575 4.59788 3.92247 0.91744-1.71775 1.69159z" fill="#afa"/>
		<path d="m62.0575 4.59788-1.49572 1.49572 3.70044 1.11331z" fill="#80ff80"/>
		<path d="m60.5618 6.0936 3.70044 1.11331-1.58114 1.55705z" fill="#5f5"/>
		<path d="m60.5618 6.0936-1.26626 1.26626 3.38556 1.4041z" fill="#afa"/>
		<path d="m62.6811 8.76396-1.62018 1.5955-1.76538-2.9996z" fill="#80ff80"/>
		<path d="m61.0609 10.3595-3.2959-1.46908 1.53052-1.53052z" fill="#5f5"/>
		<path d="m57.765 8.89038-0.0082 3.10129-1.54657-1.54657z" fill="#80ff80"/>
		<path d="m61.0609 10.3595h-3.29976l0.0039-1.46908z" fill="#afa"/>
		<path d="m61.0609 10.3595-3.30405 1.63222 0.0043-1.63222z" fill="#5f5"/>
		<path d="m61.0609 10.3595-1.80633 3.12994-1.49772-1.49772z" fill="#afa"/>
		<path d="m61.0609 10.3595 1.33324 1.33324-3.13957 1.7967z" fill="#80ff80"/>
		<path d="m59.2546 13.4894 3.13957-1.7967-1.74692 3.18935z" fill="#5f5"/>
		<path d="m62.3941 11.6927-1.74692 3.18935 3.06273-1.87354z" fill="#afa"/>
		<path d="m60.6472 14.882 3.06273-1.87354-1.77995 3.15632z" fill="#80ff80"/>
		<path d="m63.7099 13.0085-1.77995 3.15632 3.09025-1.84602z" fill="#5f5"/>
		<path d="m65.0202 14.3188-3.09025 1.84602 1.2057 1.2057z" fill="#afa"/>
		<path d="m65.0202 14.3188-1.88456 3.05172 3.05722-1.87905z" fill="#80ff80"/>
		<path d="m66.1929 15.4915-3.05722 1.87905 1.15064 1.15064z" fill="#5f5"/>
		<path d="m66.1929 15.4915-1.90658 3.02969 3.15632-1.77995z" fill="#afa"/>
		<path d="m64.2863 18.5212 3.15632-1.77995-1.99466 2.94161z" fill="#80ff80"/>
		<path d="m65.5124 19.5878 3.36717-1.40967-1.43693-1.43693z" fill="#5f5"/>
		<path d="m65.448 19.6828 0.961833 0.961832 2.46976-2.46651z" fill="#afa"/>
		<path d="m66.4098 20.6446 3.66995-1.26632-1.20019-1.20019z" fill="#80ff80"/>
		<path d="m70.0798 19.3783-3.55604 1.26632h4.82236z" fill="#5f5"/>
	</g>
	<g id="E" transform="translate(8e-5,-8e-5)">
		<path d="m73.041 0.499796 3.36352 3.39466v-3.39466z" fill="#5f5"/>
		<path d="m76.4045 0.499796 3.39466 3.39466h-3.39466z" fill="#80ff80"/>
		<path d="m76.4045 0.499796 3.39466 3.39466v-3.39466z" fill="#afa"/>
		<path d="m79.7992 0.499796v3.39466l3.39466-3.39466z" fill="#5f5"/>
		<path d="m83.1939 0.499796v3.39466h-3.39466z" fill="#80ff80"/>
		<path d="m83.1939 0.499796 3.51923 3.39466h-3.51923z" fill="#afa"/>
		<path d="m83.1939 0.499796h3.51923v3.39466z" fill="#5f5"/>
		<path d="m73.0722 8.81515 3.58152 3.58152h-3.58152z" fill="#5f5"/>
		<path d="m73.0722 8.81515 3.58152 3.58152v-3.56513z" fill="#80ff80"/>
		<path d="m76.6537 8.83155v3.56513l3.54889-3.54889z" fill="#afa"/>
		<path d="m80.2026 8.84779v3.54889h-3.54889z" fill="#5f5"/>
		<path d="m80.2026 8.84779 3.54889 3.54889h-3.54889z" fill="#80ff80"/>
		<path d="m80.2026 8.84779 3.54889 3.54889v-3.53265z" fill="#afa"/>
		<path d="m83.7515 8.86403v3.53265l2.93048-3.51923z" fill="#5f5"/>
		<path d="m86.682 8.87744v3.51923h-2.93048z" fill="#80ff80"/>
		<path d="m76.498 17.442v3.37157l-3.55038-0.0081z" fill="#5f5"/>
		<path d="m76.498 17.442 3.37923 3.37923-3.37923-0.0077z" fill="#80ff80"/>
		<path d="m76.498 17.442 3.37923 3.37923v-3.3689z" fill="#afa"/>
		<path d="m79.8772 20.8212 3.35862-3.35862-3.35862-0.01027z" fill="#5f5"/>
		<path d="m83.2358 17.4626v3.36624l-3.35862-0.0076z" fill="#80ff80"/>
		<path d="m83.2358 17.4626 3.44613 3.37405-3.44613-0.0078z" fill="#afa"/>
		<path d="m83.2358 17.4626 3.44613 0.01054v3.36352z" fill="#5f5"/>
	</g>
	<g id="N" transform="translate(4e-5,-4e-5)">
		<path d="m88.562 0.562151v5.35671l2.81588-2.81587z" fill="#5f5"/>
		<path d="m91.3779 3.10299-2.81588 2.81587 5.45494-0.434581z" fill="#80ff80"/>
		<path d="m88.562 5.91886 2.68108 2.36796 2.77386-2.80254z" fill="#afa"/>
		<path d="m94.017 5.48428-0.373869 4.92224-2.39999-2.1197z" fill="#5f5"/>
		<path d="m94.017 5.48428 2.30816 2.08271-2.68203 2.83953z" fill="#80ff80"/>
		<path d="m96.3251 7.56699-2.68203 2.83953 4.80639-0.922666z" fill="#afa"/>
		<path d="m98.4495 9.48385-4.80639 0.922666 2.34546 2.07154z" fill="#5f5"/>
		<path d="m98.4495 9.48385-0.87328 4.39644-1.58765-1.40223z" fill="#80ff80"/>
		<path d="m98.4495 9.48385-0.87328 4.39644 2.65558-2.78822z" fill="#afa"/>
		<path d="m97.5762 13.8803 4.3776-1.2344-1.72202-1.55382z" fill="#5f5"/>
		<path d="m101.954 12.6459-2.17734 3.17769-2.20026-1.9433z" fill="#80ff80"/>
		<path d="m99.7765 15.8236 3.45423-0.655056-1.27689-2.52264z" fill="#afa"/>
		<path d="m101.954 12.6459 1.27689 2.52264 2.39806-2.30463z" fill="#5f5"/>
		<path d="m103.231 15.1685 2.39806 1.27689v-3.58152z" fill="#afa"/>
		<path d="m103.231 15.1685-3.45423 0.655056 2.24866 1.98604z" fill="#5f5"/>
		<path d="m103.231 15.1685-1.20557 2.6411 3.60363-1.36421z" fill="#80ff80"/>
		<path d="m103.975 17.0714 1.65365 3.92096v-4.54697z" fill="#5f5"/>
		<path d="m103.975 17.0714-1.94998 0.738193 3.60363 3.18276z" fill="#afa"/>
		<path d="m101.954 12.6459 3.67495-1.83084v2.04885z" fill="#80ff80"/>
		<path d="m101.954 8.41467 3.67495 2.40038h-3.67495z" fill="#5f5"/>
		<path d="m101.954 10.8151v1.83084l3.67495-1.83084z" fill="#afa"/>
		<path d="m105.629 10.8151-3.67495-2.40038h3.67495z" fill="#80ff80"/>
		<path d="m101.954 8.41467 3.67495-2.26826v2.26826z" fill="#afa"/>
		<path d="m101.954 8.41467 3.67495-2.26826h-3.67495z" fill="#5f5"/>
		<path d="m101.954 6.14641h3.67495l-3.67495-2.70869z" fill="#afa"/>
		<path d="m101.954 3.43772h3.67495v2.70869z" fill="#80ff80"/>
		<path d="m101.954 3.43772 3.67495-3.06243v3.06243z" fill="#5f5"/>
		<path d="m101.954 3.43772v-3.06243h3.67495z" fill="#80ff80"/>
	</g>
	<g id="D">
		<path d="m111.362 3.62309v-3.32949l-3.36352 0.028265z" fill="#5f5"/>
		<path d="m111.362 3.62309 2.61551-3.35147-2.61551 0.021979z" fill="#afa"/>
		<path d="m113.977 0.271614-2.61551 3.35147 2.72405 0.045401z" fill="#80ff80"/>
		<path d="m113.977 0.271614 1.53916 3.4644-1.43062-0.067524z" fill="#5f5"/>
		<path d="m113.977 0.271614 1.43316-0.012044 0.106 3.47644z" fill="#afa"/>
		<path d="m115.411 0.259571s1.36195 0.240808 2.19747 0.555199l-2.09147 2.92124z" fill="#80ff80"/>
		<path d="m115.517 3.73601 2.09147-2.92124-0.24471 3.41158s-1.22299-0.460902-1.84676-0.490343z" fill="#5f5"/>
		<path d="m117.608 0.81477-0.24471 3.41158 2.53079-2.39648s-1.42662-0.898272-2.28608-1.0151z" fill="#afa"/>
		<path d="m119.894 1.82987-2.53079 2.39648s1.50939 0.58188 1.631 0.844537z" fill="#80ff80"/>
		<path d="m118.994 5.07089 0.89979-3.24102s1.34345 0.567921 1.87911 1.31293z" fill="#5f5"/>
		<path d="m118.994 5.07089 2.7789-1.92809-1.58819 2.97905s-0.46656-0.615187-1.19071-1.05096z" fill="#afa"/>
		<path d="m121.773 3.1428-1.58819 2.97905 3.23295-1.13113s-0.86811-1.23516-1.64476-1.84793z" fill="#80ff80"/>
		<path d="m123.418 4.99073-3.23295 1.13113s0.65926 0.786305 0.89844 1.38145z" fill="#5f5"/>
		<path d="m123.418 4.99073-2.33451 2.51258 3.47221-0.117962s-0.68338-1.79553-1.1377-2.39462z" fill="#afa"/>
		<path d="m121.084 7.5033 3.47221-0.117962-3.01321 1.51998s0.0114-0.573551-0.459-1.40202z" fill="#80ff80"/>
		<path d="m124.556 7.38534-3.01321 1.51998 3.42009 0.638394s-0.16744-1.47287-0.40688-2.15837z" fill="#5f5"/>
		<path d="m121.542 8.90532 3.42009 0.638394-3.26131 1.07151s0.0402-0.850071-0.15878-1.70991z" fill="#afa"/>
		<path d="m124.963 9.54371-3.26131 1.07151 3.24727 1.07484s0.15127-1.10084 0.014-2.14635z" fill="#80ff80"/>
		<path d="m121.701 10.6152 3.24727 1.07484-3.40952 0.502594s0.19689-0.711015 0.16225-1.57743z" fill="#5f5"/>
		<path d="m124.949 11.6901-3.40952 0.502594 2.89678 1.86762s0.45983-1.40512 0.51274-2.37021z" fill="#afa"/>
		<path d="m121.539 12.1927 2.89678 1.86762-3.47205-0.233273s0.47952-1.0625 0.57527-1.63434z" fill="#80ff80"/>
		<path d="m124.436 14.0603-3.47205-0.233273 2.2057 2.61084s0.97601-1.37774 1.26635-2.37756z" fill="#5f5"/>
		<path d="m120.964 13.827 2.2057 2.61084-3.12622-1.31249s0.6706-0.70021 0.92052-1.29834z" fill="#afa"/>
		<path d="m123.169 16.4378-3.12622-1.31249 1.38791 3.08541s1.18294-0.906767 1.73831-1.77292z" fill="#80ff80"/>
		<path d="m120.043 15.1253 1.38791 3.08541-2.55183-2.113s0.85293-0.612754 1.16392-0.972408z" fill="#5f5"/>
		<path d="m121.431 18.2108-2.55183-2.113 0.61681 3.34305s1.36411-0.744069 1.93502-1.23005z" fill="#afa"/>
		<path d="m118.879 16.0978 0.61681 3.34305-2.23797-2.53843s1.00938-0.352242 1.62116-0.804626z" fill="#80ff80"/>
		<path d="m119.496 19.4408-2.23797-2.53843 0.10117 3.40535s1.38054-0.432438 2.1368-0.866923z" fill="#5f5"/>
		<path d="m117.258 16.9024 0.10117 3.40535-1.80397-2.96676s1.20665-0.239996 1.7028-0.438587z" fill="#afa"/>
		<path d="m117.359 20.3077-1.80397-2.96676-1.24979 3.39168s1.98761-0.04401 3.05376-0.424917z" fill="#80ff80"/>
		<path d="m115.555 17.341-1.24979 3.39168-0.53002-3.34406s1.16043 0.07115 1.77981-0.04762z" fill="#5f5"/>
		<path d="m114.306 20.7326-0.53002-3.34406-1.7283 3.30642s1.41846 0.02364 2.25832 0.03764z" fill="#afa"/>
		<path d="m113.776 17.3886-1.7283 3.30642-0.74762-3.30642h2.47592z" fill="#80ff80"/>
		<path d="m111.3 17.3886 0.74762 3.30642-4.04885-0.06748z" fill="#5f5"/>
	</g>
</svg>
