<svg id="Layer_1" data-name="Layer 1" xmlns="http://www.w3.org/2000/svg" viewBox="0 0 694.1 183.5">
  <defs>
    <style>
      .cls-1 {
        fill: #579cff;
      }

      .cls-2 {
        fill: #80ff80;
      }

      .cls-3 {
        fill: #afa;
      }

      .cls-4 {
        fill: #5f5;
      }
    </style>
  </defs>
  <title>backend</title>
  <rect class="cls-1" width="694.1" height="183.5"/>
  <path class="cls-2" d="M178.6,72.2V62.5l-9.2-.1Z"/>
  <path class="cls-3" d="M178.6,72.2l9.6-9.6-9.6-.1Z"/>
  <path class="cls-4" d="M178.6,72.2l9.6-9.6v9.5Z"/>
  <path class="cls-2" d="M188.2,62.6v9.5h7.9Z"/>
  <path class="cls-3" d="M188.2,62.6l7.9,9.5V62.7Z"/>
  <path class="cls-4" d="M196.1,62.6h5.3L196.1,72Z"/>
  <path d="M196.1,72.1"/>
  <path class="cls-2" d="M201.4,62.7v9.5l-5.3-.1Z"/>
  <path class="cls-3" d="M201.4,62.7v9.5l6.1-7.8a18.5,18.5,0,0,0-6.1-1.7Z"/>
  <path class="cls-4" d="M207.5,64.4l-1.2,10.8s-2-2.9-4.9-3Z"/>
  <path class="cls-2" d="M206.3,75.2l7-6.4s-2.8-3.2-5.8-4.3Z"/>
  <path class="cls-3" d="M213.3,68.7l-7,6.4,9.9-1.3c0,.1-1.3-4-2.9-5.1Z"/>
  <path d="M213.3,68.7"/>
  <path class="cls-4" d="M216.2,73.9l-9.9,1.3s1.4,3.1,1.1,5Z"/>
  <path class="cls-3" d="M207.4,80.2l8.8-6.3a13.22,13.22,0,0,1,.8,5.9Z"/>
  <path class="cls-2" d="M207.4,80.2s-.4,3.5-1.9,4.5L217,79.8Z"/>
  <path class="cls-3" d="M205.5,84.7l9.8,1.6s1.8-3.8,1.7-6.4"/>
  <path class="cls-4" d="M205.5,84.7l6.3,6.8a36.39,36.39,0,0,0,3.5-5.2Z"/>
  <path class="cls-2" d="M205.5,84.7,203,96.6l8.8-5.1Z"/>
  <path class="cls-3" d="M199.5,86.7l3.6,9.9,2.5-11.9C205.5,84.7,204.3,86.7,199.5,86.7Z"/>
  <path class="cls-4" d="M199.5,86.7l-2.6,9.4h2.9a12,12,0,0,1,3.3.5c.6.4-3.6-9.9-3.6-9.9Z"/>
  <path class="cls-2" d="M199.5,86.7h-5.8l3.2,9.4Z"/>
  <path class="cls-3" d="M193.7,86.7l-2.5,9.4h5.7Z"/>
  <path class="cls-4" d="M193.7,86.7l-2.5,9.4-5.4-9.4Z"/>
  <path class="cls-2" d="M185.8,86.7l5.4,9.4h-5.4Z"/>
  <path class="cls-3" d="M169.6,86.7,179,96h-9.4Z"/>
  <path class="cls-2" d="M178.7,95.8V86.7h-9.1Z"/>
  <path class="cls-4" d="M178.7,95.8l7-9.1h-7Z"/>
  <path class="cls-3" d="M178.7,95.8l7,.3V86.7Z"/>
  <path d="M211.8,91.5"/>
  <path class="cls-3" d="M211.8,91.5l-4.6,9.1s-1.5-3.5-4.2-4Z"/>
  <path class="cls-4" d="M211.8,91.5s3.3,3.2,3.9,6.4l-8.5,2.7Z"/>
  <path class="cls-2" d="M215.8,97.8l-8.5,2.7,9.3,2.6A34,34,0,0,0,215.8,97.8Z"/>
  <path class="cls-3" d="M207.2,100.6l9.3,2.6-9.4,3s1.2-3.7.1-5.6Z"/>
  <path class="cls-4" d="M216.5,103.2l-9.4,3,8.7,2.3C215.9,108.5,216.8,103.7,216.5,103.2Z"/>
  <path class="cls-2" d="M207.2,106.2l6.6,7.5s2.1-3.2,2.2-5.1Z"/>
  <path class="cls-3" d="M207.2,106.2a5.94,5.94,0,0,1-3.1,3.5l9.6,4Z"/>
  <path class="cls-4" d="M204.1,109.7l5.1,8.3s4-2.4,4.6-4.3Z"/>
  <path class="cls-2" d="M204.1,109.7l-.2,10.3s4.4-1,5.3-2Z"/>
  <path class="cls-3" d="M204.1,109.7a19.79,19.79,0,0,1-4.7,1.5l4.5,8.9Z"/>
  <path class="cls-4" d="M199.4,111.2v9.3a22.82,22.82,0,0,0,4.5-.4Z"/>
  <path class="cls-2" d="M193.3,111.2h6.2v9.3Z"/>
  <path class="cls-3" d="M193.3,111.2l6.2,9.3h-6.2Z"/>
  <path class="cls-4" d="M193.3,111.2v9.3h-5.4Z"/>
  <path class="cls-2" d="M187.9,120.4l5.4-9.3h-5.4Z"/>
  <path class="cls-3" d="M187.9,120.4v-9.3h-9.3Z"/>
  <path class="cls-4" d="M178.6,111.2l9.3,9.3h-9.3Z"/>
  <path class="cls-4" d="M230.2,120.2l-7.1-7.9-3.9,7.9Z"/>
  <path class="cls-2" d="M230.2,120.2l3.2-6.5-10.3-1.3Z"/>
  <path class="cls-3" d="M223.1,112.4l3.1-6.3,7.2,7.6Z"/>
  <path class="cls-4" d="M226.2,106.1l10,2-2.8,5.6Z"/>
  <path class="cls-2" d="M226.2,106.1l2.6-5.2,7.4,7.2Z"/>
  <path class="cls-3" d="M228.7,100.9l10.3,1.3-2.9,5.9Z"/>
  <path class="cls-4" d="M228.7,100.9l2.6-5.2,7.8,6.5Z"/>
  <path class="cls-2" d="M231.3,95.7l7.8,6.5,3.1-6.3Z"/>
  <path class="cls-3" d="M231.3,95.7l2.4-4.9,8.5,5.2Z"/>
  <path class="cls-4" d="M233.7,90.8l11.1-.2-2.6,5.3Z"/>
  <path class="cls-2" d="M233.7,90.8l2.4-5,8.7,4.8Z"/>
  <path class="cls-3" d="M236.1,85.8l11.8-1.6-3.1,6.3Z"/>
  <path class="cls-4" d="M236.1,85.8l2.9-6,8.8,4.4Z"/>
  <path class="cls-2" d="M247.9,84.3V75.7l-8.8,4.2Z"/>
  <path class="cls-3" d="M247.9,75.7,243.4,71,239,79.9Z"/>
  <path class="cls-4" d="M247.9,75.7l-.1-13.5L243.5,71Z"/>
  <path class="cls-2" d="M247.9,75.7l4.3-4.7-4.4-8.9Z"/>
  <path class="cls-3" d="M247.9,75.7l8.9,4.6L252.2,71Z"/>
  <path class="cls-4" d="M247.9,75.7v8.6l8.9-4Z"/>
  <path class="cls-3" d="M247.9,84.3l11.7,1.6-8.7,4.6Z"/>
  <path class="cls-2" d="M259.6,85.8l-2.8-5.6-8.9,4Z"/>
  <path class="cls-4" d="M259.6,85.8l-8.7,4.6,11.3.5Z"/>
  <path class="cls-2" d="M250.9,90.4l11.3.5-8.5,5.3Z"/>
  <path class="cls-3" d="M262.1,90.9l-8.5,5.3,11.4.5Z"/>
  <path class="cls-4" d="M253.6,96.2l2.4,5.1,8.9-4.6Z"/>
  <path class="cls-2" d="M256,101.2l8.9-4.6,2.3,4.6Z"/>
  <path class="cls-3" d="M271.9,110.9l-5.7,9.5-4.9-9.5Z"/>
  <path class="cls-4" d="M271.9,110.9l5.1,9.4-10.9.1Z"/>
  <path class="cls-4" d="M320.7,78.2l6.7-6.7-10.6,3S320.1,76.7,320.7,78.2Z"/>
  <path class="cls-3" d="M316.8,74.4l4.1-7.9s5.4,3,6.5,4.9Z"/>
  <path class="cls-2" d="M316.8,74.4l4.1-7.9-8.1,6C312.8,72.6,315.9,73.3,316.8,74.4Z"/>
  <path class="cls-4" d="M320.9,66.6a69.24,69.24,0,0,0-7.6-2.8l-.5,8.8Z"/>
  <path class="cls-3" d="M313.3,63.8l-5.4,8.1,4.8.7Z"/>
  <path class="cls-2" d="M313.3,63.8l-5.4,8.1-3-8.7s6.5-.4,8.4.6Z"/>
  <path class="cls-4" d="M304.9,63.2l3,8.7s-2.5-.3-3.3.2Z"/>
  <path class="cls-3" d="M304.9,63.2l-.3,8.9L299,64.3s4.6-1.5,5.9-1.1Z"/>
  <path class="cls-2" d="M299,64.2l.6,9.1s3.8-1.6,5-1.3Z"/>
  <path class="cls-4" d="M299,64.2l.6,9.1-6.8-6.5S296.4,64.5,299,64.2Z"/>
  <path class="cls-3" d="M299.6,73.3l-6.8-6.5,2.9,8.6A9.88,9.88,0,0,1,299.6,73.3Z"/>
  <path class="cls-2" d="M292.8,66.8l2.9,8.6-7.6-5.3s3.2-2.9,4.7-3.3Z"/>
  <path class="cls-4" d="M295.7,75.4l-7.6-5.3,4.5,7.9s2.1-2.4,3.1-2.6Z"/>
  <path class="cls-3" d="M288.1,70.1l4.5,7.9L284,74.4S287,70.5,288.1,70.1Z"/>
  <path class="cls-2" d="M292.6,78,284,74.4l6,7s1.5-2.8,2.6-3.4Z"/>
  <path class="cls-4" d="M284,74.4l6,7-9.1-1.8S282.9,75.2,284,74.4Z"/>
  <path class="cls-3" d="M280.9,79.6l9.1,1.8a37.89,37.89,0,0,0-1.8,4.2Z"/>
  <path class="cls-2" d="M280.9,79.6l7.3,6-9.3.4a16.48,16.48,0,0,1,2-6.4Z"/>
  <path class="cls-4" d="M288.1,85.6l-9.3.4,8.5,3.3C287.4,89.3,287.5,85.9,288.1,85.6Z"/>
  <path class="cls-3" d="M278.9,86l8.5,3.3-9,2.3a36.39,36.39,0,0,1,.5-5.6Z"/>
  <path class="cls-2" d="M287.4,89.3l-9,2.3,9,1.6C287.4,93.3,287.1,89.8,287.4,89.3Z"/>
  <path class="cls-4" d="M287.4,93.3l-9-1.6s0,4.1.4,4.9Z"/>
  <path class="cls-3" d="M287.4,93.3l-8.6,3.4,9.2.5A26.29,26.29,0,0,1,287.4,93.3Z"/>
  <path class="cls-2" d="M278.8,96.6l9.2.5-7.5,5.5a41.1,41.1,0,0,1-1.7-6Z"/>
  <path class="cls-4" d="M288,97.2l-7.5,5.4,9-1.7s-1.5-2.6-1.5-3.7Z"/>
  <path class="cls-3" d="M280.5,102.6l9-1.7-5.8,7.6a55.43,55.43,0,0,1-3.2-5.9Z"/>
  <path class="cls-2" d="M289.5,100.9l-5.8,7.6,8-4.4a12.12,12.12,0,0,1-2.2-3.2Z"/>
  <path class="cls-4" d="M283.8,108.5l8-4.4-3.7,9.3a28.51,28.51,0,0,1-4.3-4.9Z"/>
  <path class="cls-3" d="M291.8,104.2l-3.7,9.3,7.1-6.4A32.37,32.37,0,0,1,291.8,104.2Z"/>
  <path class="cls-2" d="M288.1,113.5l7.1-6.4-2.2,10A34.28,34.28,0,0,1,288.1,113.5Z"/>
  <path class="cls-4" d="M295.2,107.2l-2.2,10,6.1-7.9a24.19,24.19,0,0,1-3.9-2.1Z"/>
  <path class="cls-3" d="M293,117.2l6.1-7.9v10.5a46.56,46.56,0,0,1-6.1-2.6Z"/>
  <path class="cls-2" d="M299.1,109.3v10.5l4.1-9.1a14.87,14.87,0,0,1-4.1-1.4Z"/>
  <path class="cls-4" d="M299.1,119.8s6.2,1.4,7.8,1l-3.7-10.1Z"/>
  <path class="cls-3" d="M303.2,110.7l3.7,10.1,1.9-9.2a54.34,54.34,0,0,1-5.6-.9Z"/>
  <path class="cls-2" d="M308.8,111.6l-1.9,9.2s4.4-.1,5.3-.7Z"/>
  <path class="cls-4" d="M312.2,120.1s5.5-1.5,6.2-2.1l-9.6-6.4Z"/>
  <path class="cls-3" d="M371.4,63H357.5l8.9,5Z"/>
  <path class="cls-2" d="M366.4,67.9l-8.9-5-3.6,3.6Z"/>
  <path class="cls-4" d="M366.4,67.9,361.3,73l-7.4-6.4Z"/>
  <path class="cls-3" d="M353.9,66.6l-4,4L361.3,73Z"/>
  <path class="cls-2" d="M349.9,70.6,361.3,73l-4.9,4.8Z"/>
  <path class="cls-4" d="M349.9,70.6l-4.6,4.6,11.1,2.6Z"/>
  <path class="cls-3" d="M345.3,75.2l11.1,2.6-4.9,4.8Z"/>
  <path class="cls-2" d="M345.3,75.2l-4.2,4.2,10.5,3.2Z"/>
  <path class="cls-4" d="M341,79.4l10.5,3.2L347,87Z"/>
  <path class="cls-3" d="M341,79.4,337.4,83l9.6,4Z"/>
  <path class="cls-2" d="M347,87l-4.6,4.5-5-8.5Z"/>
  <path class="cls-4" d="M342.5,91.5l-9.3-4.2,4.3-4.3Z"/>
  <path class="cls-2" d="M333.1,87.4v8.8l-4.4-4.4Z"/>
  <path class="cls-3" d="M342.5,91.5h-9.4V87.3Z"/>
  <path class="cls-4" d="M342.5,91.5l-9.4,4.6V91.5Z"/>
  <path class="cls-3" d="M342.5,91.5l-5.1,8.9-4.3-4.2Z"/>
  <path class="cls-2" d="M342.5,91.5l3.8,3.8-8.9,5.1Z"/>
  <path class="cls-4" d="M337.3,100.4l8.9-5.1-5,9Z"/>
  <path class="cls-3" d="M346.2,95.3l-5,9,8.7-5.3Z"/>
  <path class="cls-2" d="M341.3,104.3,350,99l-5,8.9Z"/>
  <path class="cls-4" d="M350,99l-5,8.9,8.8-5.2Z"/>
  <path class="cls-3" d="M353.7,102.8l-8.8,5.2,3.4,3.4Z"/>
  <path class="cls-2" d="M353.7,102.8l-5.3,8.7,8.7-5.3Z"/>
  <path class="cls-4" d="M357,106.1l-8.7,5.3,3.3,3.3Z"/>
  <path class="cls-3" d="M357,106.1l-5.4,8.6,9-5Z"/>
  <path class="cls-2" d="M351.6,114.7l9-5L355,118Z"/>
  <path class="cls-4" d="M355.1,117.7l9.5-4-4.1-4.1Z"/>
  <path class="cls-3" d="M354.9,118l2.7,2.7,7-7Z"/>
  <path class="cls-2" d="M357.6,120.7l10.4-3.6-3.4-3.4Z"/>
  <path class="cls-4" d="M368,117.1l-10.1,3.6h13.7Z"/>
  <path class="cls-4" d="M376.4,63.6l9.5,9.6V63.6Z"/>
  <path class="cls-2" d="M385.9,63.6l9.6,9.6h-9.6Z"/>
  <path class="cls-3" d="M385.9,63.6l9.6,9.6V63.6Z"/>
  <path class="cls-4" d="M395.6,63.6v9.6l9.6-9.6Z"/>
  <path class="cls-2" d="M405.2,63.6v9.6h-9.6Z"/>
  <path class="cls-3" d="M405.2,63.6l10,9.6h-10Z"/>
  <path class="cls-4" d="M405.2,63.6h10v9.6Z"/>
  <path class="cls-4" d="M376.5,87.2l10.1,10.2H376.5Z"/>
  <path class="cls-2" d="M376.5,87.2l10.1,10.2V87.2Z"/>
  <path class="cls-3" d="M386.7,87.2V97.3l10.1-10.1Z"/>
  <path class="cls-4" d="M396.7,87.2V97.3H386.6Z"/>
  <path class="cls-2" d="M396.7,87.2l10.1,10.1H396.7Z"/>
  <path class="cls-3" d="M396.7,87.2l10.1,10.1v-10Z"/>
  <path class="cls-4" d="M406.8,87.3v10l8.3-10Z"/>
  <path class="cls-2" d="M415.1,87.3v10h-8.3Z"/>
  <path class="cls-4" d="M386.2,111.6v9.6H376.1Z"/>
  <path class="cls-2" d="M386.2,111.6l9.6,9.6h-9.6Z"/>
  <path class="cls-3" d="M386.2,111.6l9.6,9.6v-9.6Z"/>
  <path class="cls-4" d="M395.8,121.2l9.5-9.5h-9.5Z"/>
  <path class="cls-2" d="M405.3,111.7v9.5h-9.5Z"/>
  <path class="cls-3" d="M405.3,111.7l9.8,9.6h-9.8Z"/>
  <path class="cls-4" d="M405.3,111.7h9.8v9.5Z"/>
  <path class="cls-4" d="M420.4,63.8V79l8-8Z"/>
  <path class="cls-2" d="M428.4,71l-8,8,15.5-1.2Z"/>
  <path class="cls-3" d="M420.4,78.9l7.6,6.7,7.9-7.9Z"/>
  <path class="cls-4" d="M435.9,77.7l-1.1,14-6.8-6Z"/>
  <path class="cls-2" d="M435.9,77.7l6.5,5.9-7.6,8Z"/>
  <path class="cls-3" d="M442.4,83.6l-7.6,8L448.4,89Z"/>
  <path class="cls-4" d="M448.4,89l-13.6,2.6,6.7,5.9Z"/>
  <path class="cls-2" d="M448.4,89l-2.5,12.5-4.5-4Z"/>
  <path class="cls-3" d="M448.4,89l-2.5,12.5,7.5-7.9Z"/>
  <path class="cls-4" d="M446,101.5,458.4,98l-4.9-4.4Z"/>
  <path class="cls-2" d="M458.4,98l-6.2,9-6.2-5.5Z"/>
  <path class="cls-3" d="M452.2,107l9.8-1.8L458.4,98Z"/>
  <path class="cls-4" d="M458.4,98l3.6,7.2,6.8-6.5Z"/>
  <path class="cls-3" d="M462,105.2l6.8,3.6V98.6Z"/>
  <path class="cls-4" d="M462,105.2l-9.8,1.8,6.4,5.6Z"/>
  <path class="cls-2" d="M462,105.2l-3.4,7.5,10.2-3.9Z"/>
  <path class="cls-4" d="M464.1,110.6l4.7,11.1V108.8Z"/>
  <path class="cls-3" d="M464.1,110.6l-5.5,2.1,10.2,9Z"/>
  <path class="cls-2" d="M458.4,98l10.4-5.2v5.8Z"/>
  <path class="cls-4" d="M458.4,86l10.4,6.8H458.4Z"/>
  <path class="cls-3" d="M458.4,92.8V98l10.4-5.2Z"/>
  <path class="cls-2" d="M468.8,92.8,458.4,86h10.4Z"/>
  <path class="cls-3" d="M458.4,86l10.4-6.4V86Z"/>
  <path class="cls-4" d="M458.4,86l10.4-6.4H458.4Z"/>
  <path class="cls-3" d="M458.4,79.6h10.4l-10.4-7.7Z"/>
  <path class="cls-2" d="M458.4,71.9h10.4v7.7Z"/>
  <path class="cls-4" d="M458.4,71.9l10.4-8.7v8.7Z"/>
  <path class="cls-2" d="M458.4,71.9V63.2h10.4Z"/>
  <path class="cls-4" d="M485,72.4V63l-9.5.1Z"/>
  <path class="cls-3" d="M485,72.4l7.4-9.5L485,63Z"/>
  <path class="cls-2" d="M492.5,62.9l-7.4,9.5,7.7.1Z"/>
  <path class="cls-4" d="M492.5,62.9l4.4,9.8-4-.2Z"/>
  <path class="cls-3" d="M492.5,62.9h4.1l.3,9.9Z"/>
  <path class="cls-2" d="M496.5,62.9a43.38,43.38,0,0,1,6.2,1.6l-5.9,8.3Z"/>
  <path class="cls-4" d="M496.8,72.8l5.9-8.3-.7,9.7a18.17,18.17,0,0,0-5.2-1.4Z"/>
  <path class="cls-3" d="M502.8,64.5l-.7,9.7,7.2-6.8C509.2,67.4,505.2,64.8,502.8,64.5Z"/>
  <path class="cls-2" d="M509.2,67.4,502,74.2s4.3,1.7,4.6,2.4Z"/>
  <path class="cls-4" d="M506.7,76.5l2.5-9.2s3.8,1.6,5.3,3.7Z"/>
  <path class="cls-3" d="M506.7,76.5l7.8-5.5L510,79.4A15.27,15.27,0,0,0,506.7,76.5Z"/>
  <path class="cls-2" d="M514.5,71.1,510,79.5l9.2-3.2A29.09,29.09,0,0,0,514.5,71.1Z"/>
  <path class="cls-4" d="M519.2,76.3,510,79.5a16.17,16.17,0,0,1,2.5,3.9Z"/>
  <path class="cls-3" d="M519.2,76.3l-6.6,7.1,9.8-.3s-1.9-5.1-3.2-6.8Z"/>
  <path class="cls-2" d="M512.6,83.4l9.8-.3-8.5,4.3a8.24,8.24,0,0,0-1.3-4Z"/>
  <path class="cls-4" d="M522.5,83.1,514,87.4l9.7,1.8A59.81,59.81,0,0,0,522.5,83.1Z"/>
  <path class="cls-3" d="M513.9,87.4l9.7,1.8-9.3,3a19.47,19.47,0,0,0-.4-4.8Z"/>
  <path class="cls-2" d="M523.6,89.2l-9.3,3,9.2,3a24.18,24.18,0,0,0,.1-6Z"/>
  <path class="cls-4" d="M514.4,92.3l9.2,3-9.7,1.4a17,17,0,0,0,.5-4.4Z"/>
  <path class="cls-3" d="M523.5,95.3l-9.7,1.4L522,102A26,26,0,0,0,523.5,95.3Z"/>
  <path class="cls-2" d="M513.9,96.7l8.2,5.3-9.8-.7A31.09,31.09,0,0,0,513.9,96.7Z"/>
  <path class="cls-4" d="M522.1,102l-9.8-.7,6.3,7.4A30.42,30.42,0,0,0,522.1,102Z"/>
  <path class="cls-3" d="M512.3,101.4l6.3,7.4-8.9-3.7A22.55,22.55,0,0,0,512.3,101.4Z"/>
  <path class="cls-2" d="M518.5,108.8l-8.9-3.7,3.9,8.8A26.74,26.74,0,0,0,518.5,108.8Z"/>
  <path class="cls-4" d="M509.6,105l3.9,8.8-7.2-6A22.2,22.2,0,0,0,509.6,105Z"/>
  <path class="cls-3" d="M513.6,113.8l-7.2-6,1.8,9.5c1.8-1.1,3.6-2.2,5.4-3.5Z"/>
  <path class="cls-2" d="M506.3,107.8l1.8,9.5-6.3-7.2A23.84,23.84,0,0,0,506.3,107.8Z"/>
  <path class="cls-4" d="M508.1,117.3l-6.3-7.2.3,9.7A44.71,44.71,0,0,0,508.1,117.3Z"/>
  <path class="cls-3" d="M501.8,110.1l.3,9.7-5.1-8.4C498.6,111,500.2,110.6,501.8,110.1Z"/>
  <path class="cls-2" d="M502,119.7l-5.1-8.4-3.5,9.6S499,120.8,502,119.7Z"/>
  <path class="cls-4" d="M496.9,111.3l-3.5,9.6-1.5-9.5A20.81,20.81,0,0,0,496.9,111.3Z"/>
  <path class="cls-3" d="M493.4,120.9l-1.5-9.5-4.9,9.4Z"/>
  <path class="cls-2" d="M491.9,111.5l-4.9,9.4-2.1-9.4Z"/>
  <path class="cls-4" d="M484.9,111.5l2.1,9.4-11.5-.2Z"/>
</svg>
