<svg id="Layer_1" data-name="Layer 1" xmlns="http://www.w3.org/2000/svg" viewBox="0 0 401.83 60.17">
  <title>frontend1</title>

  <path d="M0,1.16l9.5,9.6V1.16Z" transform="translate(0 -0.04)"/>
  <path d="M9.5,1.16l9.6,9.6H9.5Z" transform="translate(0 -0.04)"/>
  <path d="M9.5,1.16l9.6,9.6V1.16Z" transform="translate(0 -0.04)"/>
  <path d="M19.2,1.16v9.6l9.6-9.6Z" transform="translate(0 -0.04)"/>
  <path d="M28.8,1.16v9.6H19.2Z" transform="translate(0 -0.04)"/>
  <path d="M28.8,1.16l10,9.6h-10Z" transform="translate(0 -0.04)"/>
  <path d="M28.8,1.16h10v9.6Z" transform="translate(0 -0.04)"/>
  <path d="M.7,58.86l9-9v9Z" transform="translate(0 -0.04)"/>
  <path d="M.7,58.86l9-9H.7Z" transform="translate(0 -0.04)"/>
  <path d="M9.7,49.86V39.36H.7Z" transform="translate(0 -0.04)"/>
  <path d="M9.7,49.86H.7V39.36Z" transform="translate(0 -0.04)"/>
  <path d="M.7,39.36V29.26l9,10.1Z" transform="translate(0 -0.04)"/>
  <path d="M9.7,39.36v-10H.8Z" transform="translate(0 -0.04)"/>
  <path d="M9.7,29.36v10l9.9-9.9Z" transform="translate(0 -0.04)"/>
  <path d="M19.6,29.36v9.9H9.7Z" transform="translate(0 -0.04)"/>
  <path d="M19.6,29.36l9.9,9.9H19.6Z" transform="translate(0 -0.04)"/>
  <path d="M19.6,29.36l9.9,9.9v-9.9Z" transform="translate(0 -0.04)"/>
  <path d="M29.6,29.46v9.9h8.8Z" transform="translate(0 -0.04)"/>
  <path d="M29.6,29.46l8.8.1v9.8Z" transform="translate(0 -0.04)"/>

  <path d="M43.8.8l6.4,10.5V.9Z" transform="translate(0 -0.04)"/>
  <path d="M50.2.9,60.6,11.3H50.2Z" transform="translate(0 -0.04)"/>
  <path d="M50.2.9,60.6,11.3V1.1Z" transform="translate(0 -0.04)"/>
  <path d="M60.5,1.1,70.7,11.3l-10.2-.1Z" transform="translate(0 -0.04)"/>
  <path d="M60.5,1.1,70.7,11.3V1.3Z" transform="translate(0 -0.04)"/>
  <path d="M70.8,1.3V11.4l7.4-7.1A29.19,29.19,0,0,0,70.8,1.3Z" transform="translate(0 -0.04)"/>
  <path d="M78.1,4.2,76,13.5s-3.7-2.2-5.3-2.2Z" transform="translate(0 -0.04)"/>
  <path d="M78.1,4.2,76,13.5l8-4.7A33.74,33.74,0,0,0,78.1,4.2Z" transform="translate(0 -0.04)"/>
  <path d="M76.1,13.6l8-4.7-5.2,8A11.42,11.42,0,0,0,76.1,13.6Z" transform="translate(0 -0.04)"/>
  <path d="M84.1,8.9l-5.2,8,9-1.7C87.9,15.1,86,10.6,84.1,8.9Z" transform="translate(0 -0.04)"/>
  <path d="M78.9,16.8l9-1.7-8.1,5.5a8.24,8.24,0,0,0-.9-3.8Z" transform="translate(0 -0.04)"/>
  <path d="M87.9,15.1l-8.1,5.5,8.8,2.1S88.9,17.3,87.9,15.1Z" transform="translate(0 -0.04)"/>
  <path d="M79.9,20.6l8.8,2.1-9.3,1.8a10.8,10.8,0,0,0,.5-3.9Z" transform="translate(0 -0.04)"/>
  <path d="M88.6,22.7l-9.3,1.8,7,5.6c.1,0,2.3-4.4,2.3-7.4Z" transform="translate(0 -0.04)"/>
  <path d="M79.4,24.5l7,5.6-8.9-2.6a8.66,8.66,0,0,0,1.9-3Z" transform="translate(0 -0.04)"/>
  <path d="M86.4,30.1l-8.9-2.6,3,8.9c-.1,0,4.4-3,5.9-6.3Z" transform="translate(0 -0.04)"/>
  <path d="M77.4,27.5l3,8.9-5.7-7a6.16,6.16,0,0,0,2.7-1.9Z" transform="translate(0 -0.04)"/>
  <path d="M80.4,36.4l-5.7-7,2.1,8.9S78,38.3,80.4,36.4Z" transform="translate(0 -0.04)"/>
  <path d="M76.8,38.3l-8.4-7.6s4.3,0,6.4-1.3Z" transform="translate(0 -0.04)"/>
  <path d="M76.8,38.3l-8.4-7.6v8.2Z" transform="translate(0 -0.04)"/>
  <path d="M68.3,30.6,65.9,39l2.4-.1Z" transform="translate(0 -0.04)"/>
  <path d="M68.3,30.6H61L65.9,39Z" transform="translate(0 -0.04)"/>
  <path d="M65.9,39l4.3,7.3H81.4Z" transform="translate(0 -0.04)"/>
  <path d="M81.3,46.3l3,5.3H73.2Z" transform="translate(0 -0.04)"/>
  <path d="M73.2,51.6l15.4,7.6-4.3-7.6Z" transform="translate(0 -0.04)"/>
  <path d="M73.2,51.6l4.4,7.6h11Z" transform="translate(0 -0.04)"/>
  <path d="M73.2,51.6l8.1-5.3H70.1Z" transform="translate(0 -0.04)"/>
  <path d="M81.3,46.3,65.9,39l10.9-.8Z" transform="translate(0 -0.04)"/>

  <path d="M104.1,30.3l-8.6.3s.4,4.3,1.2,8.5Z" transform="translate(0 -0.04)"/>
  <path d="M104.1,30.3,96.7,39l8.9-1C105.7,38,103.8,34,104.1,30.3Z" transform="translate(0 -0.04)"/>
  <path d="M104.9,24.9l-7.2-5.5a75.57,75.57,0,0,0-2.2,11.1Z" transform="translate(0 -0.04)"/>
  <path d="M104.9,24.9l-9.4,5.6,8.6-.3c0,.1-.4-1.8.8-5.3Z" transform="translate(0 -0.04)"/>
  <path d="M107.1,19.8l-5.6-7.1a23.45,23.45,0,0,0-3.8,6.8Z" transform="translate(0 -0.04)"/>
  <path d="M107.1,19.8l-9.4-.4,7.2,5.3a11.67,11.67,0,0,1,2.2-4.9Z" transform="translate(0 -0.04)"/>
  <path d="M110.5,15.6l-3.4-8.4a21.93,21.93,0,0,0-5.5,5.5Z" transform="translate(0 -0.04)"/>
  <path d="M110.5,15.6l-8.9-2.9,5.5,7.1c-.1,0,.5-1.8,3.4-4.2Z" transform="translate(0 -0.04)"/>
  <path d="M114.9,12.5l-1-9a23.9,23.9,0,0,0-6.8,3.7Z" transform="translate(0 -0.04)"/>
  <path d="M114.9,12.5l-7.8-5.2,3.4,8.3S111.5,14,114.9,12.5Z" transform="translate(0 -0.04)"/>
  <path d="M120,10.7l1.4-8.9a22.76,22.76,0,0,0-7.6,1.8Z" transform="translate(0 -0.04)"/>
  <path d="M120,10.7l-6.1-7.1,1,8.9a11.78,11.78,0,0,1,5.1-1.8Z" transform="translate(0 -0.04)"/>
  <path d="M125.4,10.3l3.8-8.2a24.08,24.08,0,0,0-7.8-.4Z" transform="translate(0 -0.04)"/>
  <path d="M125.4,10.3l-3.9-8.5L120,10.6s1.7-.8,5.4-.3Z" transform="translate(0 -0.04)"/>
  <path d="M130.7,11.6l6.1-6.7a22.5,22.5,0,0,0-7.3-2.6Z" transform="translate(0 -0.04)"/>
  <path d="M130.7,11.6l-1.2-9.3-4,8c-.1,0,1.8-.2,5.2,1.3Z" transform="translate(0 -0.04)"/>
  <path d="M135.4,14.2,143,9.4a22.73,22.73,0,0,0-6.3-4.5Z" transform="translate(0 -0.04)"/>
  <path d="M135.4,14.2l1.3-9.3-6,6.6a14.71,14.71,0,0,1,4.7,2.7Z" transform="translate(0 -0.04)"/>
  <path d="M139.3,18l8.7-2.6a22,22,0,0,0-4.9-6Z" transform="translate(0 -0.04)"/>
  <path d="M139.3,18,143,9.4l-7.6,4.8C135.5,14.2,137.2,15,139.3,18Z" transform="translate(0 -0.04)"/>
  <path d="M142.1,22.8l9-.2a24,24,0,0,0-3.1-7.1Z" transform="translate(0 -0.04)"/>
  <path d="M142.1,22.8l5.9-7.3-8.6,2.6s1.5,1.2,2.7,4.7Z" transform="translate(0 -0.04)"/>
  <path d="M143.4,27.8l8.7,2.4a23.37,23.37,0,0,0-.9-7.7Z" transform="translate(0 -0.04)"/>
  <path d="M143.4,27.8l7.8-5.3h-9a12.64,12.64,0,0,1,1.2,5.3Z" transform="translate(0 -0.04)"/>
  <path d="M143,33.3l7.7,4.7a22.39,22.39,0,0,0,1.2-7.7Z" transform="translate(0 -0.04)"/>
  <path d="M143,33.3l8.9-2.9-8.6-2.5c.1-.1.6,1.8-.3,5.4Z" transform="translate(0 -0.04)"/>
  <path d="M141.3,38.5l6.2,6.6a22.18,22.18,0,0,0,3.2-7.1Z" transform="translate(0 -0.04)"/>
  <path d="M141.3,38.5l9.4-.5L143,33.4s.1,1.9-1.7,5.1Z" transform="translate(0 -0.04)"/>
  <path d="M138.3,43l4.2,8a22.76,22.76,0,0,0,5-6Z" transform="translate(0 -0.04)"/>
  <path d="M138.3,43l9.2,2-6.2-6.5s-.4,1.9-3,4.5Z" transform="translate(0 -0.04)"/>
  <path d="M134.3,46.8l1.6,8.9a22.35,22.35,0,0,0,6.5-4.2Z" transform="translate(0 -0.04)"/>
  <path d="M134.3,46.8l8.1,4.7-3.9-8.1S137.6,45.1,134.3,46.8Z" transform="translate(0 -0.04)"/>
  <path d="M129.3,49l-.8,9a23.74,23.74,0,0,0,7.4-2.3Z" transform="translate(0 -0.04)"/>
  <path d="M129.3,49l6.6,6.7-1.6-8.8s-1.4,1.3-5,2.1Z" transform="translate(0 -0.04)"/>
  <path d="M123.9,49.8l-3.2,8.5a23.17,23.17,0,0,0,7.8-.3Z" transform="translate(0 -0.04)"/>
  <path d="M123.9,49.8l4.6,8.2.8-8.9a11.59,11.59,0,0,1-5.4.7Z" transform="translate(0 -0.04)"/>
  <path d="M118.4,49.2l-5.3,7.3a24.42,24.42,0,0,0,7.6,1.8Z" transform="translate(0 -0.04)"/>
  <path d="M118.4,49.2l2.3,9.1,3.1-8.4A13.93,13.93,0,0,1,118.4,49.2Z" transform="translate(0 -0.04)"/>
  <path d="M113.4,47.1l-7.1,5.6a22,22,0,0,0,6.8,3.7Z" transform="translate(0 -0.04)"/>
  <path d="M113.4,47.1l-.2,9.4,5.2-7.3s-1.9,0-5-2.1Z" transform="translate(0 -0.04)"/>
  <path d="M109.3,43.8l-8.4,3.4a21.93,21.93,0,0,0,5.5,5.5Z" transform="translate(0 -0.04)"/>
  <path d="M109.3,43.8l-2.9,8.9,7.1-5.5C113.4,47.3,111.6,46.7,109.3,43.8Z" transform="translate(0 -0.04)"/>
  <path d="M105.7,38l-8.9,1a28.1,28.1,0,0,0,4.2,8.1Z" transform="translate(0 -0.04)"/>
  <path d="M105.7,38l-4.8,9.1,8.4-3.3a21.81,21.81,0,0,1-3.6-5.8Z" transform="translate(0 -0.04)"/>

  <path d="M156.48,1.58v15.2l8-8Z" transform="translate(0 -0.04)"/>
  <path d="M164.48,8.78l-8,8,15.5-1.2Z" transform="translate(0 -0.04)"/>
  <path d="M156.48,16.78l7.6,6.7,7.9-7.9Z" transform="translate(0 -0.04)"/>
  <path d="M172,15.48l-1.1,14-6.8-6Z" transform="translate(0 -0.04)"/>
  <path d="M172,15.48l6.5,5.9-7.6,8Z" transform="translate(0 -0.04)"/>
  <path d="M178.48,21.38l-7.6,8,13.6-2.6Z" transform="translate(0 -0.04)"/>
  <path d="M184.58,26.88,171,29.48l6.6,5.9Z" transform="translate(0 -0.04)"/>
  <path d="M184.58,26.88l-2.5,12.5-4.5-4Z" transform="translate(0 -0.04)"/>
  <path d="M184.58,26.88l-2.5,12.5,7.5-7.9Z" transform="translate(0 -0.04)"/>
  <path d="M182.08,39.28l12.4-3.5-4.9-4.4Z" transform="translate(0 -0.04)"/>
  <path d="M194.48,35.78l-6.2,9-6.2-5.5Z" transform="translate(0 -0.04)"/>
  <path d="M188.28,44.88l9.8-1.9-3.6-7.2Z" transform="translate(0 -0.04)"/>
  <path d="M194.48,35.78l3.6,7.2,6.8-6.5Z" transform="translate(0 -0.04)"/>
  <path d="M198.08,43l6.8,3.6V36.48Z" transform="translate(0 -0.04)"/>
  <path d="M198.08,43l-9.8,1.9,6.4,5.6Z" transform="translate(0 -0.04)"/>
  <path d="M198.08,43l-3.4,7.5,10.2-3.9Z" transform="translate(0 -0.04)"/>
  <path d="M200.18,48.38l4.7,11.1V46.58Z" transform="translate(0 -0.04)"/>
  <path d="M200.18,48.38l-5.5,2.1,10.2,9Z" transform="translate(0 -0.04)"/>
  <path d="M194.48,35.78l10.4-5.2v5.8Z" transform="translate(0 -0.04)"/>
  <path d="M194.48,23.78l10.4,6.8h-10.4Z" transform="translate(0 -0.04)"/>
  <path d="M194.48,30.68v5.2l10.4-5.2Z" transform="translate(0 -0.04)"/>
  <path d="M204.88,30.68l-10.4-6.8h10.4Z" transform="translate(0 -0.04)"/>
  <path d="M194.48,23.78l10.4-6.4v6.4Z" transform="translate(0 -0.04)"/>
  <path d="M194.48,23.78l10.4-6.4h-10.4Z" transform="translate(0 -0.04)"/>
  <path d="M194.48,17.38h10.4l-10.4-7.7Z" transform="translate(0 -0.04)"/>
  <path d="M194.48,9.68h10.4v7.7Z" transform="translate(0 -0.04)"/>
  <path d="M194.48,9.68l10.4-8.6v8.7h-10.4Z" transform="translate(0 -0.04)"/>
  <path d="M194.48,9.68V1.08h10.4Z" transform="translate(0 -0.04)"/>

  <path d="M213.3,60.2l10.4-10.4V60.2Z" transform="translate(0 -0.04)"/>
  <path d="M213.3,60.2l10.4-10.4H213.3Z" transform="translate(0 -0.04)"/>
  <path d="M213.3,49.7h10.4L213.3,39.3Z" transform="translate(0 -0.04)"/>
  <path d="M213.3,39.3h10.4V49.7Z" transform="translate(0 -0.04)"/>
  <path d="M223.7,39.3H213.3l10.4-10.4Z" transform="translate(0 -0.04)"/>
  <path d="M223.7,28.9H213.3V39.3Z" transform="translate(0 -0.04)"/>
  <path d="M223.7,28.9,213.3,18.5V28.9Z" transform="translate(0 -0.04)"/>
  <path d="M213.3,18.5h10.4V28.9Z" transform="translate(0 -0.04)"/>
  <path d="M213.3,18.5l10.4-6.3v6.3Z" transform="translate(0 -0.04)"/>
  <path d="M223.7,12.2H213.3v6.3Z" transform="translate(0 -0.04)"/>
  <path d="M213.3,2.3l10.1,10.1-10.1-.2Z" transform="translate(0 -0.04)"/>
  <path d="M213.3,2.3l10.1,10.1V2.3Z" transform="translate(0 -0.04)"/>
  <path d="M223.4,2.3V12.4L233.5,2.3Z" transform="translate(0 -0.04)"/>
  <path d="M233.5,2.3v9.9h-9.8Z" transform="translate(0 -0.04)"/>
  <path d="M233.5,2.3l8.9,9.9h-8.9Z" transform="translate(0 -0.04)"/>
  <path d="M233.5,2.3h8.9v9.9Z" transform="translate(0 -0.04)"/>

  <path d="M253.38,1.8l9.5,9.6V1.8Z" transform="translate(0 -0.04)"/>
  <path d="M262.88,1.8l9.6,9.6h-9.6Z" transform="translate(0 -0.04)"/>
  <path d="M262.88,1.8l9.6,9.6V1.8Z" transform="translate(0 -0.04)"/>
  <path d="M272.48,1.8v9.6l9.6-9.6Z" transform="translate(0 -0.04)"/>
  <path d="M282.08,1.8v9.6h-9.6Z" transform="translate(0 -0.04)"/>
  <path d="M282.08,1.8l10,9.6h-10Z" transform="translate(0 -0.04)"/>
  <path d="M282.08,1.8h10v9.6Z" transform="translate(0 -0.04)"/>
  <path d="M253.48,25.3l10.2,10.2h-10.2Z" transform="translate(0 -0.04)"/>
  <path d="M253.48,25.3l10.2,10.2V25.4Z" transform="translate(0 -0.04)"/>
  <path d="M263.58,25.4V35.5l10.1-10.1Z" transform="translate(0 -0.04)"/>
  <path d="M273.68,25.4V35.5h-10.1Z" transform="translate(0 -0.04)"/>
  <path d="M273.68,25.4l10.1,10.1h-10.1Z" transform="translate(0 -0.04)"/>
  <path d="M273.68,25.4l10.1,10.1v-10Z" transform="translate(0 -0.04)"/>
  <path d="M283.68,25.5v10l8.3-10Z" transform="translate(0 -0.04)"/>
  <path d="M292,25.5v10h-8.3Z" transform="translate(0 -0.04)"/>
  <path d="M263.18,49.8v9.6h-10.1Z" transform="translate(0 -0.04)"/>
  <path d="M263.18,49.8l9.6,9.6h-9.6Z" transform="translate(0 -0.04)"/>
  <path d="M263.18,49.8l9.6,9.6V49.9Z" transform="translate(0 -0.04)"/>
  <path d="M272.68,59.4l9.5-9.5h-9.5Z" transform="translate(0 -0.04)"/>
  <path d="M282.28,49.9v9.5h-9.5Z" transform="translate(0 -0.04)"/>
  <path d="M282.28,49.9l9.8,9.6h-9.8Z" transform="translate(0 -0.04)"/>
  <path d="M282.28,49.9h9.8v9.5Z" transform="translate(0 -0.04)"/>

  <path d="M299.08,1.3V16.5l8-8Z" transform="translate(0 -0.04)"/>
  <path d="M307.08,8.5l-8,8,15.5-1.2Z" transform="translate(0 -0.04)"/>
  <path d="M299.08,16.5l7.6,6.7,7.9-7.9Z" transform="translate(0 -0.04)"/>
  <path d="M314.58,15.3l-1.1,14-6.8-6Z" transform="translate(0 -0.04)"/>
  <path d="M314.58,15.3l6.5,5.9-7.6,8Z" transform="translate(0 -0.04)"/>
  <path d="M321.08,21.2l-7.6,8,13.6-2.6Z" transform="translate(0 -0.04)"/>
  <path d="M327.18,26.6l-13.6,2.6,6.6,5.9Z" transform="translate(0 -0.04)"/>
  <path d="M327.18,26.6l-2.5,12.5-4.5-4Z" transform="translate(0 -0.04)"/>
  <path d="M327.18,26.6l-2.5,12.5,7.5-7.9Z" transform="translate(0 -0.04)"/>
  <path d="M324.68,39.1l12.4-3.5-4.9-4.4Z" transform="translate(0 -0.04)"/>
  <path d="M337.08,35.6l-6.2,9-6.2-5.5Z" transform="translate(0 -0.04)"/>
  <path d="M330.88,44.6l9.8-1.9-3.6-7.2Z" transform="translate(0 -0.04)"/>
  <path d="M337.08,35.6l3.6,7.2,6.8-6.5Z" transform="translate(0 -0.04)"/>
  <path d="M340.68,42.7l6.8,3.6V36.2Z" transform="translate(0 -0.04)"/>
  <path d="M340.68,42.7l-9.8,1.9,6.4,5.6Z" transform="translate(0 -0.04)"/>
  <path d="M340.68,42.7l-3.4,7.5,10.2-3.9Z" transform="translate(0 -0.04)"/>
  <path d="M342.78,48.1l4.7,11.1V46.4Z" transform="translate(0 -0.04)"/>
  <path d="M342.78,48.1l-5.5,2.1,10.2,9Z" transform="translate(0 -0.04)"/>
  <path d="M337.08,35.6l10.4-5.2v5.8Z" transform="translate(0 -0.04)"/>
  <path d="M337.08,23.6l10.4,6.8h-10.4V23.6Z" transform="translate(0 -0.04)"/>
  <path d="M337.08,30.4v5.2l10.4-5.2Z" transform="translate(0 -0.04)"/>
  <path d="M347.48,30.4l-10.4-6.8h10.4Z" transform="translate(0 -0.04)"/>
  <path d="M337.08,23.6l10.4-6.4v6.4Z" transform="translate(0 -0.04)"/>
  <path d="M337.08,23.6l10.4-6.4h-10.4v6.4Z" transform="translate(0 -0.04)"/>
  <path d="M337.08,17.2h10.4l-10.4-7.7v7.7Z" transform="translate(0 -0.04)"/>
  <path d="M337.08,9.5h10.4v7.7Z" transform="translate(0 -0.04)"/>
  <path d="M337.08,9.5,347.48.8V9.5Z" transform="translate(0 -0.04)"/>
  <path d="M337.08,9.5V.8h10.4Z" transform="translate(0 -0.04)"/>

  <path d="M363.15,9.54V.14l-9.5.1Z" transform="translate(0 -0.04)"/>
  <path d="M363.15,9.54l7.4-9.5-7.4.1Z" transform="translate(0 -0.04)"/>
  <path d="M370.55,0l-7.4,9.5,7.7.1Z" transform="translate(0 -0.04)"/>
  <path d="M370.55,0l4.4,9.8-4.1-.2Z" transform="translate(0 -0.04)"/>
  <path d="M370.55,0h4.1l.3,9.89Z" transform="translate(0 -0.04)"/>
  <path d="M374.55,0a42.32,42.32,0,0,1,6.2,1.6l-5.9,8.3Z" transform="translate(0 -0.04)"/>
  <path d="M374.85,9.84l5.9-8.3-.7,9.7a22.78,22.78,0,0,0-5.2-1.4Z" transform="translate(0 -0.04)"/>
  <path d="M380.85,1.54l-.7,9.7,7.2-6.81c-.1,0-4.1-2.49-6.5-2.89Z" transform="translate(0 -0.04)"/>
  <path d="M387.25,4.44l-7.2,6.8s4.3,1.6,4.6,2.4Z" transform="translate(0 -0.04)"/>
  <path d="M384.75,13.64l2.6-9.2s3.8,1.6,5.3,3.7Z" transform="translate(0 -0.04)"/>
  <path d="M384.75,13.64l7.9-5.5-4.5,8.4a18.24,18.24,0,0,0-3.4-2.9Z" transform="translate(0 -0.04)"/>
  <path d="M392.65,8.14l-4.5,8.4,9.2-3.2C397.25,13.44,394.85,9.94,392.65,8.14Z" transform="translate(0 -0.04)"/>
  <path d="M397.25,13.44l-9.2,3.2a16,16,0,0,1,2.5,3.9Z" transform="translate(0 -0.04)"/>
  <path d="M397.25,13.44l-6.6,7.1,9.8-.3A33.22,33.22,0,0,0,397.25,13.44Z" transform="translate(0 -0.04)"/>
  <path d="M390.65,20.54l9.8-.3-8.5,4.3a9,9,0,0,0-1.3-4Z" transform="translate(0 -0.04)"/>
  <path d="M400.55,20.24l-8.5,4.3,9.7,1.8c-.1,0-.6-4.2-1.2-6.1Z" transform="translate(0 -0.04)"/>
  <path d="M392,24.54l9.7,1.8-9.2,3A19.16,19.16,0,0,0,392,24.54Z" transform="translate(0 -0.04)"/>
  <path d="M401.65,26.34l-9.2,3,9.2,3a25.88,25.88,0,0,0,0-6Z" transform="translate(0 -0.04)"/>
  <path d="M392.45,29.34l9.2,3-9.7,1.4a13.59,13.59,0,0,0,.5-4.4Z" transform="translate(0 -0.04)"/>
  <path d="M401.65,32.44l-9.7,1.4,8.2,5.3A36.49,36.49,0,0,0,401.65,32.44Z" transform="translate(0 -0.04)"/>
  <path d="M392,33.84l8.2,5.3-9.8-.7A30.68,30.68,0,0,0,392,33.84Z" transform="translate(0 -0.04)"/>
  <path d="M400.15,39.14l-9.8-.7,6.3,7.4c-.1,0,2.7-3.9,3.5-6.7Z" transform="translate(0 -0.04)"/>
  <path d="M390.35,38.44l6.3,7.4-8.9-3.7a15.45,15.45,0,0,0,2.6-3.7Z" transform="translate(0 -0.04)"/>
  <path d="M396.55,45.84l-8.9-3.7,3.9,8.7A21.61,21.61,0,0,0,396.55,45.84Z" transform="translate(0 -0.04)"/>
  <path d="M387.75,42.14l3.9,8.7-7.2-6a20.3,20.3,0,0,0,3.3-2.7Z" transform="translate(0 -0.04)"/>
  <path d="M391.65,50.84l-7.2-6,1.7,9.5a41.48,41.48,0,0,0,5.5-3.5Z" transform="translate(0 -0.04)"/>
  <path d="M384.45,44.94l1.7,9.5-6.3-7.2A44.7,44.7,0,0,0,384.45,44.94Z" transform="translate(0 -0.04)"/>
  <path d="M386.15,54.34l-6.3-7.2.3,9.7a33.14,33.14,0,0,0,6-2.5Z" transform="translate(0 -0.04)"/>
  <path d="M379.85,47.14l.3,9.7-5.1-8.4A41.54,41.54,0,0,0,379.85,47.14Z" transform="translate(0 -0.04)"/>
  <path d="M380.15,56.84l-5.1-8.4-3.5,9.6c-.1,0,5.5-.1,8.6-1.2Z" transform="translate(0 -0.04)"/>
  <path d="M375,48.44l-3.5,9.6-1.5-9.5a29.35,29.35,0,0,0,5-.1Z" transform="translate(0 -0.04)"/>
  <path d="M371.45,58l-1.5-9.5-4.9,9.39s4,.11,6.4.11Z" transform="translate(0 -0.04)"/>
  <path d="M370,48.54l-4.9,9.39L363,48.54Z" transform="translate(0 -0.04)"/>
  <path d="M363,48.54l2.1,9.39-11.5-.19Z" transform="translate(0 -0.04)"/>

</svg>
