<svg id="Layer_1" data-name="Layer 1" xmlns="http://www.w3.org/2000/svg" viewBox="0 0 695.67 230.17">
  <defs>
    <style>
      .cls-1 {
        fill: #bc08ff;
      }

      .cls-2 {
        fill: #d5f;
      }

      .cls-3 {
        fill: #eaf;
      }

      .cls-4 {
        fill: #e580ff;
      }
    </style>
  </defs>
  <title>frontend</title>
  <rect class="cls-1" width="695.67" height="230.17"/>
  <g>
    <path class="cls-2" d="M146.93,86.23l9.53,9.62V86.23Z"/>
    <path class="cls-3" d="M156.46,86.23l9.62,9.62h-9.62Z"/>
    <path class="cls-4" d="M156.46,86.23l9.62,9.62V86.23Z"/>
    <path class="cls-2" d="M166.08,86.23v9.62l9.63-9.62Z"/>
    <path class="cls-3" d="M175.7,86.23v9.62h-9.62Z"/>
    <path class="cls-4" d="M175.7,86.23l10,9.62h-10Z"/>
    <g>
      <path class="cls-2" d="M175.7,86.23h10v9.62Z"/>
      <path class="cls-4" d="M147.63,143.94l9-9v9Z"/>
      <path class="cls-3" d="M147.63,143.94l9-9h-9Z"/>
      <path class="cls-4" d="M156.63,134.94V124.43h-9Z"/>
      <path class="cls-2" d="M156.63,134.94h-9V124.43Z"/>
      <path class="cls-3" d="M147.63,124.43V114.37l9,10.06Z"/>
      <path class="cls-2" d="M156.63,124.43v-10h-8.95Z"/>
      <path class="cls-4" d="M156.63,114.43v10l9.93-9.93Z"/>
      <path class="cls-3" d="M166.56,114.5v9.93h-9.93Z"/>
      <path class="cls-2" d="M166.56,114.5l9.93,9.93h-9.93Z"/>
      <path class="cls-4" d="M166.56,114.5l9.93,9.93v-9.86Z"/>
      <path class="cls-3" d="M176.49,114.57v9.86h8.83Z"/>
      <path class="cls-2" d="M176.49,114.57l8.83.06v9.8Z"/>
    </g>
    <path class="cls-2" d="M190.72,85.87l6.37,10.49V86Z"/>
    <path class="cls-3" d="M197.09,86l10.37,10.38H197.09Z"/>
    <path class="cls-4" d="M197.09,86l10.37,10.38V86.17Z"/>
    <path class="cls-2" d="M207.46,86.17l10.25,10.25-10.25-.06Z"/>
    <path class="cls-3" d="M207.46,86.17l10.25,10.25V86.36Z"/>
    <path class="cls-4" d="M217.71,86.36V96.42l7.35-7.11A33.92,33.92,0,0,0,217.71,86.36Z"/>
    <path class="cls-2" d="M225.06,89.31,223,98.63s-3.69-2.2-5.27-2.21Z"/>
    <path class="cls-3" d="M225.06,89.31,223,98.63l8-4.69A33.25,33.25,0,0,0,225.06,89.31Z"/>
    <path class="cls-4" d="M223,98.63l8-4.69-5.2,8S224.26,99.34,223,98.63Z"/>
    <path class="cls-2" d="M231,93.94l-5.2,8,9-1.71S232.89,95.64,231,93.94Z"/>
    <path class="cls-3" d="M225.82,101.9l9-1.71-8.06,5.52a10.64,10.64,0,0,0-1-3.81Z"/>
    <path class="cls-4" d="M234.84,100.19l-8.06,5.52,8.76,2.08S235.85,102.32,234.84,100.19Z"/>
    <path class="cls-2" d="M226.78,105.71l8.76,2.08-9.26,1.77a10.11,10.11,0,0,0,.5-3.85Z"/>
    <path class="cls-3" d="M235.54,107.79l-9.26,1.77,7,5.57s2.22-4.4,2.25-7.34Z"/>
    <path class="cls-4" d="M226.28,109.56l7,5.57-8.94-2.56a7.26,7.26,0,0,0,1.93-3Z"/>
    <path class="cls-2" d="M233.29,115.13l-8.94-2.56,3,8.89s4.5-3,5.92-6.33Z"/>
    <path class="cls-3" d="M224.35,112.57l3,8.89-5.75-7a6.61,6.61,0,0,0,2.73-1.87Z"/>
    <path class="cls-4" d="M227.37,121.46l-5.75-7,2.06,8.88S224.88,123.41,227.37,121.46Z"/>
    <path class="cls-2" d="M223.68,123.32l-8.43-7.61s4.3,0,6.37-1.27Z"/>
    <path class="cls-3" d="M223.68,123.32l-8.43-7.61V124Z"/>
    <path class="cls-4" d="M215.25,115.71l-2.43,8.38,2.43-.14Z"/>
    <path class="cls-2" d="M215.25,115.71H208l4.87,8.38Z"/>
    <path class="cls-3" d="M212.82,124.09l4.25,7.32h11.18Z"/>
    <path class="cls-2" d="M228.25,131.41l3,5.29H220.12Z"/>
    <path class="cls-3" d="M220.12,136.7l15.42,7.6-4.29-7.6Z"/>
    <path class="cls-4" d="M220.12,136.7l4.43,7.6h11Z"/>
    <path class="cls-4" d="M220.12,136.7l8.13-5.29H217.07Z"/>
    <path class="cls-2" d="M228.25,131.41l-15.43-7.32,10.86-.77Z"/>
    <path class="cls-3" d="M251,115.29l-8.58.27s.44,4.3,1.24,8.45Z"/>
    <path class="cls-2" d="M251,115.29,243.66,124l8.92-1A18.25,18.25,0,0,1,251,115.29Z"/>
    <path class="cls-2" d="M251.83,109.93l-7.2-5.45a80.2,80.2,0,0,0-2.21,11.08Z"/>
    <path class="cls-4" d="M251.83,109.93l-9.41,5.63,8.58-.27s-.41-1.85.83-5.36Z"/>
    <path class="cls-4" d="M254,104.84l-5.55-7.12a22.63,22.63,0,0,0-3.84,6.76Z"/>
    <path class="cls-3" d="M254,104.84l-9.39-.36,7.21,5.33s.09-1.9,2.18-5Z"/>
    <path class="cls-3" d="M257.4,100.63,254,92.26a22.85,22.85,0,0,0-5.52,5.46Z"/>
    <path class="cls-2" d="M257.4,100.63l-8.93-2.91,5.49,7.09s.59-1.8,3.44-4.18Z"/>
    <path class="cls-2" d="M261.86,97.54l-1-9a22.81,22.81,0,0,0-6.8,3.75Z"/>
    <path class="cls-4" d="M261.86,97.54l-7.81-5.23,3.35,8.32S258.47,99.06,261.86,97.54Z"/>
    <path class="cls-4" d="M267,95.75l1.42-8.92a22.76,22.76,0,0,0-7.55,1.8Z"/>
    <path class="cls-3" d="M267,95.75l-6.13-7.12,1,8.91s1.44-1.23,5.11-1.79Z"/>
    <path class="cls-4" d="M272.33,95.36l3.83-8.18a22.81,22.81,0,0,0-7.77-.35Z"/>
    <path class="cls-2" d="M272.33,95.36l-3.94-8.53-1.48,8.84s1.73-.78,5.42-.31Z"/>
    <path class="cls-3" d="M277.59,96.66,283.66,90a22.72,22.72,0,0,0-7.31-2.63Z"/>
    <path class="cls-2" d="M277.59,96.66l-1.24-9.31-4,8s1.88-.24,5.26,1.3Z"/>
    <path class="cls-2" d="M282.36,99.29,290,94.47A22.8,22.8,0,0,0,283.66,90Z"/>
    <path class="cls-4" d="M282.36,99.29l1.3-9.31-6,6.64s1.87.27,4.72,2.67Z"/>
    <path class="cls-4" d="M286.25,103.09l8.65-2.59a22.74,22.74,0,0,0-4.9-6Z"/>
    <path class="cls-3" d="M286.25,103.09,290,94.47l-7.59,4.79S284.15,100,286.25,103.09Z"/>
    <path class="cls-3" d="M289,107.83l9-.23a22.67,22.67,0,0,0-3.15-7.1Z"/>
    <path class="cls-2" d="M289,107.83l5.88-7.33-8.57,2.62s1.47,1.2,2.69,4.71Z"/>
    <path class="cls-2" d="M290.28,112.89l8.7,2.42a22.75,22.75,0,0,0-.93-7.71Z"/>
    <path class="cls-4" d="M290.28,112.89l7.77-5.29h-9s1.06,1.57,1.2,5.29Z"/>
    <path class="cls-4" d="M290,118.3l7.68,4.74a22.78,22.78,0,0,0,1.25-7.67Z"/>
    <path class="cls-3" d="M290,118.3l8.93-2.93-8.62-2.48s.58,1.8-.31,5.41Z"/>
    <path class="cls-3" d="M288.27,123.56l6.2,6.57a22.79,22.79,0,0,0,3.18-7.09Z"/>
    <path class="cls-2" d="M288.27,123.56l9.38-.52L290,118.41s.1,1.89-1.7,5.15Z"/>
    <path class="cls-2" d="M285.24,128.05l4.21,8a22.72,22.72,0,0,0,5-6Z"/>
    <path class="cls-4" d="M285.24,128.05l9.18,2-6.15-6.52s-.42,1.84-3,4.49Z"/>
    <path class="cls-4" d="M281.22,131.85l1.6,8.89a22.71,22.71,0,0,0,6.54-4.19Z"/>
    <path class="cls-3" d="M281.22,131.85l8.14,4.7-3.9-8.08S284.51,130.11,281.22,131.85Z"/>
    <path class="cls-3" d="M276.22,134l-.82,9a22.91,22.91,0,0,0,7.42-2.3Z"/>
    <path class="cls-2" d="M276.22,134l6.6,6.7-1.61-8.83s-1.36,1.33-5,2.13Z"/>
    <path class="cls-2" d="M270.79,134.85l-3.15,8.46a22.79,22.79,0,0,0,7.76-.27Z"/>
    <path class="cls-4" d="M270.79,134.85,275.4,143l.76-8.94s-1.65.92-5.37.75Z"/>
    <path class="cls-4" d="M265.33,134.2l-5.26,7.34a22.83,22.83,0,0,0,7.57,1.77Z"/>
    <path class="cls-3" d="M265.33,134.2l2.31,9.11,3.07-8.43S268.87,135.34,265.33,134.2Z"/>
    <path class="cls-3" d="M260.32,132.15l-7,5.64a22.7,22.7,0,0,0,6.8,3.75Z"/>
    <path class="cls-2" d="M260.32,132.15l-.25,9.39,5.24-7.28s-1.9-.06-5-2.11Z"/>
    <path class="cls-2" d="M256.18,128.85l-8.37,3.41a22.79,22.79,0,0,0,5.46,5.53Z"/>
    <path class="cls-4" d="M256.18,128.85l-2.91,8.94,7.09-5.49S258.56,131.71,256.18,128.85Z"/>
    <path class="cls-4" d="M252.58,123l-8.92,1a30,30,0,0,0,4.16,8.1Z"/>
    <path class="cls-3" d="M252.58,123l-4.76,9.12,8.36-3.26a25.38,25.38,0,0,1-3.6-5.86Z"/>
    <path class="cls-2" d="M303.45,86.39v15.19l8-8Z"/>
    <path class="cls-4" d="M311.43,93.59l-8,8,15.46-1.24Z"/>
    <path class="cls-3" d="M303.45,101.58l7.6,6.71,7.86-8Z"/>
    <path class="cls-2" d="M318.91,100.34l-1.06,14-6.8-6Z"/>
    <path class="cls-4" d="M318.91,100.34l6.54,5.91-7.6,8Z"/>
    <path class="cls-3" d="M325.45,106.25l-7.6,8,13.63-2.62Z"/>
    <path class="cls-2" d="M331.48,111.68l-13.63,2.62,6.65,5.87Z"/>
    <path class="cls-4" d="M331.48,111.68,329,124.14l-4.5-4Z"/>
    <path class="cls-3" d="M331.48,111.68,329,124.14l7.53-7.9Z"/>
    <path class="cls-2" d="M329,124.14l12.41-3.5-4.88-4.4Z"/>
    <path class="cls-4" d="M341.41,120.64l-6.17,9L329,124.14Z"/>
    <path class="cls-3" d="M335.24,129.65,345,127.8l-3.62-7.16Z"/>
    <path class="cls-2" d="M341.41,120.64,345,127.8l6.8-6.54Z"/>
    <path class="cls-4" d="M345,127.8l6.8,3.62V121.26Z"/>
    <path class="cls-2" d="M345,127.8l-9.79,1.85,6.37,5.63Z"/>
    <path class="cls-3" d="M345,127.8l-3.42,7.48,10.22-3.86Z"/>
    <path class="cls-4" d="M347.14,133.19l4.69,11.11V131.42Z"/>
    <path class="cls-2" d="M347.14,133.19l-5.53,2.09,10.22,9Z"/>
    <path class="cls-3" d="M341.41,120.64l10.42-5.18v5.8Z"/>
    <path class="cls-2" d="M341.41,108.65l10.42,6.81H341.41Z"/>
    <path class="cls-4" d="M341.41,115.46v5.19l10.42-5.19Z"/>
    <path class="cls-3" d="M351.83,115.46l-10.42-6.81h10.42Z"/>
    <path class="cls-4" d="M341.41,108.65l10.42-6.43v6.43Z"/>
    <path class="cls-2" d="M341.41,108.65l10.42-6.43H341.41Z"/>
    <path class="cls-3" d="M341.41,102.22h10.42l-10.42-7.68Z"/>
    <path class="cls-4" d="M341.41,94.54h10.42v7.68Z"/>
    <path class="cls-2" d="M341.41,94.54l10.42-8.68v8.68Z"/>
    <path class="cls-3" d="M341.41,94.54V85.86h10.42Z"/>
    <path class="cls-2" d="M360.23,144l10.42-10.42V144Z"/>
    <path class="cls-3" d="M360.23,144l10.42-10.42H360.23Z"/>
    <path class="cls-4" d="M360.23,133.62h10.42l-10.42-10.41Z"/>
    <path class="cls-2" d="M360.23,123.21h10.42v10.41Z"/>
    <path class="cls-3" d="M370.65,123.21H360.23l10.42-10.42Z"/>
    <path class="cls-4" d="M370.65,112.79H360.23v10.42Z"/>
    <path class="cls-2" d="M370.65,112.79l-10.42-10.42v10.42Z"/>
    <path class="cls-3" d="M360.23,102.37h10.42v10.42Z"/>
    <path class="cls-4" d="M360.23,102.37l10.42-6.27v6.27Z"/>
    <path class="cls-2" d="M370.65,96.1H360.23v6.27Z"/>
    <path class="cls-3" d="M360.23,86.13l10.14,10.14-10.14-.17Z"/>
    <path class="cls-4" d="M360.23,86.13l10.14,10.14V86.16Z"/>
    <path class="cls-2" d="M370.37,86.16V96.27l10.08-10.08Z"/>
    <path class="cls-3" d="M380.45,86.19V96.1h-9.8Z"/>
    <path class="cls-4" d="M380.45,86.19l8.91,9.91h-8.91Z"/>
    <path class="cls-2" d="M380.45,86.19l8.91,0V96.1Z"/>
    <path class="cls-2" d="M400.27,86.26l9.54,9.62V86.26Z"/>
    <path class="cls-3" d="M409.81,86.26l9.62,9.62h-9.62Z"/>
    <path class="cls-4" d="M409.81,86.26l9.62,9.62V86.26Z"/>
    <path class="cls-2" d="M419.43,86.26v9.62l9.62-9.62Z"/>
    <path class="cls-4" d="M429.05,86.26v9.62h-9.62Z"/>
    <path class="cls-3" d="M429.05,86.26l10,9.62h-10Z"/>
    <path class="cls-2" d="M429.05,86.26h10v9.62Z"/>
    <path class="cls-2" d="M400.36,109.83,410.51,120H400.36Z"/>
    <path class="cls-4" d="M400.36,109.83,410.51,120v-10.1Z"/>
    <path class="cls-3" d="M410.51,109.88V120l10.06-10.06Z"/>
    <path class="cls-2" d="M420.57,109.92V120H410.51Z"/>
    <path class="cls-4" d="M420.57,109.92,430.63,120H420.57Z"/>
    <path class="cls-3" d="M420.57,109.92,430.63,120V110Z"/>
    <path class="cls-2" d="M430.63,110v10l8.31-10Z"/>
    <path class="cls-4" d="M438.94,110v10h-8.31Z"/>
    <path class="cls-2" d="M410.07,134.28v9.56l-10.06,0Z"/>
    <path class="cls-3" d="M410.07,134.28l9.58,9.58-9.58,0Z"/>
    <path class="cls-4" d="M410.07,134.28l9.58,9.58v-9.55Z"/>
    <path class="cls-2" d="M419.65,143.86l9.52-9.52-9.52,0Z"/>
    <path class="cls-4" d="M429.17,134.34v9.55l-9.52,0Z"/>
    <path class="cls-3" d="M429.17,134.34l9.77,9.57-9.77,0Z"/>
    <path class="cls-2" d="M429.17,134.34l9.77,0v9.54Z"/>
    <path class="cls-2" d="M444.78,86.39v15.19l8-8Z"/>
    <path class="cls-4" d="M452.76,93.59l-8,8,15.46-1.24Z"/>
    <path class="cls-3" d="M444.78,101.58l7.6,6.71,7.86-8Z"/>
    <path class="cls-2" d="M460.24,100.34l-1.06,14-6.8-6Z"/>
    <path class="cls-4" d="M460.24,100.34l6.54,5.91-7.6,8Z"/>
    <path class="cls-3" d="M466.78,106.25l-7.6,8,13.62-2.62Z"/>
    <path class="cls-2" d="M472.8,111.68l-13.62,2.62,6.65,5.87Z"/>
    <path class="cls-4" d="M472.8,111.68l-2.47,12.46-4.5-4Z"/>
    <path class="cls-3" d="M472.8,111.68l-2.47,12.46,7.53-7.9Z"/>
    <path class="cls-2" d="M470.33,124.14l12.41-3.5-4.88-4.4Z"/>
    <path class="cls-4" d="M482.74,120.64l-6.18,9-6.23-5.51Z"/>
    <path class="cls-3" d="M476.56,129.65l9.8-1.85-3.62-7.16Z"/>
    <path class="cls-2" d="M482.74,120.64l3.62,7.16,6.79-6.54Z"/>
    <path class="cls-4" d="M486.36,127.8l6.79,3.62V121.26Z"/>
    <path class="cls-2" d="M486.36,127.8l-9.8,1.85,6.38,5.63Z"/>
    <path class="cls-3" d="M486.36,127.8l-3.42,7.48,10.21-3.86Z"/>
    <path class="cls-4" d="M488.47,133.19l4.68,11.11V131.42Z"/>
    <path class="cls-2" d="M488.47,133.19l-5.53,2.09,10.21,9Z"/>
    <path class="cls-3" d="M482.74,120.64l10.41-5.18v5.8Z"/>
    <path class="cls-2" d="M482.74,108.65l10.41,6.81H482.74Z"/>
    <path class="cls-4" d="M482.74,115.46v5.19l10.41-5.19Z"/>
    <path class="cls-3" d="M493.15,115.46l-10.41-6.81h10.41Z"/>
    <path class="cls-4" d="M482.74,108.65l10.41-6.43v6.43Z"/>
    <path class="cls-2" d="M482.74,108.65l10.41-6.43H482.74Z"/>
    <path class="cls-3" d="M482.74,102.22h10.41l-10.41-7.68Z"/>
    <path class="cls-4" d="M482.74,94.54h10.41v7.68Z"/>
    <path class="cls-2" d="M482.74,94.54l10.41-8.68v8.68Z"/>
    <path class="cls-3" d="M482.74,94.54V85.86h10.41Z"/>
    <path class="cls-2" d="M510,95.6V86.16l-9.54.08Z"/>
    <path class="cls-4" d="M510,95.6l7.41-9.5-7.41.06Z"/>
    <path class="cls-3" d="M517.44,86.1,510,95.6l7.72.13Z"/>
    <path class="cls-2" d="M517.44,86.1l4.37,9.82-4.06-.19Z"/>
    <path class="cls-4" d="M517.44,86.1l4.06,0,.31,9.85Z"/>
    <path class="cls-3" d="M521.51,86.07a44,44,0,0,1,6.22,1.57l-5.92,8.28Z"/>
    <path class="cls-2" d="M521.81,95.92l5.92-8.28L527,97.31a24.64,24.64,0,0,0-5.23-1.39Z"/>
    <path class="cls-4" d="M527.73,87.64,527,97.31l7.17-6.79s-4-2.55-6.48-2.88Z"/>
    <path class="cls-3" d="M534.21,90.52,527,97.31s4.28,1.65,4.62,2.39Z"/>
    <path class="cls-2" d="M531.66,99.7l2.55-9.18s3.81,1.61,5.33,3.72Z"/>
    <path class="cls-4" d="M531.66,99.7l7.88-5.46-4.5,8.44a13.34,13.34,0,0,0-3.38-3Z"/>
    <path class="cls-3" d="M539.54,94.24l-4.5,8.44,9.16-3.2A30.79,30.79,0,0,0,539.54,94.24Z"/>
    <path class="cls-2" d="M544.2,99.48l-9.16,3.2a19.11,19.11,0,0,1,2.55,3.92Z"/>
    <path class="cls-4" d="M544.2,99.48l-6.61,7.12,9.84-.33S545.49,101.18,544.2,99.48Z"/>
    <path class="cls-2" d="M537.59,106.6l9.84-.33-8.54,4.3a8.61,8.61,0,0,0-1.3-4Z"/>
    <path class="cls-3" d="M547.43,106.27l-8.54,4.3,9.69,1.81a39.2,39.2,0,0,0-1.15-6.11Z"/>
    <path class="cls-4" d="M538.89,110.57l9.69,1.81-9.24,3A20.42,20.42,0,0,0,538.89,110.57Z"/>
    <path class="cls-3" d="M548.58,112.38l-9.24,3,9.2,3a26.26,26.26,0,0,0,0-6.09Z"/>
    <path class="cls-2" d="M539.34,115.42l9.2,3-9.66,1.42a16.08,16.08,0,0,0,.46-4.47Z"/>
    <path class="cls-4" d="M548.54,118.47l-9.66,1.42,8.21,5.3A33.43,33.43,0,0,0,548.54,118.47Z"/>
    <path class="cls-3" d="M538.88,119.89l8.21,5.3-9.84-.66A26.89,26.89,0,0,0,538.88,119.89Z"/>
    <path class="cls-2" d="M547.09,125.19l-9.84-.66,6.25,7.4a29.61,29.61,0,0,0,3.59-6.74Z"/>
    <path class="cls-4" d="M537.25,124.52l6.25,7.4-8.86-3.72a15.37,15.37,0,0,0,2.61-3.68Z"/>
    <path class="cls-3" d="M543.5,131.93l-8.86-3.72,3.93,8.74A25.54,25.54,0,0,0,543.5,131.93Z"/>
    <path class="cls-2" d="M534.64,128.21l3.93,8.74-7.23-6a26.47,26.47,0,0,0,3.3-2.75Z"/>
    <path class="cls-4" d="M538.57,137l-7.23-6,1.75,9.48a45.12,45.12,0,0,0,5.48-3.49Z"/>
    <path class="cls-3" d="M531.34,131l1.75,9.48-6.35-7.2A21.3,21.3,0,0,0,531.34,131Z"/>
    <path class="cls-2" d="M533.09,140.44l-6.35-7.2.29,9.66a39.74,39.74,0,0,0,6.06-2.46Z"/>
    <path class="cls-4" d="M526.74,133.24l.29,9.66-5.11-8.41A39.2,39.2,0,0,0,526.74,133.24Z"/>
    <path class="cls-3" d="M527,142.9l-5.11-8.41-3.55,9.61S524,144,527,142.9Z"/>
    <path class="cls-2" d="M521.92,134.49l-3.55,9.61-1.5-9.48a27.89,27.89,0,0,0,5-.13Z"/>
    <path class="cls-4" d="M518.37,144.1l-1.5-9.48L512,144l6.4.11Z"/>
    <path class="cls-3" d="M516.87,134.62,512,144l-2.12-9.37Z"/>
    <path class="cls-2" d="M509.85,134.62,512,144l-11.48-.19Z"/>
  </g>
</svg>
