<?xml version="1.0" encoding="UTF-8"?>
<svg width="141.753mm" height="21.2255mm" version="1.1" viewBox="0 0 141.753 21.2255" xmlns="http://www.w3.org/2000/svg">
	<g id="F" transform="translate(0 -.0356409)">
		<path d="m0 0.436912 3.36352 3.39466v-3.39466z" fill="#d5f"/>
		<path d="m3.36352 0.436912 3.39466 3.39466h-3.39466z" fill="#eaf"/>
		<path d="m3.36352 0.436912 3.39466 3.39466v-3.39466z" fill="#e580ff"/>
		<path d="m6.75818 0.436912v3.39466l3.39466-3.39466z" fill="#d5f"/>
		<path d="m10.1528 0.436912v3.39466h-3.39466z" fill="#eaf"/>
		<path d="m10.1528 0.436912 3.51923 3.39466h-3.51923z" fill="#e580ff"/>
		<g>
			<path d="m10.1528 0.436912h3.51923v3.39466z" fill="#d5f"/>
			<path d="m0.247559 20.7971 3.17665-3.17665v3.17665z" fill="#e580ff"/>
			<path d="m0.247559 20.7971 3.17665-3.17665h-3.17665z" fill="#eaf"/>
			<path d="m3.42421 17.6204v-3.7061h-3.17665z" fill="#e580ff"/>
			<path d="m3.42421 17.6204h-3.17665v-3.7061z" fill="#d5f"/>
			<path d="m0.247559 13.9143v-3.55038l3.17665 3.55038z" fill="#eaf"/>
			<path d="m3.42421 13.9143v-3.52806h-3.15668z" fill="#d5f"/>
			<path d="m3.42421 10.3862v3.52806l3.50344-3.50344z" fill="#e580ff"/>
			<path d="m6.92766 10.4109v3.50344h-3.50344z" fill="#eaf"/>
			<path d="m6.92766 10.4109 3.50344 3.50344h-3.50344z" fill="#d5f"/>
			<path d="m6.92766 10.4109 3.50344 3.50344v-3.47883z" fill="#e580ff"/>
			<path d="m10.4311 10.4355v3.47883h3.1148z" fill="#eaf"/>
			<path d="m10.4311 10.4355 3.1148 0.02188v3.45694z" fill="#d5f"/>
		</g>
	</g>
	<g id="R">
		<path d="m15.4497 0.283344 2.24623 3.69968v-3.65902z" fill="#d5f"/>
		<path d="m17.6959 0.324 3.65902 3.65902h-3.65902z" fill="#eaf"/>
		<path d="m17.6959 0.324 3.65902 3.65902v-3.59279z" fill="#e580ff"/>
		<path d="m21.3549 0.390228 3.61504 3.61503-3.61504-0.022251z" fill="#d5f"/>
		<path d="m21.3549 0.390228 3.61504 3.61503v-3.54961z" fill="#eaf"/>
		<path d="m24.9699 0.455657v3.54961l2.59576-2.50752s-1.18964-0.678402-2.59576-1.04209z" fill="#e580ff"/>
		<path d="m27.5657 1.49774-0.73388 3.28784s-1.30479-0.776893-1.86188-0.780322z" fill="#d5f"/>
		<path d="m27.5657 1.49774-0.73388 3.28784 2.83559-1.65359s-1.25936-1.21724-2.10171-1.63425z" fill="#eaf"/>
		<path d="m26.8318 4.78558 2.83559-1.65359-1.83659 2.80853s-0.550016-0.90538-0.998998-1.15494z" fill="#e580ff"/>
		<path d="m29.6674 3.132-1.83659 2.80853 3.18234-0.604737s-0.685606-1.60692-1.34575-2.20379z" fill="#d5f"/>
		<path d="m27.8308 5.94053 3.18234-0.604737-2.84064 1.9485s-0.06209-0.891582-0.341706-1.34376z" fill="#eaf"/>
		<path d="m31.0132 5.33579-2.84064 1.9485 3.08938 0.731078s0.110181-1.92789-0.248743-2.67958z" fill="#e580ff"/>
		<path d="m28.1725 7.28429 3.08938 0.731078-3.26647 0.624721s0.257974-0.750644 0.177085-1.3558z" fill="#d5f"/>
		<path d="m31.2619 8.01537-3.26647 0.624721 2.47228 1.96623s0.783383-1.55264 0.794181-2.59095z" fill="#eaf"/>
		<path d="m27.9954 8.64009 2.47228 1.96623-3.15251-0.901925s0.538845-0.495983 0.680228-1.06431z" fill="#e580ff"/>
		<path d="m30.4677 10.6063-3.15251-0.901925 1.06216 3.13425s1.58923-1.06847 2.09035-2.23232z" fill="#d5f"/>
		<path d="m27.3152 9.70439 1.06216 3.13425-2.02842-2.47518s0.562692-0.180228 0.966258-0.659063z" fill="#eaf"/>
		<path d="m28.3774 12.8386-2.02842-2.47518 0.72826 3.13302s0.422151 0.03144 1.30016-0.657839z" fill="#e580ff"/>
		<path d="m27.0772 13.4965-2.97296-2.68667s1.51519 0.0031 2.2447-0.446353z" fill="#d5f"/>
		<path d="m27.0772 13.4965-2.97296-2.68667v2.90689z" fill="#eaf"/>
		<path d="m24.1043 10.8098-0.859267 2.95684 0.859267-0.04996z" fill="#e580ff"/>
		<path d="m24.1043 10.8098h-2.57656l1.7173 2.95684z" fill="#d5f"/>
		<path d="m23.245 13.7667 1.49979 2.58234h3.94547z" fill="#eaf"/>
		<path d="m28.6902 16.349 1.05592 1.8673h-3.9242z" fill="#d5f"/>
		<path d="m25.822 18.2163 5.43941 2.67953-1.51521-2.67953z" fill="#eaf"/>
		<path d="m25.822 18.2163 1.56356 2.67953h3.87585z" fill="#e580ff"/>
		<path d="m25.822 18.2163 2.86828-1.8673h-3.94547z" fill="#e580ff"/>
		<path d="m28.6902 16.349-5.44526-2.58234 3.83222-0.270176z" fill="#d5f"/>
	</g>
	<g id="O">
		<path d="m36.7146 10.6725-3.02472 0.09381s0.154106 1.51915 0.434398 2.98291z" fill="#eaf"/>
		<path d="m36.7146 10.6725-2.59032 3.07672 3.14876-0.360757s-0.651872-1.40793-0.558443-2.71596z" fill="#d5f"/>
		<path d="m37.0075 8.7828-2.53961-1.92473s-0.660638 2.42248-0.777991 3.90821z" fill="#d5f"/>
		<path d="m37.0075 8.7828-3.3176 1.98348 3.02472-0.09381s-0.14361-0.653076 0.292884-1.88967z" fill="#e580ff"/>
		<path d="m37.7813 6.98693-1.96019-2.51234s-0.858252 0.977714-1.35319 2.38348z" fill="#e580ff"/>
		<path d="m37.7813 6.98693-3.31338-0.12886 2.54507 1.87995s0.02892-0.668057 0.768316-1.75109z" fill="#eaf"/>
		<path d="m38.9747 5.49924-1.20348-2.95056s-1.0917 0.707609-1.95012 1.92591z" fill="#eaf"/>
		<path d="m38.9747 5.49924-3.1536-1.02465 1.93824 2.50097s0.209412-0.635045 1.21537-1.47632z" fill="#d5f"/>
		<path d="m40.5461 4.40956-0.354761-3.16675s-1.24311 0.383675-2.40077 1.32226z" fill="#d5f"/>
		<path d="m40.5461 4.40956-2.75554-1.84449 1.18416 2.93417s0.374388-0.554045 1.57138-1.08968z" fill="#e580ff"/>
		<path d="m42.3508 3.77735 0.500771-3.14697s-1.30038 0.03903-2.66608 0.635688z" fill="#e580ff"/>
		<path d="m42.3508 3.77735-2.16531-2.51128 0.360614 3.14349s0.508331-0.434435 1.8047-0.632211z" fill="#eaf"/>
		<path d="m44.2382 3.64239 1.35124-2.88588s-1.2605-0.32199-2.73792-0.12613z" fill="#e580ff"/>
		<path d="m44.2382 3.64239-1.38668-3.01201-0.522465 3.12067s0.608621-0.276974 1.90914-0.108659z" fill="#d5f"/>
		<path d="m46.0946 4.10142 2.14201-2.35923s-1.10954-0.679299-2.57904-0.927729z" fill="#eaf"/>
		<path d="m46.0946 4.10142-0.437028-3.28696-1.41929 2.82793s0.663229-0.08523 1.85632 0.459028z" fill="#d5f"/>
		<path d="m47.7773 5.02611 2.69563-1.69934s-0.887061-0.951651-2.23634-1.58458z" fill="#d5f"/>
		<path d="m47.7773 5.02611 0.459293-3.28393-2.12485 2.34449s0.661823 0.09552 1.66556 0.939441z" fill="#e580ff"/>
		<path d="m49.1502 6.36741 3.05249-0.914604s-0.599514-1.1546-1.72976-2.12604z" fill="#e580ff"/>
		<path d="m49.1502 6.36741 1.32273-3.04064-2.67552 1.68913s0.612002 0.269422 1.35279 1.35151z" fill="#eaf"/>
		<path d="m50.1279 8.03943 3.18553-0.08098s-0.275302-1.2715-1.11081-2.50564z" fill="#eaf"/>
		<path d="m50.1279 8.03943 2.07473-2.58662-3.02517 0.927328s0.519782 0.420669 0.950447 1.6593z" fill="#d5f"/>
		<path d="m50.5721 9.82396 3.06955 0.855596s0.10919-1.29638-0.3282-2.7211z" fill="#d5f"/>
		<path d="m50.5721 9.82396 2.74135-1.86551-3.16411 5.29e-4s0.373775 0.554464 0.422762 1.86492z" fill="#e580ff"/>
		<path d="m50.4614 11.733 2.71217 1.67282s0.464212-1.21533 0.438825-2.70546z" fill="#e580ff"/>
		<path d="m50.4614 11.733 3.15099-1.03265-3.04032-0.876379s0.20546 0.636336-0.110672 1.90903z" fill="#eaf"/>
		<path d="m49.8627 13.5879 2.18694 2.31765s0.762881-1.05382 1.12395-2.49977z" fill="#eaf"/>
		<path d="m49.8627 13.5879 3.31088-0.182126-2.71-1.63324s0.0338 0.667827-0.60088 1.81537z" fill="#d5f"/>
		<path d="m48.7959 15.1749 1.48327 2.8203s1.01812-0.809903 1.75466-2.10553z" fill="#d5f"/>
		<path d="m48.7959 15.1749 3.23794 0.714766-2.17109-2.30174s-0.146997 0.652325-1.06685 1.58697z" fill="#e580ff"/>
		<path d="m47.3773 16.513 0.564118 3.13623s1.21491-0.46532 2.30774-1.47866z" fill="#e580ff"/>
		<path d="m47.3773 16.513 2.87186 1.65757-1.37626-2.84913s-0.336798 0.57767-1.4956 1.19156z" fill="#eaf"/>
		<path d="m45.6134 17.288-0.289666 3.17336s1.29488-0.125711 2.61772-0.812178z" fill="#eaf"/>
		<path d="m45.6134 17.288 2.32807 2.36119-0.569579-3.11242s-0.478208 0.467387-1.75849 0.751235z" fill="#d5f"/>
		<path d="m43.6982 17.5713-1.11359 2.98565s1.28239 0.219067 2.73916-0.09555z" fill="#d5f"/>
		<path d="m43.6982 17.5713 1.62556 2.8901 0.268552-3.1527s-0.584247 0.325255-1.89412 0.262593z" fill="#e580ff"/>
		<path d="m41.771 17.3424-1.85537 2.59071s1.18053 0.54669 2.66888 0.623837z" fill="#e580ff"/>
		<path d="m41.771 17.3424 0.813517 3.21455 1.08338-2.97286s-0.648957 0.16121-1.8969-0.241692z" fill="#eaf"/>
		<path d="m40.0026 16.6183-2.48732 1.99184s0.988497 0.845804 2.40042 1.32291z" fill="#eaf"/>
		<path d="m40.0026 16.6183-0.0869 3.31475 1.84758-2.56866s-0.668367-0.02045-1.76068-0.746085z" fill="#d5f"/>
		<path d="m38.542 15.4573-2.95137 1.2015s0.706877 1.09217 1.92461 1.95141z" fill="#d5f"/>
		<path d="m38.542 15.4573-1.02676 3.15292 2.50226-1.93656s-0.634905-0.209839-1.4755-1.21636z" fill="#e580ff"/>
		<path d="m37.2731 13.3884-3.14876 0.360757s0.544896 1.68806 1.46951 2.85692z" fill="#e580ff"/>
		<path d="m37.2731 13.3884-1.67925 3.21767 2.94818-1.14884s-0.74771-0.8655-1.26893-2.06883z" fill="#eaf"/>
	</g>
	<g transform="translate(38.9821 .0811579)">
		<path d="m16.2359 0.473304v5.35671l2.81588-2.81587z" fill="#d5f"/>
		<path d="m19.0518 3.01414-2.81588 2.81587 5.45494-0.434581z" fill="#e580ff"/>
		<path d="m16.2359 5.83001 2.68108 2.36796 2.77386-2.80254z" fill="#eaf"/>
		<path d="m21.6908 5.39543-0.373867 4.92224-2.39999-2.1197z" fill="#d5f"/>
		<path d="m21.6908 5.39543 2.30816 2.08271-2.68203 2.83953z" fill="#e580ff"/>
		<path d="m23.999 7.47815-2.68203 2.83953 4.80639-0.922665z" fill="#eaf"/>
		<path d="m26.1234 9.39501-4.80639 0.922665 2.34546 2.07154z" fill="#d5f"/>
		<path d="m26.1234 9.39501-0.873275 4.39644-1.58765-1.40223z" fill="#e580ff"/>
		<path d="m26.1234 9.39501-0.873275 4.39644 2.65558-2.78822z" fill="#eaf"/>
		<path d="m25.2501 13.7914 4.37759-1.2344-1.72202-1.55382z" fill="#d5f"/>
		<path d="m29.6277 12.557-2.17734 3.17769-2.20026-1.9433z" fill="#e580ff"/>
		<path d="m27.4503 15.7347 3.45423-0.655055-1.27689-2.52264z" fill="#eaf"/>
		<path d="m29.6277 12.557 1.27689 2.52264 2.39806-2.30463z" fill="#d5f"/>
		<path d="m30.9046 15.0797 2.39806 1.27689v-3.58152z" fill="#e580ff"/>
		<path d="m30.9046 15.0797-3.45423 0.655055 2.24866 1.98604z" fill="#d5f"/>
		<path d="m30.9046 15.0797-1.20557 2.6411 3.60363-1.36421z" fill="#eaf"/>
		<path d="m31.649 16.9826 1.65365 3.92096v-4.54697z" fill="#e580ff"/>
		<path d="m31.649 16.9826-1.94998 0.738193 3.60363 3.18276z" fill="#d5f"/>
		<path d="m29.6277 12.557 3.67495-1.83084v2.04885z" fill="#eaf"/>
		<path d="m29.6277 8.32582 3.67495 2.40038h-3.67495z" fill="#d5f"/>
		<path d="m29.6277 10.7262v1.83084l3.67495-1.83084z" fill="#e580ff"/>
		<path d="m33.3026 10.7262-3.67495-2.40038h3.67495z" fill="#eaf"/>
		<path d="m29.6277 8.32582 3.67495-2.26826v2.26826z" fill="#e580ff"/>
		<path d="m29.6277 8.32582 3.67495-2.26826h-3.67495z" fill="#d5f"/>
		<path d="m29.6277 6.05756h3.67495l-3.67495-2.70869z" fill="#eaf"/>
		<path d="m29.6277 3.34887h3.67495v2.70869z" fill="#e580ff"/>
		<path d="m29.6277 3.34887 3.67495-3.06243v3.06243z" fill="#d5f"/>
		<path d="m29.6277 3.34887v-3.06243h3.67495z" fill="#eaf"/>
	</g>
	<g id="T">
		<path d="m75.2486 21.2255 3.67495-3.67495v3.67495z" fill="#d5f"/>
		<path d="m75.2486 21.2255 3.67495-3.67495h-3.67495z" fill="#eaf"/>
		<path d="m75.2486 17.5506h3.67495l-3.67495-3.67495z" fill="#e580ff"/>
		<path d="m75.2486 13.8756h3.67495v3.67495z" fill="#d5f"/>
		<path d="m78.9236 13.8756h-3.67495l3.67495-3.67495z" fill="#eaf"/>
		<path d="m78.9236 10.2007h-3.67495v3.67495z" fill="#e580ff"/>
		<path d="m78.9236 10.2007-3.67495-3.67495v3.67495z" fill="#d5f"/>
		<path d="m75.2486 6.52573h3.67495v3.67495z" fill="#eaf"/>
		<path d="m75.2486 6.52573 3.67495-2.2112v2.2112z" fill="#e580ff"/>
		<path d="m78.9236 4.31452h-3.67495v2.2112z" fill="#d5f"/>
		<path d="m75.2486 0.79529 3.57773 3.57773-3.57773-0.058497z" fill="#eaf"/>
		<path d="m75.2486 0.79529 3.57773 3.57773v-3.56689z" fill="#e580ff"/>
		<path d="m78.8264 0.806133v3.56689l3.55611-3.55611z" fill="#d5f"/>
		<path d="m82.3825 0.816909v3.49761h-3.45889z" fill="#eaf"/>
		<path d="m82.3825 0.816909 3.14357 3.49761h-3.14357z" fill="#e580ff"/>
		<path d="m82.3825 0.816909 3.14357 0.00953v3.48809z" fill="#d5f"/>
	</g>
	<g id="E" transform="translate(89.2818 -6.7e-6)">
		<path d="m0.093433 0.626637 3.36352 3.39466v-3.39466z" fill="#d5f"/>
		<path d="m3.45695 0.626637 3.39466 3.39466h-3.39466z" fill="#eaf"/>
		<path d="m3.45695 0.626637 3.39466 3.39466v-3.39466z" fill="#e580ff"/>
		<path d="m6.85161 0.626637v3.39466l3.39466-3.39466z" fill="#d5f"/>
		<path d="m10.2463 0.626637v3.39466h-3.39466z" fill="#e580ff"/>
		<path d="m10.2463 0.626637 3.51923 3.39466h-3.51923z" fill="#eaf"/>
		<path d="m10.2463 0.626637h3.51923v3.39466z" fill="#d5f"/>
		<path d="m0.124577 8.94199 3.58152 3.58152h-3.58152z" fill="#d5f"/>
		<path d="m0.124577 8.94199 3.58152 3.58152v-3.56513z" fill="#e580ff"/>
		<path d="m3.7061 8.95838v3.56513l3.54889-3.54889z" fill="#eaf"/>
		<path d="m7.25499 8.97463v3.54889h-3.54889z" fill="#d5f"/>
		<path d="m7.25499 8.97463 3.54889 3.54889h-3.54889z" fill="#e580ff"/>
		<path d="m7.25499 8.97463 3.54889 3.54889v-3.53265z" fill="#eaf"/>
		<path d="m10.8039 8.99087v3.53265l2.93048-3.51923z" fill="#d5f"/>
		<path d="m13.7344 9.00428v3.51923h-2.93048z" fill="#e580ff"/>
		<path d="m3.55038 17.5688v3.37157l-3.55038-8e-3z" fill="#d5f"/>
		<path d="m3.55038 17.5688 3.37923 3.37923-3.37923-0.0077z" fill="#eaf"/>
		<path d="m3.55038 17.5688 3.37923 3.37923v-3.3689z" fill="#e580ff"/>
		<path d="m6.92961 20.948 3.35862-3.35862-3.35862-0.01027z" fill="#d5f"/>
		<path d="m10.2882 17.5894v3.36624l-3.35862-0.0076z" fill="#e580ff"/>
		<path d="m10.2882 17.5894 3.44613 3.37405-3.44613-0.0078z" fill="#eaf"/>
		<path d="m10.2882 17.5894 3.44613 0.01053v3.36352z" fill="#d5f"/>
	</g>
	<g id="D" transform="translate(60.4506 -131.665)">
		<path d="m67.6441 135.029v-3.32949l-3.36352 0.0283z" fill="#d5f"/>
		<path d="m67.6441 135.029 2.61552-3.35147-2.61552 0.022z" fill="#e580ff"/>
		<path d="m70.2596 131.677-2.61552 3.35147 2.72406 0.0454z" fill="#eaf"/>
		<path d="m70.2596 131.677 1.53916 3.46439-1.43062-0.0675z" fill="#d5f"/>
		<path d="m70.2596 131.677 1.43316-0.012 0.106003 3.47644z" fill="#e580ff"/>
		<path d="m71.6928 131.665s1.36195 0.24081 2.19747 0.5552l-2.09147 2.92124z" fill="#eaf"/>
		<path d="m71.7988 135.141 2.09147-2.92124-0.244716 3.41159s-1.22299-0.46091-1.84675-0.49035z" fill="#d5f"/>
		<path d="m73.8903 132.22-0.244716 3.41159 2.5308-2.39649s-1.42663-0.89827-2.28608-1.0151z" fill="#e580ff"/>
		<path d="m76.1764 133.235-2.5308 2.39649s1.50939 0.58188 1.631 0.84453z" fill="#eaf"/>
		<path d="m75.2766 136.476 0.899795-3.24102s1.34345 0.56792 1.87911 1.31293z" fill="#d5f"/>
		<path d="m75.2766 136.476 2.7789-1.92809-1.58819 2.97906s-0.46656-0.61519-1.19071-1.05097z" fill="#e580ff"/>
		<path d="m78.0555 134.548-1.58819 2.97906 3.23295-1.13113s-0.868116-1.23517-1.64476-1.84793z" fill="#eaf"/>
		<path d="m79.7002 136.396-3.23295 1.13113s0.659263 0.7863 0.898441 1.38145z" fill="#d5f"/>
		<path d="m79.7002 136.396-2.33451 2.51258 3.47221-0.11797s-0.683379-1.79553-1.1377-2.39461z" fill="#e580ff"/>
		<path d="m77.3657 138.909 3.47221-0.11797-3.01322 1.51998s0.0114-0.57355-0.458994-1.40201z" fill="#d5f"/>
		<path d="m80.8379 138.791-3.01322 1.51998 3.42009 0.63839s-0.167436-1.47287-0.406876-2.15837z" fill="#eaf"/>
		<path d="m77.8247 140.311 3.42009 0.63839-3.2613 1.07152s0.04024-0.85007-0.15879-1.70991z" fill="#e580ff"/>
		<path d="m81.2448 140.949-3.2613 1.07152 3.24726 1.07484s0.151275-1.10084 0.01405-2.14636z" fill="#eaf"/>
		<path d="m77.9835 142.021 3.24726 1.07484-3.40952 0.50259s0.196892-0.71101 0.162258-1.57743z" fill="#d5f"/>
		<path d="m81.2308 143.096-3.40952 0.50259 2.89679 1.86762s0.459822-1.40512 0.51273-2.37021z" fill="#e580ff"/>
		<path d="m77.8212 143.598 2.89679 1.86762-3.47205-0.23328s0.479512-1.0625 0.575262-1.63434z" fill="#eaf"/>
		<path d="m80.718 145.466-3.47205-0.23328 2.20569 2.61084s0.976011-1.37774 1.26636-2.37756z" fill="#d5f"/>
		<path d="m77.246 145.232 2.20569 2.61084-3.12622-1.31249s0.670602-0.70022 0.920528-1.29835z" fill="#e580ff"/>
		<path d="m79.4517 147.843-3.12622-1.31249 1.38791 3.08541s1.18294-0.90677 1.73831-1.77292z" fill="#eaf"/>
		<path d="m76.3255 146.531 1.38791 3.08541-2.55182-2.11301s0.852929-0.61275 1.16392-0.9724z" fill="#d5f"/>
		<path d="m77.7134 149.616-2.55182-2.11301 0.616812 3.34306s1.3641-0.74407 1.93501-1.23005z" fill="#e580ff"/>
		<path d="m75.1615 147.503 0.616812 3.34306-2.23798-2.53843s1.00938-0.35224 1.62117-0.80463z" fill="#eaf"/>
		<path d="m75.7783 150.846-2.23798-2.53843 0.101177 3.40535s1.38054-0.43244 2.1368-0.86692z" fill="#d5f"/>
		<path d="m73.5404 148.308 0.101177 3.40535-1.80397-2.96676s1.20665-0.24 1.7028-0.43859z" fill="#e580ff"/>
		<path d="m73.6415 151.713-1.80397-2.96676-1.24978 3.39168s1.9876-0.044 3.05376-0.42492z" fill="#eaf"/>
		<path d="m71.8376 148.746-1.24978 3.39168-0.530027-3.34406s1.16043 0.0712 1.77981-0.0476z" fill="#d5f"/>
		<path d="m70.5878 152.138-0.530027-3.34406-1.7283 3.30642s1.41846 0.0236 2.25833 0.0376z" fill="#e580ff"/>
		<path d="m70.0578 148.794-1.7283 3.30642-0.74762-3.30642z" fill="#eaf"/>
		<path d="m67.5818 148.794 0.74762 3.30642-4.04885-0.0675z" fill="#d5f"/>
	</g>
	<g transform="translate(88.8391 -.0095566)">
		<path d="m16.2359 0.473304v5.35671l2.81588-2.81587z" fill="#d5f"/>
		<path d="m19.0518 3.01414-2.81588 2.81587 5.45494-0.434581z" fill="#e580ff"/>
		<path d="m16.2359 5.83001 2.68108 2.36796 2.77386-2.80254z" fill="#eaf"/>
		<path d="m21.6908 5.39543-0.373867 4.92224-2.39999-2.1197z" fill="#d5f"/>
		<path d="m21.6908 5.39543 2.30816 2.08271-2.68203 2.83953z" fill="#e580ff"/>
		<path d="m23.999 7.47815-2.68203 2.83953 4.80639-0.922665z" fill="#eaf"/>
		<path d="m26.1234 9.39501-4.80639 0.922665 2.34546 2.07154z" fill="#d5f"/>
		<path d="m26.1234 9.39501-0.873275 4.39644-1.58765-1.40223z" fill="#e580ff"/>
		<path d="m26.1234 9.39501-0.873275 4.39644 2.65558-2.78822z" fill="#eaf"/>
		<path d="m25.2501 13.7914 4.37759-1.2344-1.72202-1.55382z" fill="#d5f"/>
		<path d="m29.6277 12.557-2.17734 3.17769-2.20026-1.9433z" fill="#e580ff"/>
		<path d="m27.4503 15.7347 3.45423-0.655055-1.27689-2.52264z" fill="#eaf"/>
		<path d="m29.6277 12.557 1.27689 2.52264 2.39806-2.30463z" fill="#d5f"/>
		<path d="m30.9046 15.0797 2.39806 1.27689v-3.58152z" fill="#e580ff"/>
		<path d="m30.9046 15.0797-3.45423 0.655055 2.24866 1.98604z" fill="#d5f"/>
		<path d="m30.9046 15.0797-1.20557 2.6411 3.60363-1.36421z" fill="#eaf"/>
		<path d="m31.649 16.9826 1.65365 3.92096v-4.54697z" fill="#e580ff"/>
		<path d="m31.649 16.9826-1.94998 0.738193 3.60363 3.18276z" fill="#d5f"/>
		<path d="m29.6277 12.557 3.67495-1.83084v2.04885z" fill="#eaf"/>
		<path d="m29.6277 8.32582 3.67495 2.40038h-3.67495z" fill="#d5f"/>
		<path d="m29.6277 10.7262v1.83084l3.67495-1.83084z" fill="#e580ff"/>
		<path d="m33.3026 10.7262-3.67495-2.40038h3.67495z" fill="#eaf"/>
		<path d="m29.6277 8.32582 3.67495-2.26826v2.26826z" fill="#e580ff"/>
		<path d="m29.6277 8.32582 3.67495-2.26826h-3.67495z" fill="#d5f"/>
		<path d="m29.6277 6.05756h3.67495l-3.67495-2.70869z" fill="#eaf"/>
		<path d="m29.6277 3.34887h3.67495v2.70869z" fill="#e580ff"/>
		<path d="m29.6277 3.34887 3.67495-3.06243v3.06243z" fill="#d5f"/>
		<path d="m29.6277 3.34887v-3.06243h3.67495z" fill="#eaf"/>
	</g>
</svg>
