<?xml version="1.0" encoding="utf-8"?>
<!-- Generator: Adobe Illustrator 22.0.0, SVG Export Plug-In . SVG Version: 6.00 Build 0)  -->
<svg version="1.1" id="Layer_1" xmlns="http://www.w3.org/2000/svg" xmlns:xlink="http://www.w3.org/1999/xlink" x="0px" y="0px"
	 viewBox="0 0 307 333" style="enable-background:new 0 0 307 333;" xml:space="preserve">
<style type="text/css">
	.st0{fill:url(#hole_1_);}
	.st1{fill:url(#SVGID_1_);}
	.st2{fill:url(#SVGID_2_);}
	.st3{fill:url(#SVGID_3_);}
	.st4{fill:url(#SVGID_4_);}
	.st5{fill:url(#SVGID_5_);}
	.st6{fill:url(#SVGID_6_);}
	.st7{fill:url(#SVGID_7_);}
</style>
<g id="wormhole">
	
		<linearGradient id="hole_1_" gradientUnits="userSpaceOnUse" x1="265.975" y1="171.0447" x2="40.0399" y2="396.9797" gradientTransform="matrix(1 0 0 -1 0 450.5197)">
		<stop  offset="0" style="stop-color:#1B1464"/>
		<stop  offset="1" style="stop-color:#000000"/>
	</linearGradient>
	<path id="hole" class="st0" d="M306,166.4c1.3,6,1.5,6-0.2,7.6c1.7-1.6,0.9-1.5-0.5,7.5c1.3-9.1,0.3-5.3-0.8,7.4
		c0.9-11.7-0.7,4.9-1.1,7.3c-0.1,0.6-0.3,1.4-0.4,2.3s-0.4,1.8-0.5,2.6c-0.3,1.6-0.6,2.8-0.4,2.4c-0.6,2.4-5.2,18.8-1.7,7.1
		c-3.5,12.2-3.5,12.2,0.1,0c-3.7,12.3-4.1,13.8-1.7,6.1c-2.4,7.7-2.4,7.7-0.2,0.8c-2.2,6.8-2.2,6.8-0.7,2.1l-1.5,4.7v-0.3
		c0,0.3,0,0.3-2.5,7c2.5-6.7,2.5-6.7-0.5,1.1c3-7.8,2.7-6.9-1.9,4.8c4.6-11.7,2.5-6.5-1.3,2.9c3.6-8.9,0.7-1.7-1.4,2.9
		c1.4-3.3-0.3,0.5-1.4,2.8c0.2-0.6-1,1.9-1.5,2.8s-1,1.8-1.5,2.8s-1,1.8-1.5,2.7c-1.1,1.9-6.3,9.8-3.2,5.4c-4.1,5.9-5.9,8.4-3.5,5.2
		c-2.5,3.5-2.6,3.6-3.7,5c0.5-0.6,0.6-0.8,0,0s-5.3,6.9-3.8,5c-1.7,2.1-1.2,1.5,0.4-0.5c-1.5,2-8.3,9.4-4.5,5.7
		c-5,5.1-4.3,4.5,0.3-0.3c-4.6,4.9-9.4,9.4-2.8,3.5c-6.7,6-5.3,4.7,1.5-1.9c-7.1,7-8.3,8-2.5,3.2c-5.8,4.8-5.9,4.8-1.1,0.9l-4.8,3.9
		l-0.8,0.5c0.8-0.5,0.7-0.4-5.3,4.1c6-4.5,3.9-2.9-3,2.3c6.3-4.8-2,1.5-3,2.3s-1.9,1.6-2.8,2.5s-1.8,1.7-2.7,2.7
		c-9.4,3.9-18,8.9-25.2,16.6c-10.4,0.5-21.1-1.1-29.4,6.2c-10.8-3.8-20.4,0-30.1,6.9c-10-6.9-19.2-13.7-30-8.1
		c-7.9-9.9-18.4-7.6-29.6-4.9c-5.9-10.6-12.3-18.9-23.7-19c-4.3-10.9-14.9-13-24.9-16.7c-3.2-10.7-8.5-19.3-16.7-26.1
		C25,248.1,17.5,240.4,12,231.3c-2.1-10.4-5.5-20.7-8.2-31.4C2.1,189.1,0.1,178,0,166.5c0-11.3,1.1-22.5,3.1-33.6
		c2-10.7,5-21.1,8.9-31.3c7.9-19.8,20.3-36.8,32.8-52.9c7.5-6.8,15.6-12.7,23.8-18.6c8.3-5.6,16.7-11.3,24.9-17.1
		c9.7-2.4,19.8-3.1,29.3-6.6c10.1-0.7,20-4.2,30.2-6.5c10.2,2.4,20.1,5.9,30.2,6.5c9.6,3.5,19.7,4.2,29.3,6.5
		c8.2,5.8,16.5,11.5,24.8,17.1c8.1,5.9,16.3,11.8,23.8,18.6c10.8,14.1,21.7,28.9,29.6,45.6c1.1,2.4,2.9,6.8,3.2,7.3
		c0.7,1.8,1.7,4.7,2.3,6.5s0.9,2.5,0.2,0.2c1,3.2,3.4,11.8,2,6.4c1.8,6.8,2,7.6,0.2,0.5c1.8,7.3,2.7,11.3,0.8,2.6
		c2,9.1,2.7,11.6,1.2,4.4c1.5,7.3,1.5,7.3-0.1-0.2c1.6,7.6,1.8,7.5,1.8,7.3c0,0.2,0,0.2,0.1,1.2c-0.1-1,0-0.4,1.2,6
		c-1.2-6.5-1.1-5.3,0.6,3.7c-1.7-8.9-1.3-6.5,0.5,3.7c-1.8-10-1.2-6.6,0.3,2.8c-1.5-9-0.7-4.4,0.3,2.8c-0.8-6.3,0.1,2.5,0.3,5.7
		c-0.1,0.3,0.2,2.8,0.1-0.1c0.2,8.2,0.8,17.1,0.3,5.7C306.5,172.2,307.2,172.4,306,166.4z"/>
	<g id="stars">
		
			<linearGradient id="SVGID_1_" gradientUnits="userSpaceOnUse" x1="5991.5869" y1="-9718.2354" x2="6097.5469" y2="-9718.2354" gradientTransform="matrix(-5.000000e-02 0 0 5.000000e-02 450.7193 548.5168)">
			<stop  offset="0" style="stop-color:#FFFFFF"/>
			<stop  offset="1" style="stop-color:#FFFFFF"/>
		</linearGradient>
		<polygon class="st1" points="148.2,61.8 149,60 149.9,61.7 151.7,62.5 149.9,63.4 149.1,65.2 148.2,63.5 146.4,62.7 		"/>
		
			<linearGradient id="SVGID_2_" gradientUnits="userSpaceOnUse" x1="88.7399" y1="326.4846" x2="94.5099" y2="326.4846" gradientTransform="matrix(1 0 0 -1 0 450.5197)">
			<stop  offset="0" style="stop-color:#FFFFFF"/>
			<stop  offset="1" style="stop-color:#FFFFFF"/>
		</linearGradient>
		<polygon class="st2" points="92.6,125 91.7,126.9 90.7,125 88.7,124.1 90.7,123.1 91.5,121.2 92.5,123.1 94.5,124 		"/>
		
			<linearGradient id="SVGID_3_" gradientUnits="userSpaceOnUse" x1="207.84" y1="241.0096" x2="214.7399" y2="241.0096" gradientTransform="matrix(1 0 0 -1 0 450.5197)">
			<stop  offset="0" style="stop-color:#FFFFFF"/>
			<stop  offset="1" style="stop-color:#FFFFFF"/>
		</linearGradient>
		<polygon class="st3" points="212.4,210.6 211.4,213 210.2,210.7 207.8,209.6 210.1,208.4 211.2,206.1 212.4,208.4 214.7,209.4 		
			"/>
		
			<linearGradient id="SVGID_4_" gradientUnits="userSpaceOnUse" x1="207.84" y1="297.0096" x2="214.7399" y2="297.0096" gradientTransform="matrix(1 0 0 -1 0 450.5197)">
			<stop  offset="0" style="stop-color:#FFFFFF"/>
			<stop  offset="1" style="stop-color:#FFFFFF"/>
		</linearGradient>
		<polygon class="st4" points="212.4,154.6 211.4,157 210.2,154.7 207.8,153.6 210.1,152.4 211.2,150.1 212.4,152.4 214.7,153.4 		
			"/>
		
			<linearGradient id="SVGID_5_" gradientUnits="userSpaceOnUse" x1="167.84" y1="293.0096" x2="174.7399" y2="293.0096" gradientTransform="matrix(1 0 0 -1 0 450.5197)">
			<stop  offset="0" style="stop-color:#FFFFFF"/>
			<stop  offset="1" style="stop-color:#FFFFFF"/>
		</linearGradient>
		<polygon class="st5" points="172.4,158.6 171.4,161 170.2,158.7 167.8,157.6 170.1,156.4 171.2,154.1 172.4,156.4 174.7,157.4 		
			"/>
		
			<linearGradient id="SVGID_6_" gradientUnits="userSpaceOnUse" x1="82.3799" y1="245.5396" x2="89.78" y2="245.5396" gradientTransform="matrix(1 0 0 -1 0 450.5197)">
			<stop  offset="0" style="stop-color:#FFFFFF"/>
			<stop  offset="1" style="stop-color:#FFFFFF"/>
		</linearGradient>
		<polygon class="st6" points="87.3,206.2 86.2,208.7 84.9,206.2 82.4,205.1 84.8,203.8 86,201.3 87.2,203.8 89.8,204.9 		"/>
		
			<linearGradient id="SVGID_7_" gradientUnits="userSpaceOnUse" x1="145.21" y1="197.3596" x2="150.1899" y2="197.3596" gradientTransform="matrix(1 0 0 -1 0 450.5197)">
			<stop  offset="0" style="stop-color:#FFFFFF"/>
			<stop  offset="1" style="stop-color:#FFFFFF"/>
		</linearGradient>
		<polygon class="st7" points="148.5,254 147.8,255.7 146.9,254 145.2,253.2 146.9,252.4 147.6,250.7 148.5,252.3 150.2,253.1 		"/>
	</g>
</g>
</svg>
