<?xml version="1.0" encoding="utf-8"?>
<!-- Generator: Adobe Illustrator 22.0.0, SVG Export Plug-In . SVG Version: 6.00 Build 0)  -->
<svg version="1.1"
	 id="Layer_1" inkscape:version="0.92.2 (5c3e80d, 2017-08-06)" sodipodi:docname="galaxy.svg" xmlns:cc="http://creativecommons.org/ns#" xmlns:dc="http://purl.org/dc/elements/1.1/" xmlns:inkscape="http://www.inkscape.org/namespaces/inkscape" xmlns:rdf="http://www.w3.org/1999/02/22-rdf-syntax-ns#" xmlns:sodipodi="http://sodipodi.sourceforge.net/DTD/sodipodi-0.dtd" xmlns:svg="http://www.w3.org/2000/svg"
	 xmlns="http://www.w3.org/2000/svg" xmlns:xlink="http://www.w3.org/1999/xlink" x="0px" y="0px" viewBox="0 0 255 256.7"
	 style="enable-background:new 0 0 255 256.7;" xml:space="preserve">
<style type="text/css">
	.st0{fill:url(#hole_1_);stroke:url(#hole_3_);stroke-width:13.6837;stroke-linejoin:round;stroke-opacity:0.9849;}
	.st1{fill:url(#polygon15_1_);}
	.st2{fill:url(#polygon22_1_);}
	.st3{fill:url(#polygon29_1_);}
	.st4{fill:url(#polygon36_1_);}
	.st5{fill:url(#polygon43_1_);}
	.st6{fill:url(#polygon50_1_);}
	.st7{fill:url(#polygon57_1_);}
	.st8{fill:url(#polygon15-8_1_);}
	.st9{fill:url(#polygon22-1_1_);}
	.st10{fill:url(#polygon29-2_1_);}
	.st11{fill:url(#polygon36-9_1_);}
	.st12{fill:url(#polygon43-8_1_);}
	.st13{fill:url(#polygon50-7_1_);}
	.st14{fill:url(#polygon57-4_1_);}
	.st15{fill:url(#polygon15-84_1_);}
	.st16{fill:url(#polygon22-4_1_);}
	.st17{fill:url(#polygon29-27_1_);}
	.st18{fill:url(#polygon36-6_1_);}
	.st19{fill:url(#polygon43-4_1_);}
	.st20{fill:url(#polygon50-6_1_);}
	.st21{fill:url(#polygon57-0_1_);}
	.st22{fill:url(#polygon15-848_1_);}
	.st23{fill:url(#polygon22-7_1_);}
	.st24{fill:url(#polygon29-8_1_);}
	.st25{fill:url(#polygon36-1_1_);}
	.st26{fill:url(#polygon43-1_1_);}
	.st27{fill:url(#polygon50-72_1_);}
	.st28{fill:url(#polygon57-9_1_);}
</style>
<sodipodi:namedview  bordercolor="#666666" borderopacity="1" gridtolerance="10" guidetolerance="10" id="namedview62" inkscape:current-layer="wormhole" inkscape:cx="226.74873" inkscape:cy="129.81501" inkscape:lockguides="false" inkscape:pageopacity="0" inkscape:pageshadow="2" inkscape:window-height="657" inkscape:window-maximized="1" inkscape:window-width="1280" inkscape:window-x="-8" inkscape:window-y="-8" inkscape:zoom="1.0022655" objecttolerance="10" pagecolor="#ffffff" showgrid="false">
	</sodipodi:namedview>
<g id="wormhole" transform="translate(16.376052,-34.145739)">
	
		<radialGradient id="hole_1_" cx="-452.7656" cy="1017.2948" r="153.5125" gradientTransform="matrix(-0.5372 1.2313 0.9144 0.4052 -1100.9497 225.5013)" gradientUnits="userSpaceOnUse">
		<stop  offset="0" style="stop-color:#1B1464"/>
		<stop  offset="8.096418e-02" style="stop-color:#2A1145"/>
		<stop  offset="0.7111" style="stop-color:#240D5B"/>
		<stop  offset="1" style="stop-color:#000000"/>
	</radialGradient>
	
		<radialGradient id="hole_3_" cx="-20.3595" cy="139.1113" r="160.3625" gradientTransform="matrix(1.3925 -1.016140e-02 -7.663270e-03 -1.0666 136.6703 310.3059)" gradientUnits="userSpaceOnUse">
		<stop  offset="0" style="stop-color:#6D1464"/>
		<stop  offset="1" style="stop-color:#00453B;stop-opacity:0.6588"/>
	</radialGradient>
	<path id="hole" inkscape:connector-curvature="0" sodipodi:nodetypes="cccccccccccccccccccccccccccccccccccccc" class="st0" d="
		M228.3,128.4c-8.8-4.2-11.7-14.7-6.9-19.8c-7.1-3.8-9.5-15.3-6.1-19.4c-8.2-3.4-13.6-4.7-15.1-11.3c-6.4,0.3-13-9.5-11.1-16.7
		c-9,1-17.9-5.4-18-12.2c-6.6,3.7-14.3,4.4-17.9-4.7c-5.8,6.4-21.4,8-24.1-2.9c-6,5.9-19.7,10.4-25.1-0.2c-5,5.2-14.9,5.7-20.9,1.4
		c-5.9,7.1-11.1,11-27.8,4.7C53.6,62.8,44.1,60.7,36.2,59c-3.8,10.5-9.3,15.4-16.7,15.9C19,79.3,14.7,91.8,7.6,93.5
		c2.3,10.2-3.5,14.9-9.6,19c0.7,6.1-1,13.6-6.5,18.6c3,13.9,4.7,7.2-1.1,21.8c2.8,5.8,7.3,11.6,2.2,20.5c2.9,7.2,6.1,11,3.4,22.6
		c0.1,8.4,12.4,11.3,7.8,20.7c4.5,3.5,14.3,9.3,10.7,17.3c7.6,3.8,7.1,6.1,9.3,13.5c8.5,1.7,10.4,4.2,12.7,12
		c7.3,2.7,16.1,0.2,19.2,8.2c8.3,0.1,11.9,4.7,16.2,12.5c8.2-2,15.8-7.3,21.6-0.1c7.9-4.1,13.5-1.3,20.8,3.8
		c7.1-5.1,11.5-7.9,19.4-5.1c6.1-5.4,8.8-4.2,16.3-4.6c5.2-5.7,6-6,12.1-4.3c5.2-7.6,9.7-11.8,19.9-8.4c2.8-7.3,2.1-10.9,15.5-14.1
		c0.3-16.3,0-13.1,15.4-12.7c-2.5-14.9-3.9-16,8.9-23c-6.3-16-8.1-14-3.1-17.5c-4.7-6.6-0.2-8.2,11.1-18c-8.5-11.6-11.3-12.2,1.7-25
		C219.2,138.6,225.4,140.6,228.3,128.4z"/>
	<g id="stars" transform="matrix(0.72891638,0,0,0.73458964,-34.082391,33.358853)">
		
			<linearGradient id="polygon15_1_" gradientUnits="userSpaceOnUse" x1="-13369.6504" y1="4516.3926" x2="-13263.6504" y2="4516.3926" gradientTransform="matrix(-3.644582e-02 0 0 -3.672948e-02 -336.1278 228.4847)">
			<stop  offset="0" style="stop-color:#FFFFFF"/>
			<stop  offset="1" style="stop-color:#FFFFFF"/>
		</linearGradient>
		<polygon id="polygon15" class="st1" points="148.2,63.5 146.4,62.7 148.2,61.8 149,60 149.9,61.7 151.7,62.5 149.9,63.4 
			149.1,65.2 		"/>
		
			<linearGradient id="polygon22_1_" gradientUnits="userSpaceOnUse" x1="428.6894" y1="727.0565" x2="434.4594" y2="727.0565" gradientTransform="matrix(0.7289 0 0 0.7346 -223.7387 -410.0382)">
			<stop  offset="0" style="stop-color:#FFFFFF"/>
			<stop  offset="1" style="stop-color:#FFFFFF"/>
		</linearGradient>
		<polygon id="polygon22" class="st2" points="92.5,123.1 94.5,124 92.6,125 91.7,126.9 90.7,125 88.7,124.1 90.7,123.1 91.5,121.2 
					"/>
		
			<linearGradient id="polygon29_1_" gradientUnits="userSpaceOnUse" x1="592.0829" y1="843.448" x2="598.9828" y2="843.448" gradientTransform="matrix(0.7289 0 0 0.7346 -223.7387 -410.0382)">
			<stop  offset="0" style="stop-color:#FFFFFF"/>
			<stop  offset="1" style="stop-color:#FFFFFF"/>
		</linearGradient>
		<polygon id="polygon29" class="st3" points="212.4,208.4 214.7,209.4 212.4,210.6 211.4,213 210.2,210.7 207.8,209.6 210.1,208.4 
			211.2,206.1 		"/>
		
			<linearGradient id="polygon36_1_" gradientUnits="userSpaceOnUse" x1="592.0829" y1="767.215" x2="598.9828" y2="767.215" gradientTransform="matrix(0.7289 0 0 0.7346 -223.7387 -410.0382)">
			<stop  offset="0" style="stop-color:#FFFFFF"/>
			<stop  offset="1" style="stop-color:#FFFFFF"/>
		</linearGradient>
		<polygon id="polygon36" class="st4" points="212.4,152.4 214.7,153.4 212.4,154.6 211.4,157 210.2,154.7 207.8,153.6 210.1,152.4 
			211.2,150.1 		"/>
		
			<linearGradient id="polygon43_1_" gradientUnits="userSpaceOnUse" x1="537.2068" y1="772.6602" x2="544.1069" y2="772.6602" gradientTransform="matrix(0.7289 0 0 0.7346 -223.7387 -410.0382)">
			<stop  offset="0" style="stop-color:#FFFFFF"/>
			<stop  offset="1" style="stop-color:#FFFFFF"/>
		</linearGradient>
		<polygon id="polygon43" class="st5" points="172.4,156.4 174.7,157.4 172.4,158.6 171.4,161 170.2,158.7 167.8,157.6 170.1,156.4 
			171.2,154.1 		"/>
		
			<linearGradient id="polygon50_1_" gradientUnits="userSpaceOnUse" x1="419.9641" y1="837.2541" x2="427.3641" y2="837.2541" gradientTransform="matrix(0.7289 0 0 0.7346 -223.7387 -410.0382)">
			<stop  offset="0" style="stop-color:#FFFFFF"/>
			<stop  offset="1" style="stop-color:#FFFFFF"/>
		</linearGradient>
		<polygon id="polygon50" class="st6" points="87.2,203.8 89.8,204.9 87.3,206.2 86.2,208.7 84.9,206.2 82.4,205.1 84.8,203.8 
			86,201.3 		"/>
		
			<linearGradient id="polygon57_1_" gradientUnits="userSpaceOnUse" x1="506.1608" y1="902.8689" x2="511.1407" y2="902.8689" gradientTransform="matrix(0.7289 0 0 0.7346 -223.7387 -410.0382)">
			<stop  offset="0" style="stop-color:#FFFFFF"/>
			<stop  offset="1" style="stop-color:#FFFFFF"/>
		</linearGradient>
		<polygon id="polygon57" class="st7" points="148.5,252.3 150.2,253.1 148.5,254 147.8,255.7 146.9,254 145.2,253.2 146.9,252.4 
			147.6,250.7 		"/>
	</g>
	<g id="stars-2" transform="matrix(0.72891638,0,0,0.73458964,31.970096,17.427907)">
		
			<linearGradient id="polygon15-8_1_" gradientUnits="userSpaceOnUse" x1="-13460.2676" y1="4538.0796" x2="-13354.2676" y2="4538.0796" gradientTransform="matrix(-3.644582e-02 0 0 -3.672948e-02 -339.4304 229.2813)">
			<stop  offset="0" style="stop-color:#FFFFFF"/>
			<stop  offset="1" style="stop-color:#FFFFFF"/>
		</linearGradient>
		<polygon id="polygon15-8" class="st8" points="149.9,61.7 151.7,62.5 149.9,63.4 149.1,65.2 148.2,63.5 146.4,62.7 148.2,61.8 
			149,60 		"/>
		
			<linearGradient id="polygon22-1_1_" gradientUnits="userSpaceOnUse" x1="338.072" y1="748.7434" x2="343.842" y2="748.7434" gradientTransform="matrix(0.7289 0 0 0.7346 -157.6862 -425.9692)">
			<stop  offset="0" style="stop-color:#FFFFFF"/>
			<stop  offset="1" style="stop-color:#FFFFFF"/>
		</linearGradient>
		<polygon id="polygon22-1" class="st9" points="90.7,125 88.7,124.1 90.7,123.1 91.5,121.2 92.5,123.1 94.5,124 92.6,125 
			91.7,126.9 		"/>
		
			<linearGradient id="polygon29-2_1_" gradientUnits="userSpaceOnUse" x1="501.4655" y1="865.1348" x2="508.3654" y2="865.1348" gradientTransform="matrix(0.7289 0 0 0.7346 -157.6862 -425.9692)">
			<stop  offset="0" style="stop-color:#FFFFFF"/>
			<stop  offset="1" style="stop-color:#FFFFFF"/>
		</linearGradient>
		<polygon id="polygon29-2" class="st10" points="210.2,210.7 207.8,209.6 210.1,208.4 211.2,206.1 212.4,208.4 214.7,209.4 
			212.4,210.6 211.4,213 		"/>
		
			<linearGradient id="polygon36-9_1_" gradientUnits="userSpaceOnUse" x1="501.4655" y1="788.9019" x2="508.3654" y2="788.9019" gradientTransform="matrix(0.7289 0 0 0.7346 -157.6862 -425.9692)">
			<stop  offset="0" style="stop-color:#FFFFFF"/>
			<stop  offset="1" style="stop-color:#FFFFFF"/>
		</linearGradient>
		<polygon id="polygon36-9" class="st11" points="210.2,154.7 207.8,153.6 210.1,152.4 211.2,150.1 212.4,152.4 214.7,153.4 
			212.4,154.6 211.4,157 		"/>
		
			<linearGradient id="polygon43-8_1_" gradientUnits="userSpaceOnUse" x1="446.5894" y1="794.347" x2="453.4894" y2="794.347" gradientTransform="matrix(0.7289 0 0 0.7346 -157.6862 -425.9692)">
			<stop  offset="0" style="stop-color:#FFFFFF"/>
			<stop  offset="1" style="stop-color:#FFFFFF"/>
		</linearGradient>
		<polygon id="polygon43-8" class="st12" points="170.2,158.7 167.8,157.6 170.1,156.4 171.2,154.1 172.4,156.4 174.7,157.4 
			172.4,158.6 171.4,161 		"/>
		
			<linearGradient id="polygon50-7_1_" gradientUnits="userSpaceOnUse" x1="329.3467" y1="858.9409" x2="336.7467" y2="858.9409" gradientTransform="matrix(0.7289 0 0 0.7346 -157.6862 -425.9692)">
			<stop  offset="0" style="stop-color:#FFFFFF"/>
			<stop  offset="1" style="stop-color:#FFFFFF"/>
		</linearGradient>
		<polygon id="polygon50-7" class="st13" points="84.9,206.2 82.4,205.1 84.8,203.8 86,201.3 87.2,203.8 89.8,204.9 87.3,206.2 
			86.2,208.7 		"/>
		
			<linearGradient id="polygon57-4_1_" gradientUnits="userSpaceOnUse" x1="415.5434" y1="924.5557" x2="420.5233" y2="924.5557" gradientTransform="matrix(0.7289 0 0 0.7346 -157.6862 -425.9692)">
			<stop  offset="0" style="stop-color:#FFFFFF"/>
			<stop  offset="1" style="stop-color:#FFFFFF"/>
		</linearGradient>
		<polygon id="polygon57-4" class="st14" points="146.9,254 145.2,253.2 146.9,252.4 147.6,250.7 148.5,252.3 150.2,253.1 
			148.5,254 147.8,255.7 		"/>
	</g>
	<g id="stars-7" transform="matrix(0.89750927,0,0,0.80966264,16.899112,-14.434023)">
		
			<linearGradient id="polygon15-84_1_" gradientUnits="userSpaceOnUse" x1="-7733.5874" y1="4948.5986" x2="-7627.5874" y2="4948.5986" gradientTransform="matrix(-4.487547e-02 0 0 -4.048313e-02 -195.9083 262.9348)">
			<stop  offset="0" style="stop-color:#FFFFFF"/>
			<stop  offset="1" style="stop-color:#FFFFFF"/>
		</linearGradient>
		<polygon id="polygon15-84" class="st15" points="149.1,65.2 148.2,63.5 146.4,62.7 148.2,61.8 149,60 149.9,61.7 151.7,62.5 
			149.9,63.4 		"/>
		
			<linearGradient id="polygon22-4_1_" gradientUnits="userSpaceOnUse" x1="132.2868" y1="679.0739" x2="138.0568" y2="679.0739" gradientTransform="matrix(0.8975 0 0 0.8097 -29.9887 -425.7708)">
			<stop  offset="0" style="stop-color:#FFFFFF"/>
			<stop  offset="1" style="stop-color:#FFFFFF"/>
		</linearGradient>
		<polygon id="polygon22-4" class="st16" points="91.5,121.2 92.5,123.1 94.5,124 92.6,125 91.7,126.9 90.7,125 88.7,124.1 
			90.7,123.1 		"/>
		
			<linearGradient id="polygon29-27_1_" gradientUnits="userSpaceOnUse" x1="264.9875" y1="784.6733" x2="271.8875" y2="784.6733" gradientTransform="matrix(0.8975 0 0 0.8097 -29.9887 -425.7708)">
			<stop  offset="0" style="stop-color:#FFFFFF"/>
			<stop  offset="1" style="stop-color:#FFFFFF"/>
		</linearGradient>
		<polygon id="polygon29-27" class="st17" points="211.2,206.1 212.4,208.4 214.7,209.4 212.4,210.6 211.4,213 210.2,210.7 
			207.8,209.6 210.1,208.4 		"/>
		
			<linearGradient id="polygon36-6_1_" gradientUnits="userSpaceOnUse" x1="264.9875" y1="715.5087" x2="271.8875" y2="715.5087" gradientTransform="matrix(0.8975 0 0 0.8097 -29.9887 -425.7708)">
			<stop  offset="0" style="stop-color:#FFFFFF"/>
			<stop  offset="1" style="stop-color:#FFFFFF"/>
		</linearGradient>
		<polygon id="polygon36-6" class="st18" points="211.2,150.1 212.4,152.4 214.7,153.4 212.4,154.6 211.4,157 210.2,154.7 
			207.8,153.6 210.1,152.4 		"/>
		
			<linearGradient id="polygon43-4_1_" gradientUnits="userSpaceOnUse" x1="220.4198" y1="720.4491" x2="227.3197" y2="720.4491" gradientTransform="matrix(0.8975 0 0 0.8097 -29.9887 -425.7708)">
			<stop  offset="0" style="stop-color:#FFFFFF"/>
			<stop  offset="1" style="stop-color:#FFFFFF"/>
		</linearGradient>
		<polygon id="polygon43-4" class="st19" points="171.2,154.1 172.4,156.4 174.7,157.4 172.4,158.6 171.4,161 170.2,158.7 
			167.8,157.6 170.1,156.4 		"/>
		
			<linearGradient id="polygon50-6_1_" gradientUnits="userSpaceOnUse" x1="125.2005" y1="779.0537" x2="132.6005" y2="779.0537" gradientTransform="matrix(0.8975 0 0 0.8097 -29.9887 -425.7708)">
			<stop  offset="0" style="stop-color:#FFFFFF"/>
			<stop  offset="1" style="stop-color:#FFFFFF"/>
		</linearGradient>
		<polygon id="polygon50-6" class="st20" points="86,201.3 87.2,203.8 89.8,204.9 87.3,206.2 86.2,208.7 84.9,206.2 82.4,205.1 
			84.8,203.8 		"/>
		
			<linearGradient id="polygon57-0_1_" gradientUnits="userSpaceOnUse" x1="195.2055" y1="838.5847" x2="200.1854" y2="838.5847" gradientTransform="matrix(0.8975 0 0 0.8097 -29.9887 -425.7708)">
			<stop  offset="0" style="stop-color:#FFFFFF"/>
			<stop  offset="1" style="stop-color:#FFFFFF"/>
		</linearGradient>
		<polygon id="polygon57-0" class="st21" points="147.6,250.7 148.5,252.3 150.2,253.1 148.5,254 147.8,255.7 146.9,254 
			145.2,253.2 146.9,252.4 		"/>
	</g>
	<g id="stars-26" transform="matrix(0.72891638,0,0,0.73458964,2.6574656,59.925166)">
		
			<linearGradient id="polygon15-848_1_" gradientUnits="userSpaceOnUse" x1="-13420.0537" y1="4480.228" x2="-13314.0537" y2="4480.228" gradientTransform="matrix(-3.644582e-02 0 0 -3.672948e-02 -337.9648 227.1564)">
			<stop  offset="0" style="stop-color:#FFFFFF"/>
			<stop  offset="1" style="stop-color:#FFFFFF"/>
		</linearGradient>
		<polygon id="polygon15-848" class="st22" points="149,60 149.9,61.7 151.7,62.5 149.9,63.4 149.1,65.2 148.2,63.5 146.4,62.7 
			148.2,61.8 		"/>
		
			<linearGradient id="polygon22-7_1_" gradientUnits="userSpaceOnUse" x1="378.286" y1="690.8917" x2="384.056" y2="690.8917" gradientTransform="matrix(0.7289 0 0 0.7346 -186.9988 -383.472)">
			<stop  offset="0" style="stop-color:#FFFFFF"/>
			<stop  offset="1" style="stop-color:#FFFFFF"/>
		</linearGradient>
		<polygon id="polygon22-7" class="st23" points="91.7,126.9 90.7,125 88.7,124.1 90.7,123.1 91.5,121.2 92.5,123.1 94.5,124 
			92.6,125 		"/>
		
			<linearGradient id="polygon29-8_1_" gradientUnits="userSpaceOnUse" x1="541.6794" y1="807.2832" x2="548.5795" y2="807.2832" gradientTransform="matrix(0.7289 0 0 0.7346 -186.9988 -383.472)">
			<stop  offset="0" style="stop-color:#FFFFFF"/>
			<stop  offset="1" style="stop-color:#FFFFFF"/>
		</linearGradient>
		<polygon id="polygon29-8" class="st24" points="211.4,213 210.2,210.7 207.8,209.6 210.1,208.4 211.2,206.1 212.4,208.4 
			214.7,209.4 212.4,210.6 		"/>
		
			<linearGradient id="polygon36-1_1_" gradientUnits="userSpaceOnUse" x1="541.6794" y1="731.0502" x2="548.5795" y2="731.0502" gradientTransform="matrix(0.7289 0 0 0.7346 -186.9988 -383.472)">
			<stop  offset="0" style="stop-color:#FFFFFF"/>
			<stop  offset="1" style="stop-color:#FFFFFF"/>
		</linearGradient>
		<polygon id="polygon36-1" class="st25" points="211.4,157 210.2,154.7 207.8,153.6 210.1,152.4 211.2,150.1 212.4,152.4 
			214.7,153.4 212.4,154.6 		"/>
		
			<linearGradient id="polygon43-1_1_" gradientUnits="userSpaceOnUse" x1="486.8034" y1="736.4954" x2="493.7034" y2="736.4954" gradientTransform="matrix(0.7289 0 0 0.7346 -186.9988 -383.472)">
			<stop  offset="0" style="stop-color:#FFFFFF"/>
			<stop  offset="1" style="stop-color:#FFFFFF"/>
		</linearGradient>
		<polygon id="polygon43-1" class="st26" points="171.4,161 170.2,158.7 167.8,157.6 170.1,156.4 171.2,154.1 172.4,156.4 
			174.7,157.4 172.4,158.6 		"/>
		
			<linearGradient id="polygon50-72_1_" gradientUnits="userSpaceOnUse" x1="369.5607" y1="801.0892" x2="376.9607" y2="801.0892" gradientTransform="matrix(0.7289 0 0 0.7346 -186.9988 -383.472)">
			<stop  offset="0" style="stop-color:#FFFFFF"/>
			<stop  offset="1" style="stop-color:#FFFFFF"/>
		</linearGradient>
		<polygon id="polygon50-72" class="st27" points="86.2,208.7 84.9,206.2 82.4,205.1 84.8,203.8 86,201.3 87.2,203.8 89.8,204.9 
			87.3,206.2 		"/>
		
			<linearGradient id="polygon57-9_1_" gradientUnits="userSpaceOnUse" x1="455.7574" y1="866.704" x2="460.7372" y2="866.704" gradientTransform="matrix(0.7289 0 0 0.7346 -186.9988 -383.472)">
			<stop  offset="0" style="stop-color:#FFFFFF"/>
			<stop  offset="1" style="stop-color:#FFFFFF"/>
		</linearGradient>
		<polygon id="polygon57-9" class="st28" points="147.8,255.7 146.9,254 145.2,253.2 146.9,252.4 147.6,250.7 148.5,252.3 
			150.2,253.1 148.5,254 		"/>
	</g>
</g>
</svg>
