<?xml version="1.0" encoding="UTF-8"?>
<svg width="140.01mm" height="20.9227mm" version="1.1" viewBox="0 0 140.01 20.9227" xmlns="http://www.w3.org/2000/svg">
	<g transform="translate(-48.97 -146.794)">
		<g transform="translate(10.5267 146.635)">
			<path d="m53.3923 5.64683 2.36692-2.36692-3.7351 1.0479s1.14815 0.803298 1.36818 1.31902z" fill="#f95"/>
			<path d="m52.0241 4.32781 1.43183-2.77309s1.90663 1.07777 2.30328 1.72519z" fill="#ff7f2a"/>
			<path d="m52.0241 4.32781 1.43183-2.77309-2.87303 2.11594s1.11924 0.264839 1.4412 0.65715z" fill="#ffb380"/>
			<path d="m53.456 1.55472s-2.1303-0.889644-2.68253-0.994438l-0.190503 3.11038z" fill="#f95"/>
			<path d="m50.7734 0.560285-1.88724 2.84832 1.69673 0.262053z" fill="#ff7f2a"/>
			<path d="m50.7734 0.560285-1.88724 2.84832-1.06479-3.06017s2.26024-0.127192 2.95203 0.211846z" fill="#ffb380"/>
			<path d="m47.8214 0.348439 1.06479 3.06017s-0.867616-0.110456-1.17582 0.066498z" fill="#f95"/>
			<path d="m47.8214 0.348439-0.111025 3.12667-1.99006-2.74048s1.61741-0.49663 2.10108-0.386184z" fill="#ff7f2a"/>
			<path d="m45.7203 0.734624 0.226457 3.20403s1.33407-0.552415 1.7636-0.463548z" fill="#ffb380"/>
			<path d="m45.7203 0.734624 0.226457 3.20403-2.40346-2.29533s1.27692-0.809133 2.177-0.908697z" fill="#f95"/>
			<path d="m45.9468 3.93865-2.40346-2.29533 1.02033 3.01962s0.720511-0.624881 1.38312-0.724289z" fill="#ff7f2a"/>
			<path d="m43.5433 1.64332 1.02033 3.01962-2.69518-1.86407s1.14129-1.02817 1.67484-1.15555z" fill="#ffb380"/>
			<path d="m44.5636 4.66294-2.69518-1.86407 1.599 2.77226s0.746371-0.825411 1.09617-0.908192z" fill="#f95"/>
			<path d="m41.8685 2.79887 1.599 2.77226-3.03748-1.26272s1.07993-1.37174 1.43848-1.50954z" fill="#ff7f2a"/>
			<path d="m43.4675 5.57113-3.03748-1.26272 2.10719 2.46753s0.541123-0.992434 0.930293-1.20481z" fill="#ffb380"/>
			<path d="m40.43 4.30841 2.10719 2.46753-3.20554-0.635187s0.72173-1.56137 1.09835-1.83234z" fill="#f95"/>
			<path d="m39.3316 6.14076 3.20554 0.635187s-0.546682 1.09655-0.647804 1.47739z" fill="#ff7f2a"/>
			<path d="m39.3316 6.14076 2.55774 2.11258-3.26612 0.152445s0.179639-1.42852 0.708385-2.26503z" fill="#ffb380"/>
			<path d="m41.8894 8.25334-3.26612 0.152445 3.01 1.1805s0.0272-1.20236 0.256122-1.33295z" fill="#f95"/>
			<path d="m38.6233 8.40578 3.01 1.1805-3.18991 0.825527s0.05297-1.41845 0.179906-2.00603z" fill="#ff7f2a"/>
			<path d="m41.6333 9.58629-3.18991 0.825527 3.17998 0.556042s-0.09361-1.21828 0.0099-1.38157z" fill="#ffb380"/>
			<path d="m41.6233 10.9679-3.17998-0.556042s0.0063 1.44395 0.15499 1.74193z" fill="#f95"/>
			<path d="m41.6233 10.9679-3.02499 1.18589 3.25553 0.191131s-0.272674-1.13025-0.230537-1.37702z" fill="#ff7f2a"/>
			<path d="m38.5983 12.1537 3.25553 0.191131-2.64265 1.92125s-0.398741-0.966014-0.612876-2.11238z" fill="#ffb380"/>
			<path d="m41.8539 12.3449-2.64265 1.92125 3.16814-0.593125s-0.546298-0.915546-0.525489-1.32813z" fill="#f95"/>
			<path d="m39.2112 14.2661 3.16814-0.593125-2.03048 2.68672s-0.870661-1.34073-1.13766-2.0936z" fill="#ff7f2a"/>
			<path d="m42.3794 13.673-2.03048 2.68672 2.83576-1.54111s-0.531831-0.51701-0.805281-1.14562z" fill="#ffb380"/>
			<path d="m40.3489 16.3597 2.83576-1.54111-1.31086 3.29083s-1.15617-1.15435-1.5249-1.74973z" fill="#f95"/>
			<path d="m43.1846 14.8186-1.31086 3.29083 2.50662-2.24947s-0.907203-0.693728-1.19576-1.04136z" fill="#ff7f2a"/>
			<path d="m41.8738 18.1095 2.50662-2.24947-0.759939 3.54147s-1.24782-0.775054-1.74668-1.292z" fill="#ffb380"/>
			<path d="m44.3804 15.86-0.759939 3.54147 2.15279-2.78382s-0.842547-0.317054-1.39285-0.757649z" fill="#f95"/>
			<path d="m43.6205 19.4015 2.15279-2.78382-0.0078 3.70243s-1.58348-0.551819-2.14498-0.918606z" fill="#ff7f2a"/>
			<path d="m45.7733 16.6176-0.0078 3.70243 1.45249-3.21299s-1.08062-0.18646-1.44468-0.489443z" fill="#ffb380"/>
			<path d="m45.7654 20.3201s2.17661 0.512313 2.74901 0.351035l-1.29652-3.56402z" fill="#f95"/>
			<path d="m47.2179 17.1071 1.29652 3.56402 0.682506-3.24434s-1.30813-0.122461-1.97903-0.31968z" fill="#ff7f2a"/>
			<path d="m49.197 17.4268-0.682506 3.24434s1.54989-0.02316 1.88697-0.23536z" fill="#ffb380"/>
			<path d="m50.4014 20.4357s1.95519-0.525282 2.18116-0.743115l-3.38562-2.26587z" fill="#f95"/>
			<g>
				<path d="m49.1969 17.4268s1.26161 0.02318 1.86891-0.373896l1.51672 2.6397z" fill="#ff7f2a"/>
				<path d="m51.0658 17.0529 3.16887 1.77519s-0.945163 0.748001-1.65215 0.864513z" fill="#ffb380"/>
				<path d="m51.0658 17.0529s1.0511-0.303649 1.62726-0.895379l1.54161 2.67057z" fill="#f95"/>
				<path d="m52.6931 16.1575 1.54161 2.67057s0.97324-0.529442 1.36254-1.15231z" fill="#ff7f2a"/>
				<path d="m55.5972 17.6758s0.988812-0.669589 1.37811-1.37811l-3.24673-1.27689z" fill="#f95"/>
				<path d="m55.5972 17.6758-1.86862-2.655s-0.295867 0.731872-1.03553 1.13674z" fill="#ffb380"/>
			</g>
		</g>
		<g>
			<path d="m68.9586 155.275-3.36352 3.39466v-3.39466z" fill="#ff7f2a"/>
			<path d="m65.5951 155.275-3.39466 3.39466h3.39466z" fill="#ffb380"/>
			<path d="m65.5951 155.275-3.39466 3.39466v-3.39466z" fill="#f95"/>
			<path d="m62.2004 155.275v3.39466l-3.39466-3.39466z" fill="#ff7f2a"/>
			<path d="m58.8057 155.275v3.39466h3.39466z" fill="#ffb380"/>
		</g>
		<g id="R" transform="translate(54.5214 146.732)">
			<path d="m15.4497 0.283344 2.24623 3.69968v-3.65902z" fill="#ff7f2a"/>
			<path d="m17.6959 0.324 3.65902 3.65902h-3.65902z" fill="#ffb380"/>
			<path d="m17.6959 0.324 3.65902 3.65902v-3.59279z" fill="#f95"/>
			<path d="m21.3549 0.390228 3.61504 3.61503-3.61504-0.022251z" fill="#ff7f2a"/>
			<path d="m21.3549 0.390228 3.61504 3.61503v-3.54961z" fill="#ffb380"/>
			<path d="m24.9699 0.455657v3.54961l2.59576-2.50752s-1.18964-0.678402-2.59576-1.04209z" fill="#f95"/>
			<path d="m27.5657 1.49774-0.73388 3.28784s-1.30479-0.776893-1.86188-0.780322z" fill="#ff7f2a"/>
			<path d="m27.5657 1.49774-0.73388 3.28784 2.83559-1.65359s-1.25936-1.21724-2.10171-1.63425z" fill="#ffb380"/>
			<path d="m26.8318 4.78558 2.83559-1.65359-1.83659 2.80853s-0.550016-0.90538-0.998998-1.15494z" fill="#f95"/>
			<path d="m29.6674 3.132-1.83659 2.80853 3.18234-0.604737s-0.685606-1.60692-1.34575-2.20379z" fill="#ff7f2a"/>
			<path d="m27.8308 5.94053 3.18234-0.604737-2.84064 1.9485s-0.06209-0.891582-0.341706-1.34376z" fill="#ffb380"/>
			<path d="m31.0132 5.33579-2.84064 1.9485 3.08938 0.731078s0.110181-1.92789-0.248743-2.67958z" fill="#f95"/>
			<path d="m28.1725 7.28429 3.08938 0.731078-3.26647 0.624721s0.257974-0.750644 0.177085-1.3558z" fill="#ff7f2a"/>
			<path d="m31.2619 8.01537-3.26647 0.624721 2.47228 1.96623s0.783383-1.55264 0.794181-2.59095z" fill="#ffb380"/>
			<path d="m27.9954 8.64009 2.47228 1.96623-3.15251-0.901925s0.538845-0.495983 0.680228-1.06431z" fill="#f95"/>
			<path d="m30.4677 10.6063-3.15251-0.901925 1.06216 3.13425s1.58923-1.06847 2.09035-2.23232z" fill="#ff7f2a"/>
			<path d="m27.3152 9.70439 1.06216 3.13425-2.02842-2.47518s0.562692-0.180228 0.966258-0.659063z" fill="#ffb380"/>
			<path d="m28.3774 12.8386-2.02842-2.47518 0.72826 3.13302s0.422151 0.03144 1.30016-0.657839z" fill="#f95"/>
			<path d="m27.0772 13.4965-2.97296-2.68667s1.51519 0.0031 2.2447-0.446353z" fill="#ff7f2a"/>
			<path d="m27.0772 13.4965-2.97296-2.68667v2.90689z" fill="#ffb380"/>
			<path d="m24.1043 10.8098-0.859267 2.95684 0.859267-0.04996z" fill="#f95"/>
			<path d="m24.1043 10.8098h-2.57656l1.7173 2.95684z" fill="#ff7f2a"/>
			<path d="m23.245 13.7667 1.49979 2.58234h3.94547z" fill="#ffb380"/>
			<path d="m28.6902 16.349 1.05592 1.8673h-3.9242z" fill="#ff7f2a"/>
			<path d="m25.822 18.2163 5.43941 2.67953-1.51521-2.67953z" fill="#ffb380"/>
			<path d="m25.822 18.2163 1.56356 2.67953h3.87585z" fill="#f95"/>
			<path d="m25.822 18.2163 2.86828-1.8673h-3.94547z" fill="#f95"/>
			<path d="m28.6902 16.349-5.44526-2.58234 3.83222-0.270176z" fill="#ff7f2a"/>
		</g>
		<g id="A" transform="translate(12.3589 80.6549)">
			<path d="m79.3403 86.8897-2.50984-2.77378-1.36601 2.77378z" fill="#ff7f2a"/>
			<path d="m79.3403 86.8897 1.13234-2.29658-3.64219-0.47719z" fill="#f95"/>
			<path d="m76.8304 84.1159 1.08802-2.20929 2.55417 2.68648z" fill="#ffb380"/>
			<path d="m77.9184 81.9066 3.53002 0.707295-0.975849 1.97919z" fill="#ff7f2a"/>
			<path d="m77.9184 81.9066 0.900687-1.82891 2.62933 2.5362z" fill="#f95"/>
			<path d="m78.8191 80.0777 3.64849 0.469176-1.01916 2.06702z" fill="#ffb380"/>
			<path d="m78.8191 80.0777 0.898997-1.82548 2.74949 2.29465z" fill="#ff7f2a"/>
			<path d="m79.7181 78.2523 2.74949 2.29465 1.09373-2.21827z" fill="#f95"/>
			<path d="m79.7181 78.2523 0.858419-1.74308 2.9848 1.81946z" fill="#ffb380"/>
			<path d="m80.5765 76.5092 3.91468-0.06649-0.929875 1.88594z" fill="#ff7f2a"/>
			<path d="m80.5765 76.5092 0.861457-1.74925 3.05322 1.68276z" fill="#f95"/>
			<path d="m81.438 74.7599 4.15648-0.554838-1.10326 2.2376z" fill="#ffb380"/>
			<path d="m81.438 74.7599 1.03988-2.11156 3.1166 1.55672z" fill="#ff7f2a"/>
			<path d="m85.5945 74.2051v-3.01769l-3.1166 1.46097z" fill="#f95"/>
			<path d="m85.5945 71.1874-1.57506-1.66923-1.54154 3.13021z" fill="#ffb380"/>
			<path d="m85.5945 71.1874-0.04404-4.77806-1.53101 3.10883z" fill="#ff7f2a"/>
			<path d="m85.5945 71.1874 1.51134-1.65731-1.55539-3.12075z" fill="#f95"/>
			<path d="m85.5945 71.1874 3.13906 1.60856-1.62772-3.26587z" fill="#ffb380"/>
			<path d="m85.5945 71.1874v3.01769l3.13906-1.40913z" fill="#ff7f2a"/>
			<path d="m85.5945 74.2051 4.1146 0.548194-3.07866 1.61931z" fill="#ffb380"/>
			<path d="m89.7091 74.7533-0.975534-1.95732-3.13906 1.40913z" fill="#f95"/>
			<path d="m89.7091 74.7533-3.07866 1.61931 3.97332 0.175744z" fill="#ff7f2a"/>
			<path d="m86.6304 76.3726 3.97332 0.175744-3.00618 1.84779z" fill="#f95"/>
			<path d="m90.6037 76.5483-3.00618 1.84779 4.01263 0.171541z" fill="#ffb380"/>
			<path d="m87.5976 78.3961 0.859777 1.79892 3.15285-1.62738z" fill="#ff7f2a"/>
			<path d="m88.4573 80.1951 3.15285-1.62738 0.811088 1.62738z" fill="#f95"/>
			<path d="m94.0509 83.5864-2.02602 3.34733-1.71771-3.34733z" fill="#ffb380"/>
			<path d="m94.0509 83.5864 1.8058 3.30328-3.83181 0.04404z" fill="#ff7f2a"/>
		</g>
		<g>
			<g>
				<path d="m168.701 152.171 2.36692-2.36692-3.73509 1.0479s1.14814 0.8033 1.36817 1.31902z" fill="#ff7f2a"/>
				<path d="m167.333 150.852 1.43182-2.77309s1.90663 1.07777 2.30328 1.72519z" fill="#ffb380"/>
				<path d="m167.333 150.852 1.43182-2.77309-2.87302 2.11594s1.11924 0.26484 1.4412 0.65715z" fill="#f95"/>
				<path d="m168.765 148.079s-2.13029-0.88965-2.68252-0.99444l-0.19051 3.11038z" fill="#ff7f2a"/>
				<path d="m166.082 147.084-1.88724 2.84832 1.69673 0.26206z" fill="#ffb380"/>
				<path d="m166.082 147.084-1.88724 2.84832-1.06479-3.06017s2.26024-0.12719 2.95203 0.21185z" fill="#f95"/>
				<path d="m163.13 146.872 1.06479 3.06017s-0.86762-0.11046-1.17582 0.0665z" fill="#ff7f2a"/>
				<path d="m163.13 146.872-0.11103 3.12667-1.99006-2.74048s1.61741-0.49663 2.10108-0.38619z" fill="#ffb380"/>
				<path d="m161.029 147.259 0.22645 3.20403s1.33407-0.55241 1.7636-0.46355z" fill="#f95"/>
				<path d="m161.029 147.259 0.22645 3.20403-2.40346-2.29533s1.27692-0.80913 2.177-0.9087z" fill="#ff7f2a"/>
				<path d="m161.256 150.463-2.40346-2.29533 1.02033 3.01962s0.72051-0.62488 1.38312-0.72429z" fill="#ffb380"/>
				<path d="m158.852 148.167 1.02033 3.01962-2.69518-1.86407s1.14129-1.02817 1.67484-1.15555z" fill="#f95"/>
				<path d="m159.872 151.187-2.69518-1.86407 1.599 2.77226s0.74637-0.82541 1.09617-0.90819z" fill="#ff7f2a"/>
				<path d="m157.177 149.323 1.599 2.77226-3.03748-1.26272s1.07993-1.37174 1.43848-1.50954z" fill="#ffb380"/>
				<path d="m158.776 152.095-3.03748-1.26272 2.10719 2.46753s0.54112-0.99244 0.93029-1.20481z" fill="#f95"/>
				<path d="m155.739 150.832 2.10719 2.46753-3.20554-0.63519s0.72173-1.56137 1.09835-1.83234z" fill="#ff7f2a"/>
				<path d="m154.64 152.665 3.20554 0.63518s-0.54669 1.09655-0.64781 1.47739z" fill="#ffb380"/>
				<path d="m154.64 152.665 1.3271 1.09613 1.23064 1.01645-3.26612 0.15244s0.17964-1.42852 0.70838-2.26503z" fill="#f95"/>
				<path d="m157.198 154.777-3.26612 0.15244 3.01 1.1805s0.0272-1.20236 0.25612-1.33295z" fill="#ff7f2a"/>
				<path d="m153.932 154.93 3.01 1.1805-3.18991 0.82552s0.053-1.41845 0.1799-2.00603z" fill="#ffb380"/>
				<path d="m156.942 156.11-3.18991 0.82552 3.17998 0.55605s-0.0936-1.21828 0.01-1.38157z" fill="#f95"/>
				<path d="m156.932 157.492-3.17998-0.55604s6e-3 1.44395 0.15499 1.74193z" fill="#ff7f2a"/>
				<path d="m156.932 157.492-3.02499 1.18589 3.25553 0.19113s-0.27268-1.13025-0.23054-1.37702z" fill="#ffb380"/>
				<path d="m153.907 158.678 3.25553 0.19113-2.64265 1.92125s-0.39874-0.96602-0.61288-2.11238z" fill="#f95"/>
				<path d="m157.163 158.869-2.64265 1.92125 3.16814-0.59313s-0.5463-0.91554-0.52549-1.32813z" fill="#ff7f2a"/>
				<path d="m154.52 160.79 3.16814-0.59313-2.03048 2.68672s-0.87066-1.34073-1.13766-2.0936z" fill="#ffb380"/>
				<path d="m157.688 160.197-2.03048 2.68672 2.83576-1.54111s-0.53183-0.51701-0.80528-1.14562z" fill="#f95"/>
				<path d="m155.658 162.884 2.83576-1.54111-1.31086 3.29083s-1.15617-1.15435-1.5249-1.74973z" fill="#ff7f2a"/>
				<path d="m158.493 161.342-1.31086 3.29083 2.50662-2.24947s-0.90721-0.69373-1.19576-1.04136z" fill="#ffb380"/>
				<path d="m157.183 164.633 2.50662-2.24947-0.75994 3.54147s-1.24782-0.77506-1.74668-1.292z" fill="#f95"/>
				<path d="m159.689 162.384-0.75994 3.54147 2.15279-2.78382s-0.84255-0.31706-1.39285-0.75765z" fill="#ff7f2a"/>
				<path d="m158.929 165.925 2.15279-2.78382-8e-3 3.70243s-1.58348-0.55182-2.14498-0.91861z" fill="#ffb380"/>
				<path d="m161.082 163.142-8e-3 3.70243 1.45249-3.21299s-1.08062-0.18646-1.44468-0.48945z" fill="#f95"/>
				<path d="m161.074 166.844s2.17661 0.51231 2.74901 0.35103l-1.29652-3.56402z" fill="#ff7f2a"/>
				<path d="m162.527 163.631 1.29652 3.56402 0.6825-3.24434s-1.30813-0.12246-1.97903-0.31968z" fill="#ffb380"/>
				<path d="m164.506 163.951-0.68251 3.24434s1.54989-0.0232 1.88697-0.23536z" fill="#f95"/>
				<path d="m165.71 166.96s1.95519-0.52528 2.18115-0.74312l-3.38561-2.26587z" fill="#ff7f2a"/>
			</g>
			<g>
				<path d="m110.551 146.967 2.86911 3.41939 0.0311-3.45659z" fill="#ff7f2a"/>
				<path d="m113.451 146.93 3.62788 3.45658h-3.65902z" fill="#f95"/>
				<path d="m113.451 146.93 3.62788 3.45658v-3.59279z" fill="#ffb380"/>
				<path d="m117.079 146.794 3.61504 3.61503-3.61504-0.0222z" fill="#ff7f2a"/>
				<path d="m117.079 146.794 3.61504 3.61503v-3.54961z" fill="#f95"/>
				<path d="m120.694 146.859v3.54961l2.59576-2.50752s-1.18964-0.6784-2.59576-1.04209z" fill="#ffb380"/>
				<path d="m123.29 147.902-0.73388 3.28784s-1.30479-0.77689-1.86188-0.78032z" fill="#ff7f2a"/>
				<path d="m123.29 147.902-0.73388 3.28784 2.83559-1.65359s-1.25936-1.21724-2.10171-1.63425z" fill="#f95"/>
				<path d="m122.556 151.189 2.83559-1.65359-1.83659 2.80853s-0.55002-0.90538-0.999-1.15494z" fill="#ffb380"/>
				<path d="m125.391 149.536-1.83659 2.80853 3.18234-0.60474s-0.68561-1.60692-1.34575-2.20379z" fill="#ff7f2a"/>
				<path d="m123.555 152.344 3.18234-0.60474-2.84064 1.9485s-0.0621-0.89158-0.34171-1.34376z" fill="#f95"/>
				<path d="m126.737 151.74-2.84064 1.9485 3.08938 0.73108s0.11018-1.92789-0.24874-2.67958z" fill="#ffb380"/>
				<path d="m123.896 153.688 3.08938 0.73108-3.26647 0.62472s0.25797-0.75064 0.17708-1.3558z" fill="#ff7f2a"/>
				<path d="m126.986 154.419-3.26647 0.62472 2.47228 1.96623s0.78338-1.55264 0.79418-2.59095z" fill="#f95"/>
				<path d="m123.719 155.044 2.47228 1.96623-3.15251-0.90192s0.53884-0.49599 0.68023-1.06431z" fill="#ffb380"/>
				<path d="m126.192 157.01-3.15251-0.90192 1.06216 3.13425s1.58923-1.06847 2.09035-2.23232z" fill="#ff7f2a"/>
				<path d="m123.039 156.108 1.06216 3.13425-2.02842-2.47518s0.56269-0.18023 0.96626-0.65906z" fill="#f95"/>
				<path d="m124.101 159.242-2.02842-2.47518 0.72826 3.13302s0.42215 0.0314 1.30016-0.65784z" fill="#ffb380"/>
				<path d="m122.801 159.9-2.97296-2.68667s1.51519 3e-3 2.2447-0.44635z" fill="#ff7f2a"/>
				<path d="m122.801 159.9-2.97296-2.68667v2.90689z" fill="#f95"/>
				<path d="m119.828 157.214-0.85927 2.95684 0.85927-0.05z" fill="#ffb380"/>
				<path d="m119.828 157.214h-2.57656l1.7173 2.95684z" fill="#ff7f2a"/>
			</g>
			<path d="m113.897 167.281-3.67495-3.67495v3.67495z" fill="#ff7f2a"/>
			<path d="m113.897 167.281-3.67495-3.67495h3.67495z" fill="#ffb380"/>
			<path d="m113.897 163.606h-3.67495l3.67495-3.13541z" fill="#f95"/>
			<path d="m113.897 160.471-3.67495-0.022v3.15744z" fill="#ff7f2a"/>
			<g stroke-width="0">
				<path d="m110.222 160.449v-3.34253l3.67495 3.36455z" fill="#ffb380"/>
				<path d="m117.252 157.214v3.15209l1.7173-0.19525z" fill="#f95"/>
				<path d="m117.252 157.214-3.35418 3.2574 3.35418-0.10531z" fill="#ffb380"/>
				<path d="m113.897 160.471v-3.32051l3.35418 0.0631z" fill="#ff7f2a"/>
				<path d="m113.897 157.15-3.67495-0.044 3.67495 3.36455z" fill="#f95"/>
			</g>
			<path d="m142.412 166.048h3.67495l-3.67495-3.67496z" fill="#ff7f2a"/>
			<path d="m142.412 162.373h3.67495v3.67496z" fill="#ffb380"/>
			<path d="m142.412 162.373 3.67495-3.67495v3.67495z" fill="#f95"/>
			<path d="m146.087 158.698h-3.67495v3.67495z" fill="#ff7f2a"/>
			<path d="m146.087 155.179-3.57773 3.57773 3.57773-0.0585z" fill="#ffb380"/>
			<path d="m146.087 155.179-3.57773 3.57773v-3.56689z" fill="#f95"/>
			<path d="m142.509 155.19v3.56689l-3.55611-3.55611z" fill="#ff7f2a"/>
			<path d="m138.953 155.201v3.49761h3.45889z" fill="#f95"/>
			<path d="m138.953 155.201-3.14357 3.49761h3.14357z" fill="#ffb380"/>
			<path d="m138.953 155.201-3.14357 0.01v3.48809z" fill="#ff7f2a"/>
			<path d="m142.509 155.19h3.67495l-3.67495-3.67495z" fill="#ff7f2a"/>
			<path d="m142.509 151.515h3.67495v3.67495z" fill="#ffb380"/>
			<path d="m142.509 151.515 3.67495-3.67495v3.67495z" fill="#f95"/>
			<path d="m146.184 147.84h-3.67495v3.67495z" fill="#ff7f2a"/>
			<path d="m128.46 166.235h3.67495l-3.67495-3.67495z" fill="#f95"/>
			<path d="m128.46 162.56h3.67495v3.67495z" fill="#ff7f2a"/>
			<path d="m128.46 162.56 3.67495-3.89296v3.89296z" fill="#ffb380"/>
			<path d="m132.135 158.667-3.67495 0.0467v3.84625z" fill="#f95"/>
			<path d="m135.81 155.21h-3.67495l3.67495 3.48809z" fill="#f95"/>
			<path d="m135.81 158.698-3.67495-0.0311v-3.45695z" fill="#ffb380"/>
			<path d="m128.46 158.714 3.67495-0.0467v-3.45695z" fill="#ff7f2a"/>
			<g>
				<path d="m148.712 147.411 3.39466 3.36352h-3.39466z" fill="#ff7f2a"/>
				<path d="m148.712 150.774 3.39466 3.39466v-3.39466z" fill="#f95"/>
				<path d="m148.712 150.774 3.39466 3.39466h-3.39466z" fill="#ffb380"/>
				<path d="m148.712 154.169h3.39466l-3.39466 3.39466z" fill="#ff7f2a"/>
				<path d="m148.712 157.564h3.39466v-3.39466z" fill="#f95"/>
				<path d="m148.712 167.717 3.39466-3.36352h-3.39466z" fill="#ff7f2a"/>
				<path d="m148.712 164.353 3.39466-3.39466v3.39466z" fill="#ffb380"/>
				<path d="m148.712 164.353 3.39466-3.39466h-3.39466z" fill="#f95"/>
				<path d="m148.712 160.959h3.39466l-3.39466-3.39466z" fill="#ff7f2a"/>
				<path d="m148.712 157.564h3.39466v3.39466z" fill="#ffb380"/>
			</g>
			<path d="m177.919 147.135v3.45743l-2.06257-3.02935s1.19447-0.43004 2.06257-0.42808z" fill="#ff7f2a"/>
			<path d="m175.857 147.563 2.06257 3.02935s-1.08722-0.10058-1.77185 0.40592z" fill="#f95"/>
			<path d="m176.147 150.998-0.29072-3.43527s-1.5735 0.50123-2.48345 1.50018z" fill="#ffb380"/>
			<path d="m176.147 150.998-2.77417-1.93509 2.11541 2.68124s0.30068-0.55052 0.65876-0.74615z" fill="#ff7f2a"/>
			<path d="m173.373 149.063 2.11541 2.68124-3.39214-0.35305s0.51709-1.68757 1.27673-2.32819z" fill="#f95"/>
			<path d="m175.489 151.744-3.39214-0.35305 3.11939 1.29303s0.0389-0.58916 0.27275-0.93998z" fill="#ffb380"/>
			<path d="m172.096 151.391 3.11939 1.29303-3.17775 1.50494s-0.26225-1.9487 0.0584-2.79797z" fill="#ff7f2a"/>
			<path d="m175.216 152.684-3.17775 1.50494 3.25605-0.1471s-0.17061-0.83784-0.0783-1.35784z" fill="#f95"/>
			<path d="m172.038 154.189 3.25605-0.1471-2.45804 2.2483s-0.69461-1.09815-0.79801-2.1012z" fill="#ffb380"/>
			<path d="m175.294 154.042-2.45804 2.2483 3.06563-1.23661s-0.51855-0.5064-0.60759-1.01169z" fill="#ff7f2a"/>
			<path d="m172.836 156.29 3.06563-1.23661-1.36119 2.91408s-1.28731-0.87784-1.70444-1.67747z" fill="#f95"/>
			<path d="m175.902 155.054-1.36119 2.91408 2.13691-2.49286s-0.53845-0.14867-0.77572-0.42122z" fill="#ffb380"/>
			<path d="m174.54 157.968 2.13691-2.49286 0.47099 3.4635s-1.83294-0.36329-2.6079-0.97064z" fill="#ff7f2a"/>
			<path d="m176.677 155.475 0.47099 3.4635 0.96896-3.36935s-0.98669 0.0992-1.43995-0.0942z" fill="#f95"/>
			<path d="m178.117 155.569 0.87974 3.3561-1.8487 0.0133z" fill="#ffb380"/>
			<path d="m178.117 155.569 0.87974 3.3561 0.90399-3.34194z" fill="#ff7f2a"/>
			<path d="m178.997 158.925 0.90399-3.34194 1.01948 3.32815z" fill="#f95"/>
			<path d="m179.901 155.583 1.01948 3.32815 0.84062-3.31339z" fill="#ffb380"/>
			<path d="m180.921 158.911 0.84062-3.31339 0.84121 3.30134z" fill="#ff7f2a"/>
			<path d="m181.761 155.598 1.90569 0.0151-1.06448 3.28621z" fill="#f95"/>
			<path d="m182.602 158.899 1.06448-3.2862s0.55945 0.0365 1.29131 0.34621z" fill="#ffb380"/>
			<path d="m182.602 158.899 2.35579-2.93999-0.52614 3.36041s-0.87194-0.60912-1.82965-0.42042z" fill="#ff7f2a"/>
			<path d="m184.958 155.959-0.52614 3.36041 2.42903-2.33139s-0.62929-0.54504-1.90289-1.02902z" fill="#f95"/>
			<path d="m184.432 159.32 2.42903-2.33139-1.53297 3.10562s-0.43019-0.551-0.89606-0.77423z" fill="#ffb380"/>
			<path d="m186.861 156.988-1.53297 3.10562 3.03634-1.32921s-0.66571-1.22966-1.50337-1.77641z" fill="#ff7f2a"/>
			<path d="m185.328 160.094 3.03634-1.32921-2.6005 2.46083s-0.13072-0.7883-0.43584-1.13162z" fill="#f95"/>
			<path d="m188.364 158.765-2.6005 2.46083 3.20976 0.29971s0.0126-1.82647-0.60926-2.76054z" fill="#ffb380"/>
			<path d="m185.764 161.226 3.20976 0.29971-3.26817 0.6234s0.12771-0.60914 0.0584-0.92311z" fill="#ff7f2a"/>
			<path d="m188.974 161.525-3.26817 0.6234 2.72783 1.75848s0.61454-1.3307 0.54034-2.38188z" fill="#f95"/>
			<path d="m185.706 162.149 2.72783 1.75848-3.23684-0.8287s0.44088-0.4634 0.50901-0.92978z" fill="#ffb380"/>
			<path d="m188.433 163.907-3.23684-0.8287 1.45991 2.93833s1.40446-1.07793 1.77693-2.10963z" fill="#ff7f2a"/>
			<path d="m185.196 163.078 1.45991 2.93833-2.45941-2.23037s0.75422-0.38723 0.9995-0.70796z" fill="#f95"/>
			<path d="m186.656 166.017-2.45941-2.23037 0.44026 3.35145s1.54069-0.71237 2.01915-1.12108z" fill="#ffb380"/>
			<path d="m184.197 163.786 0.44026 3.35145-1.565-3.00231s0.77758-0.16565 1.12474-0.34914z" fill="#ff7f2a"/>
			<path d="m183.072 167.615v-3.47946l1.565 3.00231s-0.90985 0.3285-1.565 0.47715z" fill="#f95"/>
		</g>
	</g>
</svg>
