<?xml version="1.0" encoding="utf-8"?>
<!-- Generator: Adobe Illustrator 22.0.0, SVG Export Plug-In . SVG Version: 6.00 Build 0)  -->
<svg version="1.1" id="Layer_1" xmlns="http://www.w3.org/2000/svg" xmlns:xlink="http://www.w3.org/1999/xlink" x="0px" y="0px"
	 viewBox="0 0 159.6 224" style="enable-background:new 0 0 159.6 224;" xml:space="preserve">
<style type="text/css">
	.st0{fill:#E44D26;}
	.st1{fill:#F16529;}
	.st2{fill:#FFFFFF;}
	.st3{fill:#EBEBEB;}
</style>
<g>
	<path class="st0" d="M0,42.7l159.6,0.2l-14.2,162.8L79.5,224l-65.2-18.1L0,42.7z"/>
	<path class="st1" d="M79.6,56.7l0.1,19.8l50.7,0.1l-1.4,19.8l-49.4,0.2l0,20.2l47.5-0.2l-5.4,61.3l-41.4,11.9l0.5,20.9l52.8-14.8
		l11.7-139L79.6,56.7z"/>
	<path class="st2" d="M80.4,189.9l0.3-21.2L103,163l2.1-26.4L80,136.8l-0.4-19.9l47.5-0.2l-5.4,61.3L80.4,189.9z"/>
	<path class="st1" d="M80,136.8l0.7,32L103,163l2.1-26.4L80,136.8z"/>
	<path class="st3" d="M80.7,168.7l-22.3-6.5L57,146.8l-20.3-0.2l2.5,31.1l41.1,12.2L80.7,168.7z"/>
	<path class="st3" d="M80,136.8l-44.2-0.1L30.5,76l49.2,0.5l-0.1,20.2l-27.3,0l1.5,20.1l25.8,0.1L80,136.8z"/>
	<g>
		<path d="M16.5,0.2v30.2l10.6,0.2l-0.3-10.1l9.3-0.3v10.3h9.8V0.2L35.5,0l0.2,10.4l-8.8-0.5V0.3L16.5,0.2z"/>
		<path d="M50.5,10.1h9L59.3,30l10.1,0.2V10.3l9-0.3V0.2h-28L50.5,10.1z"/>
		<path d="M82.5,0.2l0.2,30.5h10.4l-0.3-15.2l7.2,11.1l6.8-11.1v14.8l10.3-0.2l-0.3-30L106.3,0l-6.5,11.1L93.6,0.5L82.5,0.2z"/>
		<path d="M121.4,0.3l0.3,29.8l25.3,0.2l-0.3-10.3l-14.8-0.3l-0.2-19.6L121.4,0.3z"/>
	</g>
</g>
<path class="st2" d="M79.6,96.7l0.1-20.2l50.7,0.1l-1.4,19.8L79.6,96.7z"/>
</svg>
