<?xml version="1.0" encoding="utf-8"?>
<!-- Generator: Adobe Illustrator 22.0.0, SVG Export Plug-In . SVG Version: 6.00 Build 0)  -->
<svg version="1.1" id="Layer_1" xmlns="http://www.w3.org/2000/svg" xmlns:xlink="http://www.w3.org/1999/xlink" x="0px" y="0px"
	 viewBox="0 0 132 183.5" style="enable-background:new 0 0 132 183.5;" xml:space="preserve">
<style type="text/css">
	.st0{fill:#E5A129;}
	.st1{fill:#F1BE21;}
	.st2{fill:#FEFEFE;}
	.st3{fill:#EBEAEA;}
	.st4{fill:#EAE9E9;}
	.st5{fill:#231E20;}
</style>
<g>
	<path class="st0" d="M0,35.6l132,0.6l-13.1,132.3l-53.8,14.9L12.6,168L0,35.6z"/>
	<path class="st1" d="M65.5,46.4l54.1,0.2l-10.5,114.2L65.5,173V46.4z"/>
	<path class="st2" d="M65.5,63.5l34.3-0.4l4.1,26.4l-17.6-0.2l0.2-10.1l-21.1,0.2L65.5,63.5z"/>
	<path class="st3" d="M65.5,63.5H33.9l-4.3,49l35.9-0.2V96.1l-19,0.2l1-17.1l18,0.2L65.5,63.5z"/>
	<path class="st2" d="M65.5,96.1l38,0.2l-3.9,49.8L65.5,156v-16.9l18.8-5.8l1.4-21.3l-20.2,0.2L65.5,96.1z"/>
	<path class="st4" d="M65.5,139.1l-18.4-5.8l-0.2-12.6H29.8l2.7,25.2L65.5,156L65.5,139.1z"/>
	<path class="st5" d="M53.2,0.1h8v25.1H41.3v-9.3h11.8V0.1z"/>
	<path class="st5" d="M69.5,0v9.1l7.9,7.9h-7.9v7.7h21.3v-8.2l-8.3-8.3h8.1V0.1L69.5,0z"/>
</g>
</svg>
